<?xml version="1.0" encoding="UTF-8" standalone="no"?>
<!-- Created with Inkscape (http://www.inkscape.org/) -->

<svg
   width="210mm"
   height="297mm"
   viewBox="0 0 210 297"
   version="1.1"
   id="svg1"
   inkscape:version="1.3.2 (091e20e, 2023-11-25, custom)"
   sodipodi:docname="gaming.svg"
   xmlns:inkscape="http://www.inkscape.org/namespaces/inkscape"
   xmlns:sodipodi="http://sodipodi.sourceforge.net/DTD/sodipodi-0.dtd"
   xmlns:xlink="http://www.w3.org/1999/xlink"
   xmlns="http://www.w3.org/2000/svg"
   xmlns:svg="http://www.w3.org/2000/svg">
  <sodipodi:namedview
     id="namedview1"
     pagecolor="#ffffff"
     bordercolor="#000000"
     borderopacity="0.25"
     inkscape:showpageshadow="2"
     inkscape:pageopacity="0.0"
     inkscape:pagecheckerboard="0"
     inkscape:deskcolor="#d1d1d1"
     inkscape:document-units="mm"
     inkscape:zoom="0.99402667"
     inkscape:cx="403.91271"
     inkscape:cy="537.71193"
     inkscape:window-width="790"
     inkscape:window-height="1003"
     inkscape:window-x="-8"
     inkscape:window-y="0"
     inkscape:window-maximized="0"
     inkscape:current-layer="layer1" />
  <defs
     id="defs1">
    <linearGradient
       id="linearGradient31"
       inkscape:collect="always">
      <stop
         style="stop-color:#fffa1b;stop-opacity:1"
         offset="0"
         id="stop31" />
      <stop
         style="stop-color:#ff6f1b;stop-opacity:1"
         offset="1"
         id="stop32" />
    </linearGradient>
    <linearGradient
       id="linearGradient29"
       inkscape:collect="always">
      <stop
         style="stop-color:#fffa1b;stop-opacity:1;"
         offset="0"
         id="stop29" />
      <stop
         style="stop-color:#fffa1b;stop-opacity:0;"
         offset="1"
         id="stop30" />
    </linearGradient>
    <linearGradient
       id="linearGradient26"
       inkscape:collect="always">
      <stop
         style="stop-color:#ff6f1b;stop-opacity:1"
         offset="0"
         id="stop26" />
      <stop
         style="stop-color:#fffa1b;stop-opacity:1"
         offset="1"
         id="stop27" />
    </linearGradient>
    <linearGradient
       id="linearGradient19"
       inkscape:collect="always">
      <stop
         style="stop-color:#22eeff;stop-opacity:1"
         offset="0"
         id="stop19" />
      <stop
         style="stop-color:#ff0199;stop-opacity:1"
         offset="1"
         id="stop20" />
    </linearGradient>
    <linearGradient
       inkscape:collect="always"
       xlink:href="#linearGradient19"
       id="linearGradient20"
       x1="45.923954"
       y1="148.5"
       x2="162.9924"
       y2="150.19392"
       gradientUnits="userSpaceOnUse"
       gradientTransform="matrix(0.69759196,0,0,0.69759196,31.752942,15.783322)" />
    <linearGradient
       inkscape:collect="always"
       xlink:href="#linearGradient26"
       id="linearGradient27"
       x1="120.62167"
       y1="119.24563"
       x2="120.56492"
       y2="-30.184586"
       gradientUnits="userSpaceOnUse" />
    <linearGradient
       inkscape:collect="always"
       xlink:href="#linearGradient29"
       id="linearGradient30"
       x1="111.84584"
       y1="81.44902"
       x2="36.998085"
       y2="132.55429"
       gradientUnits="userSpaceOnUse" />
    <linearGradient
       inkscape:collect="always"
       xlink:href="#linearGradient31"
       id="linearGradient32"
       x1="43.830795"
       y1="189.71863"
       x2="159.22813"
       y2="190.84792"
       gradientUnits="userSpaceOnUse" />
  </defs>
  <g
     inkscape:label="Layer 1"
     inkscape:groupmode="layer"
     id="layer1">
    <rect
       style="fill:#000000;fill-rule:evenodd;stroke-width:0.264583"
       id="rect30"
       width="210"
       height="297"
       x="0"
       y="0" />
    <g
       id="g13"
       sodipodi:insensitive="true">
      <rect
         style="fill:#003380;fill-rule:evenodd;stroke-width:0.264583"
         id="rect2"
         width="19.950571"
         height="19.950571"
         x="18.233833"
         y="10.539925" />
      <rect
         style="fill:#3096ff;fill-opacity:1;fill-rule:evenodd;stroke-width:0.264583"
         id="rect3"
         width="19.950571"
         height="19.950571"
         x="43.830795"
         y="10.539925" />
      <rect
         style="fill:#005be4;fill-opacity:1;fill-rule:evenodd;stroke-width:0.264583"
         id="rect5"
         width="19.950571"
         height="19.950571"
         x="69.42775"
         y="10.539925" />
      <rect
         style="fill:#22eeff;fill-opacity:1;fill-rule:evenodd;stroke-width:0.264583"
         id="rect6"
         width="19.950571"
         height="19.950571"
         x="95.024712"
         y="10.539925" />
      <rect
         style="fill:#ff0199;fill-opacity:1;fill-rule:evenodd;stroke-width:0.264583"
         id="rect7"
         width="19.950571"
         height="19.950571"
         x="120.62167"
         y="10.539925" />
      <rect
         style="fill:#fffa1b;fill-opacity:1;fill-rule:evenodd;stroke-width:0.264583"
         id="rect8"
         width="19.950571"
         height="19.950571"
         x="146.21863"
         y="10.539925" />
      <rect
         style="fill:#ff6f1b;fill-opacity:1;fill-rule:evenodd;stroke-width:0.264583"
         id="rect9"
         width="19.950571"
         height="19.950571"
         x="171.81558"
         y="10.539925" />
    </g>
    <g
       id="g35"
       transform="matrix(1.1050098,0,0,1.1050098,-3.0898288,-13.469023)">
      <circle
         style="fill:#007af7;fill-opacity:1;fill-rule:evenodd;stroke-width:0.163069"
         id="path23"
         cx="105.00009"
         cy="133.67598"
         r="42.688148" />
      <path
         id="path24"
         style="opacity:1;fill:#004c99;fill-opacity:1;stroke:none;stroke-width:4.88314;paint-order:markers stroke fill"
         d="m 104.99994,90.987801 c -23.575916,1.5e-4 -42.687886,19.112289 -42.687846,42.688219 0.0088,1.90095 0.144485,3.7992 0.406273,5.68205 2.073082,2.20228 21.144459,22.46526 38.605443,-1.68385 0,0 -4.068769,37.98143 21.93534,34.54546 10.7392,-5.09696 18.86673,-14.44106 22.42613,-25.78301 L 145.1824,119.26793 C 139.10009,102.30472 123.02063,90.988101 104.99994,90.987801 Z"
         sodipodi:nodetypes="cccccccc" />
      <g
         id="g30"
         transform="matrix(0.69759196,0,0,0.69759196,26.977336,10.268897)">
        <path
           id="path25"
           style="fill:url(#linearGradient27);fill-opacity:1;fill-rule:evenodd;stroke-width:0.264583"
           d="m 111.84584,61.341841 c 4.89163,25.785164 -12.8994,14.09638 -32.712345,36.609981 -3.781715,-15.670583 3.927511,-23.022364 -2.650479,-19.929355 -9.995715,4.700044 -24.383412,31.121683 -24.383403,42.982913 0.03776,2.1397 0.190769,4.27581 0.458369,6.39909 H 171.13421 c 0.26743,-2.12329 0.42027,-4.2594 0.45786,-6.39909 1e-5,-17.72443 -7.73948,-33.643709 -20.02775,-44.571519 -4.24227,-3.772595 5.75434,19.964157 -4.14624,33.134129 -4.90972,-29.246202 -26.45176,-48.226154 -35.57224,-48.226149 z"
           sodipodi:nodetypes="ccsccccscc" />
        <path
           id="path27"
           style="opacity:1;fill:url(#linearGradient30);fill-opacity:1;stroke:none;stroke-width:7;paint-order:markers stroke fill"
           d="M 111.84589,61.341992 C 116.73751,87.12713 98.946596,75.438065 79.133671,97.951644 75.35196,82.281077 83.06117,74.929622 76.483187,78.022628 66.487482,82.722667 52.099653,109.14432 52.099662,121.00553 c 0.03776,2.1397 0.19077,4.27582 0.45837,6.3991 h 59.287858 c 14.69361,-33.031286 14.56192,-34.115125 3.12952,-20.93516 -3.85745,4.4471 -17.297518,2.21315 -17.691942,2.14664 -0.152507,0.0313 -0.130225,-0.0176 -0.130225,-0.0176 0,0 0.124392,0.0166 0.130225,0.0176 0.423617,-0.0869 2.296679,-0.83934 10.516672,-5.34076 11.17926,-6.121979 4.04575,-41.933358 4.04575,-41.933358 z" />
      </g>
      <path
         id="path30"
         style="fill:#ffffff;fill-opacity:1;fill-rule:evenodd;stroke-width:0.299315"
         sodipodi:type="inkscape:offset"
         inkscape:radius="4.5801253"
         inkscape:original="M 72.615234 110.66992 A 32.571829 34.615413 0 0 0 40.042969 145.28516 A 32.571829 34.615413 0 0 0 72.615234 179.90039 A 32.571829 34.615413 0 0 0 104.53516 151.77539 L 119.15625 151.77539 A 32.571829 34.615413 0 0 0 151.07812 179.90039 A 32.571829 34.615413 0 0 0 183.64844 145.28516 A 32.571829 34.615413 0 0 0 151.07812 110.66992 L 72.615234 110.66992 z "
         d="m 72.615234,106.08984 c -9.801632,-1.4e-4 -19.517207,4.30046 -26.367187,11.58008 -6.84998,7.27962 -10.785108,17.42461 -10.785156,27.61524 5e-5,10.19062 3.935176,20.33561 10.785156,27.61523 6.84998,7.27962 16.565557,11.58022 26.367187,11.58008 a 4.5805833,4.5805833 0 0 0 0.01172,0 c 8.610403,-0.0209 17.165874,-3.32719 23.730469,-9.11133 5.606578,-4.94001 9.609118,-11.6808 11.679688,-19.01367 h 7.61914 c 2.07061,7.33351 6.07056,14.07343 11.67773,19.01367 6.56505,5.78418 15.12165,9.09102 23.73243,9.11133 a 4.5805833,4.5805833 0 0 0 0.0117,0 c 9.80126,-4.8e-4 19.51768,-4.30053 26.36719,-11.58008 6.84951,-7.27955 10.78315,-17.425 10.78321,-27.61523 -5e-5,-10.19024 -3.9337,-20.33568 -10.78321,-27.61524 -6.84951,-7.27955 -16.56593,-11.57959 -26.36719,-11.58008 z"
         transform="matrix(0.69759196,0,0,0.69759196,26.977337,19.459605)" />
      <path
         id="path19"
         style="fill:url(#linearGradient20);fill-opacity:1;fill-rule:evenodd;stroke-width:0.2088"
         d="M 77.632492,96.661661 A 22.721846,24.147434 0 0 0 54.91074,120.80899 22.721846,24.147434 0 0 0 77.632492,144.9563 22.721846,24.147434 0 0 0 99.899914,125.33646 H 110.10028 A 22.721846,24.147434 0 0 0 132.3677,144.9563 22.721846,24.147434 0 0 0 155.08945,120.80899 22.721846,24.147434 0 0 0 132.3677,96.661661 Z" />
      <rect
         style="fill:#003380;fill-opacity:1;fill-rule:evenodd;stroke-width:0.184571"
         id="rect20"
         width="6.3021994"
         height="25.73398"
         x="74.555382"
         y="107.94199" />
      <rect
         style="fill:#003380;fill-opacity:1;fill-rule:evenodd;stroke-width:0.184571"
         id="rect21"
         width="6.3021994"
         height="25.73398"
         x="117.65788"
         y="-90.573479"
         transform="rotate(90)" />
      <ellipse
         style="fill:#003380;fill-opacity:1;fill-rule:evenodd;stroke-width:0.118403"
         id="path21"
         cx="131.91573"
         cy="109.90136"
         rx="4.4640584"
         ry="4.342823" />
      <ellipse
         style="fill:#003380;fill-opacity:1;fill-rule:evenodd;stroke-width:0.118403"
         id="ellipse21"
         cx="123.51282"
         cy="119.61726"
         rx="4.4640584"
         ry="4.342823" />
      <ellipse
         style="fill:#003380;fill-opacity:1;fill-rule:evenodd;stroke-width:0.118403"
         id="ellipse22"
         cx="141.36903"
         cy="119.61726"
         rx="4.4640584"
         ry="4.342823" />
      <ellipse
         style="fill:#003380;fill-opacity:1;fill-rule:evenodd;stroke-width:0.118403"
         id="ellipse23"
         cx="131.91573"
         cy="128.28278"
         rx="4.4640584"
         ry="4.342823" />
    </g>
    <path
       id="path35"
       style="font-size:24.9464px;line-height:1;font-family:'Bauhaus 93';-inkscape-font-specification:'Bauhaus 93, ';text-align:center;text-anchor:middle;fill:#808080;stroke-width:0.467744"
       sodipodi:type="inkscape:offset"
       inkscape:radius="1.9660916"
       inkscape:original="M 137.74023 181.28906 C 137.12307 181.28906 136.58561 181.50875 136.13086 181.94727 C 135.68423 182.37766 135.46094 182.88767 135.46094 183.48047 C 135.46094 184.11387 135.67343 184.63499 136.0957 185.04102 C 136.52609 185.44704 137.07435 185.65039 137.74023 185.65039 C 138.40612 185.65039 138.94882 185.44704 139.37109 185.04102 C 139.80148 184.63499 140.01758 184.11387 140.01758 183.48047 C 140.01758 182.88767 139.79069 182.37766 139.33594 181.94727 C 138.88931 181.50875 138.3574 181.28906 137.74023 181.28906 z M 93.912109 181.8125 C 91.50842 181.8125 89.504358 182.63308 87.896484 184.27344 C 86.296732 185.91379 85.496094 187.96689 85.496094 190.43555 C 85.496094 192.89608 86.283984 194.98382 87.859375 196.69727 C 89.434766 198.41071 91.351856 199.26758 93.609375 199.26758 C 95.347178 199.26758 96.808537 198.71573 97.994141 197.61133 C 99.187865 196.50693 99.783203 195.14169 99.783203 193.51758 C 99.783203 192.12084 99.27679 190.79385 98.261719 189.53516 L 93.546875 189.53516 L 93.546875 193.31055 L 94.728516 193.31055 C 95.21575 193.31055 95.458984 193.47401 95.458984 193.79883 C 95.458984 194.22922 95.090535 194.44336 94.351562 194.44336 C 93.190321 194.44336 92.268066 194.09845 91.585938 193.4082 C 90.903808 192.71795 90.5625 191.7849 90.5625 190.60742 C 90.5625 189.4543 90.929305 188.5157 91.660156 187.79297 C 92.399128 187.07024 93.348524 186.70898 94.509766 186.70898 C 95.151291 186.70898 95.86105 186.89239 96.640625 187.25781 L 96.640625 182.3125 C 95.641795 181.97956 94.732287 181.8125 93.912109 181.8125 z M 38.769531 182.22656 L 38.769531 187.00195 L 42.558594 187.00195 L 42.558594 198.85352 L 47.503906 198.85352 L 47.503906 187.00195 L 51.279297 187.00195 L 51.279297 182.22656 L 38.769531 182.22656 z M 52.765625 182.22656 L 52.765625 198.85352 L 57.322266 198.85352 L 57.322266 192.25195 C 57.322266 191.49674 57.578248 191.11914 58.089844 191.11914 C 58.406546 191.11914 58.617089 191.20804 58.722656 191.38672 C 58.836344 191.56537 58.892578 191.91388 58.892578 192.43359 L 58.892578 198.85352 L 63.449219 198.85352 L 63.449219 191.1543 C 63.449219 189.71696 63.104312 188.57696 62.414062 187.73242 C 61.731935 186.88788 60.806081 186.46484 59.636719 186.46484 C 58.865264 186.46484 58.09372 186.74632 57.322266 187.30664 L 57.322266 182.22656 L 52.765625 182.22656 z M 71.853516 186.44141 C 70.050748 186.44141 68.527604 187.05504 67.285156 188.28125 C 66.050829 189.50746 65.433594 191.0087 65.433594 192.78711 C 65.433594 194.57364 66.047231 196.07128 67.273438 197.28125 C 68.499644 198.49122 70.013639 199.09766 71.816406 199.09766 C 73.294351 199.09766 74.639644 198.62198 75.849609 197.67188 L 73.253906 194.55273 C 72.831636 195.00749 72.394205 195.23633 71.939453 195.23633 C 71.379134 195.23633 70.923403 194.99309 70.574219 194.50586 C 70.233155 194.01863 70.0625 193.37949 70.0625 192.5918 C 70.0625 191.83658 70.242304 191.21935 70.599609 190.74023 C 70.956915 190.253 71.419841 190.00977 71.988281 190.00977 C 72.840941 190.00977 73.347354 190.45994 73.509766 191.36133 L 71.195312 191.36133 C 71.049143 191.75112 70.976562 192.15061 70.976562 192.55664 C 70.976562 192.84898 71.029202 193.16839 71.134766 193.51758 L 78.041016 193.51758 C 78.073496 193.12779 78.089844 192.84467 78.089844 192.66602 C 78.089844 190.91197 77.488954 189.43786 76.287109 188.24414 C 75.093385 187.0423 73.61568 186.44141 71.853516 186.44141 z M 148.10547 186.45312 C 146.58692 186.45314 145.30341 186.99778 144.25586 188.08594 C 143.20831 189.16597 142.68555 190.49657 142.68555 192.08008 L 142.68555 198.85352 L 147.24023 198.85352 L 147.24023 191.99609 C 147.24023 191.29772 147.52531 190.94727 148.09375 190.94727 C 148.67031 190.94727 148.95898 191.29772 148.95898 191.99609 L 148.95898 198.85352 L 153.51367 198.85352 L 153.51367 192.44727 C 153.51367 190.69322 153.10338 189.32439 152.2832 188.3418 C 151.23565 187.08311 149.84327 186.45313 148.10547 186.45312 z M 161.85742 186.45312 C 160.0709 186.45312 158.5641 187.05042 157.33789 188.24414 C 156.11168 189.43786 155.5 190.90282 155.5 192.64062 C 155.5 194.2485 156.00641 195.61014 157.02148 196.72266 C 158.04468 197.83517 159.2919 198.39062 160.76172 198.39062 C 161.36264 198.39062 161.99262 198.26901 162.65039 198.02539 L 162.65039 193.84766 C 162.36617 193.99383 162.06835 194.06641 161.75977 194.06641 C 161.29689 194.06641 160.9085 193.9121 160.5918 193.60352 C 160.28322 193.29493 160.12891 192.91014 160.12891 192.44727 C 160.12891 192.00875 160.29041 191.62201 160.61523 191.28906 C 160.94818 190.948 161.33493 190.77734 161.77344 190.77734 C 162.80475 190.77734 163.32031 191.41452 163.32031 192.68945 L 163.32031 197.25781 C 163.32031 198.26476 163.09702 199.03631 162.65039 199.57227 C 162.20376 200.11634 161.57018 200.38867 160.75 200.38867 C 160.14096 200.38867 159.54007 200.22521 158.94727 199.90039 L 158.94727 204.04297 C 159.86489 204.34343 160.62369 204.49414 161.22461 204.49414 C 163.19791 204.49414 164.79723 203.81512 166.02344 202.45898 C 167.25776 201.11097 167.875 199.35374 167.875 197.18555 L 167.875 193.18945 C 167.875 191.16743 167.46111 189.62434 166.63281 188.56055 C 166.13746 187.91902 165.45484 187.40706 164.58594 187.02539 C 163.71704 186.64372 162.80753 186.45313 161.85742 186.45312 z M 107.11719 186.46484 C 105.35502 186.46484 103.85737 187.07848 102.62305 188.30469 C 101.39684 189.53089 100.7832 191.02495 100.7832 192.78711 C 100.7832 194.598 101.39129 196.1048 102.60938 197.30664 C 103.82746 198.50849 105.35061 199.10937 107.17773 199.10938 C 107.48632 199.10936 107.82763 199.07672 108.20117 199.01172 L 108.20117 194.29688 C 107.86011 194.508 107.4897 194.61523 107.0918 194.61523 C 106.60456 194.61523 106.20342 194.45178 105.88672 194.12695 C 105.57002 193.80213 105.41211 193.38824 105.41211 192.88477 C 105.41211 192.40565 105.58636 191.99176 105.93555 191.64258 C 106.28473 191.29339 106.69862 191.11914 107.17773 191.11914 C 107.70557 191.11914 108.12306 191.30974 108.43164 191.69141 C 108.74834 192.07307 108.9082 192.58504 108.9082 193.22656 L 108.9082 198.85352 L 113.46289 198.85352 L 113.46289 192.89648 C 113.46289 190.90694 112.89469 189.34031 111.75781 188.19531 C 110.62905 187.04219 109.08237 186.46484 107.11719 186.46484 z M 120.83203 186.46484 C 119.52462 186.46484 118.41177 186.94412 117.49414 187.90234 C 116.57652 188.85245 116.11914 190.01074 116.11914 191.375 L 116.11914 198.85352 L 120.67383 198.85352 L 120.67383 192.3125 C 120.67383 191.41112 120.92621 190.96094 121.42969 190.96094 C 121.70579 190.96094 121.89639 191.05704 122.00195 191.25195 C 122.11564 191.44685 122.17187 191.79731 122.17188 192.30078 L 122.17188 198.85352 L 126.72852 198.85352 L 126.72852 192.3125 C 126.72852 191.41112 126.9845 190.96094 127.49609 190.96094 C 127.77219 190.96094 127.96279 191.05704 128.06836 191.25195 C 128.17393 191.44685 128.22656 191.79731 128.22656 192.30078 L 128.22656 198.85352 L 132.78125 198.85352 L 132.78125 191.88672 C 132.78125 190.23824 132.42 188.98383 131.69727 188.12305 C 130.77964 187.01865 129.56152 186.46484 128.04297 186.46484 C 126.84924 186.46484 125.65661 187.03304 124.46289 188.16992 C 123.39098 187.03304 122.18005 186.46484 120.83203 186.46484 z M 135.44922 186.70898 L 135.44922 198.85352 L 140.00586 198.85352 L 140.00586 186.70898 L 135.44922 186.70898 z M 83.046875 207.17383 L 83.046875 217.84375 C 83.046875 219.71148 83.551643 221.17284 84.558594 222.22852 C 85.565545 223.27607 86.970669 223.80078 88.773438 223.80078 L 90.087891 223.80078 L 90.087891 218.97656 L 89.832031 218.97656 C 89.10118 218.97656 88.611113 218.85135 88.359375 218.59961 C 88.115758 218.33975 87.992188 217.82224 87.992188 217.05078 L 87.992188 207.17383 L 83.046875 207.17383 z M 97.177734 211.40039 C 95.342485 211.40039 93.799396 212.00848 92.548828 213.22656 C 91.29826 214.43653 90.671875 215.93058 90.671875 217.70898 C 90.671875 219.45491 91.29826 220.94896 92.548828 222.19141 C 93.799396 223.42573 95.306195 224.04297 97.068359 224.04297 C 98.830524 224.04297 100.33177 223.42573 101.57422 222.19141 C 102.82479 220.95708 103.45117 219.46303 103.45117 217.70898 C 103.45117 215.9793 102.83394 214.498 101.59961 213.26367 C 100.3734 212.02122 98.899296 211.40039 97.177734 211.40039 z M 111.03906 211.40039 C 109.25254 211.40039 107.74574 211.99573 106.51953 213.18945 C 105.29332 214.38318 104.68164 215.85009 104.68164 217.58789 C 104.68164 219.19576 105.18806 220.55545 106.20312 221.66797 C 107.22633 222.78049 108.47354 223.33789 109.94336 223.33789 C 110.54428 223.33789 111.17231 223.21432 111.83008 222.9707 L 111.83008 218.79297 C 111.54586 218.93914 111.24999 219.01367 110.94141 219.01367 C 110.47853 219.01367 110.08819 218.85936 109.77148 218.55078 C 109.4629 218.2422 109.30859 217.85545 109.30859 217.39258 C 109.30859 216.95407 109.47204 216.56927 109.79688 216.23633 C 110.12981 215.89526 110.51462 215.72461 110.95312 215.72461 C 111.98444 215.72461 112.5 216.36179 112.5 217.63672 L 112.5 222.20508 C 112.5 223.21203 112.27671 223.98162 111.83008 224.51758 C 111.38345 225.06166 110.75182 225.33398 109.93164 225.33398 C 109.3226 225.33398 108.72171 225.17248 108.12891 224.84766 L 108.12891 228.98828 C 109.04653 229.28874 109.80533 229.43945 110.40625 229.43945 C 112.37955 229.43945 113.97887 228.76239 115.20508 227.40625 C 116.43941 226.05823 117.05664 224.29905 117.05664 222.13086 L 117.05664 218.13672 C 117.05664 216.1147 116.64275 214.57161 115.81445 213.50781 C 115.3191 212.86629 114.63648 212.35432 113.76758 211.97266 C 112.89868 211.59099 111.98917 211.40039 111.03906 211.40039 z M 125.49805 211.40039 C 123.6628 211.40039 122.11971 212.00848 120.86914 213.22656 C 119.61857 214.43653 118.99414 215.93058 118.99414 217.70898 C 118.99414 219.45491 119.61857 220.94896 120.86914 222.19141 C 122.11971 223.42573 123.62651 224.04297 125.38867 224.04297 C 127.15084 224.04297 128.65208 223.42573 129.89453 222.19141 C 131.1451 220.95708 131.77148 219.46303 131.77148 217.70898 C 131.77148 215.9793 131.15425 214.498 129.91992 213.26367 C 128.69372 212.02122 127.21961 211.40039 125.49805 211.40039 z M 97.054688 215.89453 C 97.550042 215.89453 97.969483 216.07238 98.310547 216.42969 C 98.651611 216.77887 98.822266 217.20911 98.822266 217.7207 C 98.822266 218.22418 98.648013 218.65637 98.298828 219.01367 C 97.957764 219.37098 97.541922 219.54883 97.054688 219.54883 C 96.575574 219.54883 96.161685 219.37098 95.8125 219.01367 C 95.471436 218.65637 95.300781 218.22418 95.300781 217.7207 C 95.300781 217.20911 95.471436 216.77887 95.8125 216.42969 C 96.153564 216.07238 96.567452 215.89453 97.054688 215.89453 z M 125.37695 215.89453 C 125.87231 215.89453 126.2898 216.07238 126.63086 216.42969 C 126.97192 216.77887 127.14258 217.20911 127.14258 217.7207 C 127.14258 218.22418 126.96833 218.65637 126.61914 219.01367 C 126.27808 219.37098 125.86419 219.54883 125.37695 219.54883 C 124.89784 219.54883 124.482 219.37098 124.13281 219.01367 C 123.79175 218.65637 123.62109 218.22418 123.62109 217.7207 C 123.62109 217.20911 123.79175 216.77887 124.13281 216.42969 C 124.47388 216.07238 124.88972 215.89453 125.37695 215.89453 z "
       d="m 137.74023,179.32227 c -1.08373,0 -2.19885,0.46091 -2.97461,1.20898 -0.76969,0.7417 -1.27148,1.86271 -1.27148,2.94922 0,0.83858 0.34117,1.67061 0.83789,2.3789 a 1.9662882,1.9662882 0 0 0 -0.84961,0.84961 v 0.6875 c -0.1116,-0.16618 -0.14738,-0.37612 -0.27734,-0.53125 -1.25777,-1.51162 -3.16702,-2.36718 -5.16211,-2.36718 -1.28249,0 -2.45989,0.54712 -3.56836,1.28515 -1.10973,-0.7431 -2.3219,-1.28515 -3.64258,-1.28515 -1.78644,0 -3.5138,0.74974 -4.7539,2.04297 -0.70136,0.72714 -1.17018,1.61338 -1.49219,2.55859 -0.36695,-0.83231 -0.78896,-1.6366 -1.42969,-2.2832 -1.52704,-1.55683 -3.69137,-2.31836 -6.03906,-2.31836 -2.2186,0 -4.31314,0.85663 -5.87891,2.41211 a 1.9662882,1.9662882 0 0 0 -0.006,0.004 c -0.52134,0.52134 -0.84071,1.17299 -1.19922,1.79883 -0.0956,-0.13124 -0.137338,-0.28452 -0.240231,-0.41211 a 1.9662882,1.9662882 0 0 0 -1.392578,-0.66601 1.9662882,1.9662882 0 0 0 0.207031,-0.37696 v -4.94531 a 1.9662882,1.9662882 0 0 0 -1.345703,-1.86523 c -1.151327,-0.38378 -2.262454,-0.60157 -3.34961,-0.60157 -2.851147,0 -5.469813,1.06128 -7.419922,3.05078 a 1.9662882,1.9662882 0 0 0 -0.0039,0.004 c -1.943344,1.99266 -2.958984,4.6414 -2.958984,7.53516 0,2.88023 0.989921,5.53302 2.882812,7.59179 1.892227,2.05804 4.442246,3.20703 7.197266,3.20703 2.152158,0 4.184994,-0.75114 5.720703,-2.17968 l 0.002,-0.002 c 0.474821,-0.43961 0.755749,-1.01155 1.097659,-1.54492 0.27583,0.39602 0.44969,0.85474 0.79883,1.19922 1.56815,1.54726 3.69105,2.36913 5.94921,2.36914 0.44714,-3e-5 0.89803,-0.0463 1.36133,-0.12695 a 1.9662882,1.9662882 0 0 0 0.22657,-0.27149 1.9662882,1.9662882 0 0 0 0.14257,0.14258 h 4.55469 a 1.9662882,1.9662882 0 0 0 1.32813,-1.32812 1.9662882,1.9662882 0 0 0 1.32812,1.32812 h 4.55469 a 1.9662882,1.9662882 0 0 0 0.74805,-0.75 1.9662882,1.9662882 0 0 0 0.75,0.75 h 4.55664 a 1.9662882,1.9662882 0 0 0 0.74804,-0.75 1.9662882,1.9662882 0 0 0 0.75,0.75 h 4.55469 a 1.9662882,1.9662882 0 0 0 1.33398,-1.33398 1.9662882,1.9662882 0 0 0 1.33399,1.33398 h 4.55664 a 1.9662882,1.9662882 0 0 0 1.33984,-1.33984 1.9662882,1.9662882 0 0 0 1.33985,1.33984 h 4.55468 a 1.9662882,1.9662882 0 0 0 0.85938,-0.85937 1.9662882,1.9662882 0 0 0 0.85937,0.85937 h 4.55469 a 1.9662882,1.9662882 0 0 0 1.9668,-1.96679 v -0.95118 c 0.0376,0.0431 0.0492,0.10216 0.0879,0.14453 a 1.9662882,1.9662882 0 0 0 0.006,0.006 c 0.49575,0.53903 1.12398,0.89617 1.74414,1.25586 a 1.9662882,1.9662882 0 0 0 -0.33789,0.5918 v 4.14258 a 1.9662882,1.9662882 0 0 0 1.35547,1.86914 c 1.03746,0.3397 1.95902,0.54883 2.88867,0.54883 2.42129,0 4.67265,-0.93909 6.25,-2.67969 1.58579,-1.7344 2.36719,-4.05658 2.36719,-6.5957 v -3.9961 c 0,-2.28929 -0.45798,-4.29377 -1.65625,-5.83398 -0.71979,-0.93049 -1.69585,-1.64208 -2.8086,-2.13086 -1.11077,-0.48791 -2.3065,-0.73827 -3.51953,-0.73828 -2.22474,0 -4.32246,0.82299 -5.89062,2.34961 -0.56404,0.54909 -0.92436,1.23424 -1.29883,1.90625 -0.25165,-0.57739 -0.46996,-1.17488 -0.87305,-1.65821 l -0.002,-0.002 c -1.38918,-1.66782 -3.4755,-2.59569 -5.6875,-2.5957 -1.98864,2e-5 -3.88891,0.80624 -5.26563,2.23633 -0.37878,0.39129 -0.58676,0.89181 -0.86718,1.34961 v -1.36329 a 1.9662882,1.9662882 0 0 0 -0.8418,-0.84179 c 0.5043,-0.70872 0.85351,-1.54374 0.85351,-2.38672 0,-1.08797 -0.51212,-2.20614 -1.28515,-2.94531 -0.76885,-0.74842 -1.88081,-1.21289 -2.95899,-1.21289 z m -98.970699,0.9375 a 1.9662882,1.9662882 0 0 0 -1.966797,1.96679 v 4.77539 a 1.9662882,1.9662882 0 0 0 1.966797,1.9668 h 1.822266 v 9.88477 a 1.9662882,1.9662882 0 0 0 1.966797,1.96679 h 4.945312 a 1.9662882,1.9662882 0 0 0 1.966797,-1.96679 v -9.88477 h 1.328125 v 9.88477 a 1.9662882,1.9662882 0 0 0 1.966797,1.96679 h 4.556641 a 1.9662882,1.9662882 0 0 0 0.785156,-0.78515 1.9662882,1.9662882 0 0 0 0.785156,0.78515 h 4.556641 a 1.9662882,1.9662882 0 0 0 1.966797,-1.96679 v -0.88282 c 0.182268,0.22338 0.268964,0.50609 0.476562,0.71094 1.568343,1.54758 3.680143,2.38281 5.923828,2.38281 1.899804,0 3.732041,-0.65529 5.248047,-1.8457 a 1.9662882,1.9662882 0 0 0 0.296875,-2.80469 l -0.773437,-0.92969 h 1.453125 A 1.9662882,1.9662882 0 0 0 80,193.68164 c 0.03449,-0.41389 0.05664,-0.71703 0.05664,-1.01562 0,-2.20064 -0.840556,-4.27791 -2.38086,-5.81055 -1.534035,-1.54169 -3.615585,-2.38086 -5.822265,-2.38086 -2.248914,0 -4.368395,0.84804 -5.949219,2.4082 a 1.9662882,1.9662882 0 0 0 -0.0039,0.004 c -0.427823,0.42501 -0.664914,0.97124 -0.984375,1.46875 -0.238018,-0.66948 -0.530198,-1.31389 -0.978516,-1.86328 -1.027161,-1.26797 -2.659623,-1.99414 -4.300781,-1.99414 -0.119306,0 -0.229406,0.054 -0.347657,0.0625 v -2.33399 a 1.9662882,1.9662882 0 0 0 -1.966796,-1.96679 h -4.556641 a 1.9662882,1.9662882 0 0 0 -0.742188,0.74414 1.9662882,1.9662882 0 0 0 -0.74414,-0.74414 z m 101.964839,6.19921 c -0.005,0.004 -0.0111,0.008 -0.01,0.006 0.003,-0.003 0.007,-0.003 0.01,-0.006 z m -57.687495,18.74805 a 1.9662882,1.9662882 0 0 0 -1.966797,1.9668 v 10.66992 c 0,2.22196 0.650722,4.26823 2.056641,5.74219 a 1.9662882,1.9662882 0 0 0 0.0039,0.006 c 1.412898,1.46986 3.448548,2.17578 5.632812,2.17578 h 1.314454 a 1.9662882,1.9662882 0 0 0 1.740234,-1.74024 c 1.493093,1.21711 3.289629,1.98243 5.240234,1.98243 2.219422,0 4.315431,-0.86096 5.886721,-2.41993 l 0.002,-0.002 c 0.49202,-0.48595 0.78398,-1.09818 1.13477,-1.67578 0.22893,0.3564 0.36924,0.76338 0.6582,1.08008 a 1.9662882,1.9662882 0 0 0 0.006,0.006 c 0.49547,0.53871 1.12417,0.89581 1.74414,1.25586 a 1.9662882,1.9662882 0 0 0 -0.33789,0.59375 v 4.14062 a 1.9662882,1.9662882 0 0 0 1.35547,1.86914 c 1.03746,0.3397 1.95902,0.54883 2.88867,0.54883 2.41999,0 4.67202,-0.93645 6.25,-2.67773 1.44917,-1.58498 2.14257,-3.69169 2.26563,-5.97461 0.20954,0.26564 0.31894,0.59005 0.5625,0.83203 a 1.9662882,1.9662882 0 0 0 0.004,0.004 c 1.5793,1.55878 3.67912,2.41993 5.90039,2.41993 2.22035,0 4.31717,-0.86168 5.88867,-2.42188 1.58025,-1.56075 2.46094,-3.65772 2.46094,-5.87891 0,-2.19316 -0.86686,-4.26844 -2.41992,-5.82617 l -0.002,-0.002 c -1.54936,-1.56886 -3.62505,-2.44727 -5.81836,-2.44727 -2.26767,0 -4.40116,0.82943 -5.9961,2.38086 -6.6e-4,6.5e-4 -0.001,0.001 -0.002,0.002 -6.6e-4,6.4e-4 -0.001,0.001 -0.002,0.002 -0.60153,0.58279 -0.99431,1.3071 -1.38282,2.02734 -0.23085,-0.52592 -0.39733,-1.09218 -0.74804,-1.54297 -0.71979,-0.93046 -1.69583,-1.64208 -2.8086,-2.13086 -1.11076,-0.4879 -2.30648,-0.73828 -3.51953,-0.73828 -2.2233,0 -4.32169,0.8203 -5.89062,2.34766 -0.48599,0.47311 -0.77126,1.0762 -1.11719,1.64258 -0.32911,-0.52544 -0.58557,-1.09204 -1.0332,-1.54102 l -0.002,-0.002 c -1.54936,-1.56885 -3.625044,-2.44727 -5.818356,-2.44727 -2.267668,0 -4.401157,0.82942 -5.996093,2.38086 -6.66e-4,6.5e-4 -0.0013,0.001 -0.002,0.002 -6.58e-4,6.4e-4 -0.0013,0.001 -0.002,0.002 -0.529841,0.51334 -0.853027,1.16282 -1.21875,1.78516 v -6.42969 a 1.9662882,1.9662882 0 0 0 -1.966797,-1.9668 z m 14.007812,12.375 c 0.21443,0.035 0.257172,0.14555 0.171875,0.20899 -0.0016,-0.008 -0.180277,0.0703 -0.171875,0.0703 0.02357,0 -0.149518,-0.0722 -0.158203,-0.0703 -0.0078,-0.0298 -0.04102,-0.13372 -0.04102,-0.0703 0,0.0416 0.0312,-0.0479 0.03125,-0.0684 0.0071,0.005 0.176281,-0.0703 0.167968,-0.0703 z m 28.322263,0 c 0.21312,0.0379 0.25482,0.14274 0.16993,0.20899 -0.004,-0.006 -0.17831,0.0703 -0.16993,0.0703 0.0236,0 -0.15347,-0.0744 -0.16015,-0.0703 -0.008,-0.0298 -0.041,-0.13371 -0.041,-0.0703 0,0.0416 0.0312,-0.0479 0.0312,-0.0684 0.005,0.007 0.17825,-0.0703 0.16992,-0.0703 z"
       transform="matrix(0.81590516,0,0,0.81590516,20.69883,43.002262)" />
    <path
       id="text30"
       style="font-style:normal;font-variant:normal;font-weight:normal;font-stretch:normal;font-size:24.9464px;line-height:1;font-family:'Bauhaus 93';-inkscape-font-specification:'Bauhaus 93, ';text-align:center;text-anchor:middle;fill:url(#linearGradient32);fill-opacity:1;stroke-width:0.467744"
       sodipodi:type="inkscape:offset"
       inkscape:radius="0"
       inkscape:original="M 137.74023 181.28906 C 137.12307 181.28906 136.58561 181.50875 136.13086 181.94727 C 135.68423 182.37766 135.46094 182.88767 135.46094 183.48047 C 135.46094 184.11387 135.67343 184.63499 136.0957 185.04102 C 136.52609 185.44704 137.07435 185.65039 137.74023 185.65039 C 138.40612 185.65039 138.94882 185.44704 139.37109 185.04102 C 139.80148 184.63499 140.01758 184.11387 140.01758 183.48047 C 140.01758 182.88767 139.79069 182.37766 139.33594 181.94727 C 138.88931 181.50875 138.3574 181.28906 137.74023 181.28906 z M 93.912109 181.8125 C 91.50842 181.8125 89.504358 182.63308 87.896484 184.27344 C 86.296732 185.91379 85.496094 187.96689 85.496094 190.43555 C 85.496094 192.89608 86.283984 194.98382 87.859375 196.69727 C 89.434766 198.41071 91.351856 199.26758 93.609375 199.26758 C 95.347178 199.26758 96.808537 198.71573 97.994141 197.61133 C 99.187865 196.50693 99.783203 195.14169 99.783203 193.51758 C 99.783203 192.12084 99.27679 190.79385 98.261719 189.53516 L 93.546875 189.53516 L 93.546875 193.31055 L 94.728516 193.31055 C 95.21575 193.31055 95.458984 193.47401 95.458984 193.79883 C 95.458984 194.22922 95.090535 194.44336 94.351562 194.44336 C 93.190321 194.44336 92.268066 194.09845 91.585938 193.4082 C 90.903809 192.71795 90.5625 191.7849 90.5625 190.60742 C 90.5625 189.4543 90.929305 188.5157 91.660156 187.79297 C 92.399128 187.07024 93.348524 186.70898 94.509766 186.70898 C 95.151291 186.70898 95.86105 186.89239 96.640625 187.25781 L 96.640625 182.3125 C 95.641795 181.97956 94.732287 181.8125 93.912109 181.8125 z M 38.769531 182.22656 L 38.769531 187.00195 L 42.558594 187.00195 L 42.558594 198.85352 L 47.503906 198.85352 L 47.503906 187.00195 L 51.279297 187.00195 L 51.279297 182.22656 L 38.769531 182.22656 z M 52.765625 182.22656 L 52.765625 198.85352 L 57.322266 198.85352 L 57.322266 192.25195 C 57.322266 191.49674 57.578248 191.11914 58.089844 191.11914 C 58.406546 191.11914 58.617089 191.20807 58.722656 191.38672 C 58.836344 191.56537 58.892578 191.91388 58.892578 192.43359 L 58.892578 198.85352 L 63.449219 198.85352 L 63.449219 191.1543 C 63.449219 189.71696 63.104311 188.57696 62.414062 187.73242 C 61.731934 186.88788 60.806081 186.46484 59.636719 186.46484 C 58.865264 186.46484 58.09372 186.74632 57.322266 187.30664 L 57.322266 182.22656 L 52.765625 182.22656 z M 71.853516 186.44141 C 70.050748 186.44141 68.527604 187.05504 67.285156 188.28125 C 66.050829 189.50746 65.433594 191.0087 65.433594 192.78711 C 65.433594 194.57364 66.047231 196.07128 67.273438 197.28125 C 68.499644 198.49122 70.013639 199.09766 71.816406 199.09766 C 73.294351 199.09766 74.639644 198.62198 75.849609 197.67188 L 73.253906 194.55273 C 72.831636 195.00749 72.394205 195.23633 71.939453 195.23633 C 71.379134 195.23633 70.923403 194.99309 70.574219 194.50586 C 70.233155 194.01863 70.0625 193.37949 70.0625 192.5918 C 70.0625 191.83658 70.242304 191.21935 70.599609 190.74023 C 70.956915 190.253 71.419841 190.00977 71.988281 190.00977 C 72.840941 190.00977 73.347354 190.45994 73.509766 191.36133 L 71.195312 191.36133 C 71.049142 191.75112 70.976562 192.15061 70.976562 192.55664 C 70.976562 192.84898 71.029198 193.16839 71.134766 193.51758 L 78.041016 193.51758 C 78.073498 193.12779 78.089844 192.84467 78.089844 192.66602 C 78.089844 190.91197 77.488954 189.43786 76.287109 188.24414 C 75.093385 187.0423 73.61568 186.44141 71.853516 186.44141 z M 148.10547 186.45312 C 146.58692 186.45313 145.30341 186.99778 144.25586 188.08594 C 143.20831 189.16597 142.68555 190.49657 142.68555 192.08008 L 142.68555 198.85352 L 147.24023 198.85352 L 147.24023 191.99609 C 147.24023 191.29772 147.52531 190.94727 148.09375 190.94727 C 148.67031 190.94727 148.95898 191.29772 148.95898 191.99609 L 148.95898 198.85352 L 153.51367 198.85352 L 153.51367 192.44727 C 153.51367 190.69322 153.10338 189.32439 152.2832 188.3418 C 151.23565 187.08311 149.84327 186.45312 148.10547 186.45312 z M 161.85742 186.45312 C 160.0709 186.45312 158.5641 187.05042 157.33789 188.24414 C 156.11168 189.43786 155.5 190.90282 155.5 192.64062 C 155.5 194.2485 156.00641 195.61014 157.02148 196.72266 C 158.04468 197.83517 159.2919 198.39062 160.76172 198.39062 C 161.36264 198.39062 161.99262 198.26901 162.65039 198.02539 L 162.65039 193.84766 C 162.36617 193.99383 162.06835 194.06641 161.75977 194.06641 C 161.29689 194.06641 160.9085 193.9121 160.5918 193.60352 C 160.28322 193.29493 160.12891 192.91014 160.12891 192.44727 C 160.12891 192.00875 160.29041 191.62201 160.61523 191.28906 C 160.94818 190.948 161.33493 190.77734 161.77344 190.77734 C 162.80475 190.77734 163.32031 191.41452 163.32031 192.68945 L 163.32031 197.25781 C 163.32031 198.26476 163.09702 199.03631 162.65039 199.57227 C 162.20376 200.11634 161.57018 200.38867 160.75 200.38867 C 160.14096 200.38867 159.54007 200.22521 158.94727 199.90039 L 158.94727 204.04297 C 159.86489 204.34343 160.62369 204.49414 161.22461 204.49414 C 163.19791 204.49414 164.79723 203.81512 166.02344 202.45898 C 167.25776 201.11097 167.875 199.35374 167.875 197.18555 L 167.875 193.18945 C 167.875 191.16743 167.46111 189.62434 166.63281 188.56055 C 166.13746 187.91902 165.45484 187.40706 164.58594 187.02539 C 163.71704 186.64372 162.80753 186.45312 161.85742 186.45312 z M 107.11719 186.46484 C 105.35502 186.46484 103.85737 187.07848 102.62305 188.30469 C 101.39684 189.53089 100.7832 191.02495 100.7832 192.78711 C 100.7832 194.598 101.39129 196.1048 102.60938 197.30664 C 103.82746 198.50849 105.35061 199.10938 107.17773 199.10938 C 107.48632 199.10937 107.82763 199.07668 108.20117 199.01172 L 108.20117 194.29688 C 107.86011 194.50801 107.4897 194.61523 107.0918 194.61523 C 106.60456 194.61523 106.20342 194.45178 105.88672 194.12695 C 105.57002 193.80213 105.41211 193.38824 105.41211 192.88477 C 105.41211 192.40565 105.58636 191.99176 105.93555 191.64258 C 106.28473 191.29339 106.69862 191.11914 107.17773 191.11914 C 107.70557 191.11914 108.12306 191.30974 108.43164 191.69141 C 108.74834 192.07307 108.9082 192.58504 108.9082 193.22656 L 108.9082 198.85352 L 113.46289 198.85352 L 113.46289 192.89648 C 113.46289 190.90694 112.89469 189.34031 111.75781 188.19531 C 110.62905 187.04219 109.08237 186.46484 107.11719 186.46484 z M 120.83203 186.46484 C 119.52462 186.46484 118.41177 186.94412 117.49414 187.90234 C 116.57652 188.85245 116.11914 190.01074 116.11914 191.375 L 116.11914 198.85352 L 120.67383 198.85352 L 120.67383 192.3125 C 120.67383 191.41112 120.92621 190.96094 121.42969 190.96094 C 121.70579 190.96094 121.89639 191.05706 122.00195 191.25195 C 122.11564 191.44685 122.17188 191.79731 122.17188 192.30078 L 122.17188 198.85352 L 126.72852 198.85352 L 126.72852 192.3125 C 126.72852 191.41112 126.9845 190.96094 127.49609 190.96094 C 127.77219 190.96094 127.96279 191.05706 128.06836 191.25195 C 128.17393 191.44685 128.22656 191.79731 128.22656 192.30078 L 128.22656 198.85352 L 132.78125 198.85352 L 132.78125 191.88672 C 132.78125 190.23824 132.42 188.98383 131.69727 188.12305 C 130.77964 187.01865 129.56152 186.46484 128.04297 186.46484 C 126.84924 186.46484 125.65661 187.03304 124.46289 188.16992 C 123.39098 187.03304 122.18005 186.46484 120.83203 186.46484 z M 135.44922 186.70898 L 135.44922 198.85352 L 140.00586 198.85352 L 140.00586 186.70898 L 135.44922 186.70898 z M 83.046875 207.17383 L 83.046875 217.84375 C 83.046875 219.71148 83.551643 221.17284 84.558594 222.22852 C 85.565545 223.27607 86.97067 223.80078 88.773438 223.80078 L 90.087891 223.80078 L 90.087891 218.97656 L 89.832031 218.97656 C 89.10118 218.97656 88.611113 218.85135 88.359375 218.59961 C 88.115758 218.33975 87.992188 217.82224 87.992188 217.05078 L 87.992188 207.17383 L 83.046875 207.17383 z M 97.177734 211.40039 C 95.342485 211.40039 93.799396 212.00848 92.548828 213.22656 C 91.29826 214.43653 90.671875 215.93058 90.671875 217.70898 C 90.671875 219.45491 91.29826 220.94896 92.548828 222.19141 C 93.799396 223.42573 95.306195 224.04297 97.068359 224.04297 C 98.830524 224.04297 100.33177 223.42573 101.57422 222.19141 C 102.82479 220.95708 103.45117 219.46303 103.45117 217.70898 C 103.45117 215.9793 102.83394 214.498 101.59961 213.26367 C 100.3734 212.02122 98.899296 211.40039 97.177734 211.40039 z M 111.03906 211.40039 C 109.25254 211.40039 107.74574 211.99573 106.51953 213.18945 C 105.29332 214.38318 104.68164 215.85009 104.68164 217.58789 C 104.68164 219.19576 105.18805 220.55545 106.20312 221.66797 C 107.22632 222.78049 108.47354 223.33789 109.94336 223.33789 C 110.54428 223.33789 111.17231 223.21432 111.83008 222.9707 L 111.83008 218.79297 C 111.54586 218.93914 111.24999 219.01367 110.94141 219.01367 C 110.47853 219.01367 110.08819 218.85936 109.77148 218.55078 C 109.4629 218.2422 109.30859 217.85545 109.30859 217.39258 C 109.30859 216.95407 109.47205 216.56927 109.79688 216.23633 C 110.12982 215.89526 110.51461 215.72461 110.95312 215.72461 C 111.98444 215.72461 112.5 216.36179 112.5 217.63672 L 112.5 222.20508 C 112.5 223.21203 112.27671 223.98162 111.83008 224.51758 C 111.38345 225.06166 110.75182 225.33398 109.93164 225.33398 C 109.3226 225.33398 108.72171 225.17248 108.12891 224.84766 L 108.12891 228.98828 C 109.04653 229.28874 109.80533 229.43945 110.40625 229.43945 C 112.37955 229.43945 113.97887 228.76239 115.20508 227.40625 C 116.43941 226.05823 117.05664 224.29905 117.05664 222.13086 L 117.05664 218.13672 C 117.05664 216.1147 116.64275 214.57161 115.81445 213.50781 C 115.3191 212.86629 114.63648 212.35432 113.76758 211.97266 C 112.89868 211.59099 111.98917 211.40039 111.03906 211.40039 z M 125.49805 211.40039 C 123.6628 211.40039 122.11971 212.00848 120.86914 213.22656 C 119.61857 214.43653 118.99414 215.93058 118.99414 217.70898 C 118.99414 219.45491 119.61857 220.94896 120.86914 222.19141 C 122.11971 223.42573 123.62651 224.04297 125.38867 224.04297 C 127.15084 224.04297 128.65208 223.42573 129.89453 222.19141 C 131.1451 220.95708 131.77148 219.46303 131.77148 217.70898 C 131.77148 215.9793 131.15425 214.498 129.91992 213.26367 C 128.69372 212.02122 127.21961 211.40039 125.49805 211.40039 z M 97.054688 215.89453 C 97.550042 215.89453 97.969483 216.07238 98.310547 216.42969 C 98.651611 216.77887 98.822266 217.20911 98.822266 217.7207 C 98.822266 218.22418 98.648013 218.65637 98.298828 219.01367 C 97.957764 219.37098 97.541922 219.54883 97.054688 219.54883 C 96.575574 219.54883 96.161685 219.37098 95.8125 219.01367 C 95.471436 218.65637 95.300781 218.22418 95.300781 217.7207 C 95.300781 217.20911 95.471436 216.77887 95.8125 216.42969 C 96.153564 216.07238 96.567453 215.89453 97.054688 215.89453 z M 125.37695 215.89453 C 125.87231 215.89453 126.2898 216.07238 126.63086 216.42969 C 126.97192 216.77887 127.14258 217.20911 127.14258 217.7207 C 127.14258 218.22418 126.96833 218.65637 126.61914 219.01367 C 126.27808 219.37098 125.86419 219.54883 125.37695 219.54883 C 124.89784 219.54883 124.482 219.37098 124.13281 219.01367 C 123.79175 218.65637 123.62109 218.22418 123.62109 217.7207 C 123.62109 217.20911 123.79175 216.77887 124.13281 216.42969 C 124.47388 216.07238 124.88972 215.89453 125.37695 215.89453 z "
       d="m 137.74023,181.28906 c -0.61716,0 -1.15462,0.21969 -1.60937,0.65821 -0.44663,0.43039 -0.66992,0.9404 -0.66992,1.5332 0,0.6334 0.21249,1.15452 0.63476,1.56055 0.43039,0.40602 0.97865,0.60937 1.64453,0.60937 0.66589,0 1.20859,-0.20335 1.63086,-0.60937 0.43039,-0.40603 0.64649,-0.92715 0.64649,-1.56055 0,-0.5928 -0.22689,-1.10281 -0.68164,-1.5332 -0.44663,-0.43852 -0.97854,-0.65821 -1.59571,-0.65821 z m -43.828121,0.52344 c -2.403689,0 -4.407751,0.82058 -6.015625,2.46094 -1.599752,1.64035 -2.40039,3.69345 -2.40039,6.16211 0,2.46053 0.78789,4.54827 2.363281,6.26172 1.575391,1.71344 3.492481,2.57031 5.75,2.57031 1.737803,0 3.199162,-0.55185 4.384766,-1.65625 1.193724,-1.1044 1.789062,-2.46964 1.789062,-4.09375 0,-1.39674 -0.506413,-2.72373 -1.521484,-3.98242 h -4.714844 v 3.77539 h 1.181641 c 0.487234,0 0.730468,0.16346 0.730468,0.48828 0,0.43039 -0.368449,0.64453 -1.107422,0.64453 -1.161241,0 -2.083496,-0.34491 -2.765624,-1.03516 -0.682129,-0.69025 -1.023438,-1.6233 -1.023438,-2.80078 0,-1.15312 0.366805,-2.09172 1.097656,-2.81445 0.738972,-0.72273 1.688368,-1.08399 2.84961,-1.08399 0.641525,0 1.351284,0.18341 2.130859,0.54883 v -4.94531 c -0.99883,-0.33294 -1.908338,-0.5 -2.728516,-0.5 z m -55.142578,0.41406 v 4.77539 h 3.789063 v 11.85157 h 4.945312 v -11.85157 h 3.775391 v -4.77539 z m 13.996094,0 v 16.62696 h 4.556641 v -6.60157 c 0,-0.75521 0.255982,-1.13281 0.767578,-1.13281 0.316702,0 0.527245,0.0889 0.632812,0.26758 0.113688,0.17865 0.169922,0.52716 0.169922,1.04687 v 6.41993 h 4.556641 v -7.69922 c 0,-1.43734 -0.344908,-2.57734 -1.035157,-3.42188 -0.682128,-0.84454 -1.607981,-1.26758 -2.777343,-1.26758 -0.771455,0 -1.542999,0.28148 -2.314453,0.8418 v -5.08008 z m 19.087891,4.21485 c -1.802768,0 -3.325912,0.61363 -4.56836,1.83984 -1.234327,1.22621 -1.851562,2.72745 -1.851562,4.50586 0,1.78653 0.613637,3.28417 1.839844,4.49414 1.226206,1.20997 2.740201,1.81641 4.542968,1.81641 1.477945,0 2.823238,-0.47568 4.033203,-1.42578 l -2.595703,-3.11915 c -0.42227,0.45476 -0.859701,0.6836 -1.314453,0.6836 -0.560319,0 -1.01605,-0.24324 -1.365234,-0.73047 -0.341064,-0.48723 -0.511719,-1.12637 -0.511719,-1.91406 0,-0.75522 0.179804,-1.37245 0.537109,-1.85157 0.357306,-0.48723 0.820232,-0.73046 1.388672,-0.73046 0.85266,0 1.359073,0.45017 1.521485,1.35156 h -2.314454 c -0.14617,0.38979 -0.21875,0.78928 -0.21875,1.19531 0,0.29234 0.05264,0.61175 0.158204,0.96094 h 6.90625 c 0.03248,-0.38979 0.04883,-0.67291 0.04883,-0.85156 0,-1.75405 -0.60089,-3.22816 -1.802735,-4.42188 -1.193724,-1.20184 -2.671429,-1.80273 -4.433593,-1.80273 z m 76.251954,0.0117 c -1.51855,10e-6 -2.80206,0.54466 -3.84961,1.63282 -1.04755,1.08003 -1.57031,2.41063 -1.57031,3.99414 v 6.77344 h 4.55468 v -6.85743 c 0,-0.69837 0.28508,-1.04882 0.85352,-1.04882 0.57656,0 0.86523,0.35045 0.86523,1.04882 v 6.85743 h 4.55469 v -6.40625 c 0,-1.75405 -0.41029,-3.12288 -1.23047,-4.10547 -1.04755,-1.25869 -2.43993,-1.88868 -4.17773,-1.88868 z m 13.75195,0 c -1.78652,0 -3.29332,0.5973 -4.51953,1.79102 -1.22621,1.19372 -1.83789,2.65868 -1.83789,4.39648 0,1.60788 0.50641,2.96952 1.52148,4.08204 1.0232,1.11251 2.27042,1.66796 3.74024,1.66796 0.60092,0 1.2309,-0.12161 1.88867,-0.36523 v -4.17773 c -0.28422,0.14617 -0.58204,0.21875 -0.89062,0.21875 -0.46288,0 -0.85127,-0.15431 -1.16797,-0.46289 -0.30858,-0.30859 -0.46289,-0.69338 -0.46289,-1.15625 0,-0.43852 0.1615,-0.82526 0.48632,-1.15821 0.33295,-0.34106 0.7197,-0.51172 1.15821,-0.51172 1.03131,0 1.54687,0.63718 1.54687,1.91211 v 4.56836 c 0,1.00695 -0.22329,1.7785 -0.66992,2.31446 -0.44663,0.54407 -1.08021,0.8164 -1.90039,0.8164 -0.60904,0 -1.20993,-0.16346 -1.80273,-0.48828 v 4.14258 c 0.91762,0.30046 1.67642,0.45117 2.27734,0.45117 1.9733,0 3.57262,-0.67902 4.79883,-2.03516 1.23432,-1.34801 1.85156,-3.10524 1.85156,-5.27343 v -3.9961 c 0,-2.02202 -0.41389,-3.56511 -1.24219,-4.6289 -0.49535,-0.64153 -1.17797,-1.15349 -2.04687,-1.53516 -0.8689,-0.38167 -1.77841,-0.57227 -2.72852,-0.57227 z m -54.74023,0.0117 c -1.76217,0 -3.25982,0.61364 -4.49414,1.83985 -1.22621,1.2262 -1.83985,2.72026 -1.83985,4.48242 0,1.81089 0.60809,3.31769 1.82618,4.51953 1.21808,1.20185 2.74123,1.80274 4.56835,1.80274 0.30859,-10e-6 0.6499,-0.0327 1.02344,-0.0977 v -4.71484 c -0.34106,0.21113 -0.71147,0.31835 -1.10937,0.31835 -0.48724,0 -0.88838,-0.16345 -1.20508,-0.48828 -0.3167,-0.32482 -0.47461,-0.73871 -0.47461,-1.24218 0,-0.47912 0.17425,-0.89301 0.52344,-1.24219 0.34918,-0.34919 0.76307,-0.52344 1.24218,-0.52344 0.52784,0 0.94533,0.1906 1.25391,0.57227 0.3167,0.38166 0.47656,0.89363 0.47656,1.53515 v 5.62696 h 4.55469 v -5.95704 c 0,-1.98954 -0.5682,-3.55617 -1.70508,-4.70117 -1.12876,-1.15312 -2.67544,-1.73047 -4.64062,-1.73047 z m 13.71484,0 c -1.30741,0 -2.42026,0.47928 -3.33789,1.4375 -0.91762,0.95011 -1.375,2.1084 -1.375,3.47266 v 7.47852 h 4.55469 v -6.54102 c 0,-0.90138 0.25238,-1.35156 0.75586,-1.35156 0.2761,0 0.4667,0.0961 0.57226,0.29101 0.11369,0.1949 0.16993,0.54536 0.16993,1.04883 v 6.55274 h 4.55664 v -6.54102 c 0,-0.90138 0.25598,-1.35156 0.76757,-1.35156 0.2761,0 0.4667,0.0961 0.57227,0.29101 0.10557,0.1949 0.1582,0.54536 0.1582,1.04883 v 6.55274 h 4.55469 v -6.9668 c 0,-1.64848 -0.36125,-2.90289 -1.08398,-3.76367 -0.91763,-1.1044 -2.13575,-1.65821 -3.6543,-1.65821 -1.19373,0 -2.38636,0.5682 -3.58008,1.70508 -1.07191,-1.13688 -2.28284,-1.70508 -3.63086,-1.70508 z m 14.61719,0.24414 v 12.14454 h 4.55664 v -12.14454 z m -52.402345,20.46485 v 10.66992 c 0,1.86773 0.504768,3.32909 1.511719,4.38477 1.006951,1.04755 2.412076,1.57226 4.214844,1.57226 h 1.314453 v -4.82422 h -0.25586 c -0.730851,0 -1.220918,-0.12521 -1.472656,-0.37695 -0.243617,-0.25986 -0.367187,-0.77737 -0.367187,-1.54883 v -9.87695 z m 14.130859,4.22656 c -1.835249,0 -3.378338,0.60809 -4.628906,1.82617 -1.250568,1.20997 -1.876953,2.70402 -1.876953,4.48242 0,1.74593 0.626385,3.23998 1.876953,4.48243 1.250568,1.23432 2.757367,1.85156 4.519531,1.85156 1.762165,0 3.263411,-0.61724 4.505861,-1.85156 1.25057,-1.23433 1.87695,-2.72838 1.87695,-4.48243 0,-1.72968 -0.61723,-3.21098 -1.85156,-4.44531 -1.22621,-1.24245 -2.700314,-1.86328 -4.421876,-1.86328 z m 13.861326,0 c -1.78652,0 -3.29332,0.59534 -4.51953,1.78906 -1.22621,1.19373 -1.83789,2.66064 -1.83789,4.39844 0,1.60787 0.50641,2.96756 1.52148,4.08008 1.0232,1.11252 2.27042,1.66992 3.74024,1.66992 0.60092,0 1.22895,-0.12357 1.88672,-0.36719 v -4.17773 c -0.28422,0.14617 -0.58009,0.2207 -0.88867,0.2207 -0.46288,0 -0.85322,-0.15431 -1.16993,-0.46289 -0.30858,-0.30858 -0.46289,-0.69533 -0.46289,-1.1582 0,-0.43851 0.16346,-0.82331 0.48829,-1.15625 0.33294,-0.34107 0.71773,-0.51172 1.15624,-0.51172 1.03132,0 1.54688,0.63718 1.54688,1.91211 v 4.56836 c 0,1.00695 -0.22329,1.77654 -0.66992,2.3125 -0.44663,0.54408 -1.07826,0.8164 -1.89844,0.8164 -0.60904,0 -1.20993,-0.1615 -1.80273,-0.48632 v 4.14062 c 0.91762,0.30046 1.67642,0.45117 2.27734,0.45117 1.9733,0 3.57262,-0.67706 4.79883,-2.0332 1.23433,-1.34802 1.85156,-3.1072 1.85156,-5.27539 v -3.99414 c 0,-2.02202 -0.41389,-3.56511 -1.24219,-4.62891 -0.49535,-0.64152 -1.17797,-1.15349 -2.04687,-1.53515 -0.8689,-0.38167 -1.77841,-0.57227 -2.72852,-0.57227 z m 14.45899,0 c -1.83525,0 -3.37834,0.60809 -4.62891,1.82617 -1.25057,1.20997 -1.875,2.70402 -1.875,4.48242 0,1.74593 0.62443,3.23998 1.875,4.48243 1.25057,1.23432 2.75737,1.85156 4.51953,1.85156 1.76217,0 3.26341,-0.61724 4.50586,-1.85156 1.25057,-1.23433 1.87695,-2.72838 1.87695,-4.48243 0,-1.72968 -0.61723,-3.21098 -1.85156,-4.44531 -1.2262,-1.24245 -2.70031,-1.86328 -4.42187,-1.86328 z m -28.443362,4.49414 c 0.495354,0 0.914795,0.17785 1.255859,0.53516 0.341064,0.34918 0.511719,0.77942 0.511719,1.29101 0,0.50348 -0.174253,0.93567 -0.523438,1.29297 -0.341064,0.35731 -0.756906,0.53516 -1.24414,0.53516 -0.479114,0 -0.893003,-0.17785 -1.242188,-0.53516 -0.341064,-0.3573 -0.511719,-0.78949 -0.511719,-1.29297 0,-0.51159 0.170655,-0.94183 0.511719,-1.29101 0.341064,-0.35731 0.754953,-0.53516 1.242188,-0.53516 z m 28.322262,0 c 0.49536,0 0.91285,0.17785 1.25391,0.53516 0.34106,0.34918 0.51172,0.77942 0.51172,1.29101 0,0.50348 -0.17425,0.93567 -0.52344,1.29297 -0.34106,0.35731 -0.75495,0.53516 -1.24219,0.53516 -0.47911,0 -0.89495,-0.17785 -1.24414,-0.53516 -0.34106,-0.3573 -0.51172,-0.78949 -0.51172,-1.29297 0,-0.51159 0.17066,-0.94183 0.51172,-1.29101 0.34107,-0.35731 0.75691,-0.53516 1.24414,-0.53516 z"
       transform="matrix(0.81590516,0,0,0.81590516,16.912522,39.985646)" />
  </g>
</svg>
