<?xml version="1.0" encoding="UTF-8" standalone="no"?>
<svg
   width="42"
   height="32"
   viewBox="0 0 42 32"
   fill="none"
   version="1.1"
   id="svg22"
   sodipodi:docname="icon-photo.svg"
   inkscape:version="1.3.2 (091e20e, 2023-11-25, custom)"
   xmlns:inkscape="http://www.inkscape.org/namespaces/inkscape"
   xmlns:sodipodi="http://sodipodi.sourceforge.net/DTD/sodipodi-0.dtd"
   xmlns="http://www.w3.org/2000/svg"
   xmlns:svg="http://www.w3.org/2000/svg">
  <sodipodi:namedview
     id="namedview22"
     pagecolor="#ffffff"
     bordercolor="#000000"
     borderopacity="0.25"
     inkscape:showpageshadow="2"
     inkscape:pageopacity="0.0"
     inkscape:pagecheckerboard="0"
     inkscape:deskcolor="#d1d1d1"
     inkscape:zoom="12.140625"
     inkscape:cx="33.770914"
     inkscape:cy="11.490347"
     inkscape:window-width="1920"
     inkscape:window-height="991"
     inkscape:window-x="-9"
     inkscape:window-y="-9"
     inkscape:window-maximized="1"
     inkscape:current-layer="svg22" />
  <defs
     id="defs22">
    <linearGradient
       id="paint0_linear"
       x1="3.69867"
       y1="4.89825"
       x2="22.5688"
       y2="37.2522"
       gradientUnits="userSpaceOnUse"
       gradientTransform="translate(-13.837838,-24.690218)">
      <stop
         offset="0.259336"
         stop-color="#FFDB6E"
         id="stop5" />
      <stop
         offset="1"
         stop-color="#FFBC5E"
         id="stop6" />
    </linearGradient>
    <linearGradient
       id="paint1_linear"
       x1="1.17724"
       y1="18.7359"
       x2="2.78931"
       y2="19.2346"
       gradientUnits="userSpaceOnUse"
       gradientTransform="translate(-13.837838,-24.690218)">
      <stop
         offset="0.259336"
         stop-color="#FFDB6E"
         id="stop7" />
      <stop
         offset="1"
         stop-color="#FFBC5E"
         id="stop8" />
    </linearGradient>
    <linearGradient
       id="paint2_linear"
       x1="1.17724"
       y1="18.7359"
       x2="2.78931"
       y2="19.2346"
       gradientUnits="userSpaceOnUse"
       gradientTransform="translate(-13.837838,-24.690218)">
      <stop
         offset="0.259336"
         stop-color="#FFDB6E"
         id="stop9" />
      <stop
         offset="1"
         stop-color="#FFBC5E"
         id="stop10" />
    </linearGradient>
    <linearGradient
       id="paint3_linear"
       x1="3.26667"
       y1="0.900025"
       x2="27.6816"
       y2="36.6089"
       gradientUnits="userSpaceOnUse"
       gradientTransform="translate(-13.837838,-24.690218)">
      <stop
         offset="0.259336"
         stop-color="#FFDB6E"
         id="stop11" />
      <stop
         offset="1"
         stop-color="#FFBC5E"
         id="stop12" />
    </linearGradient>
    <linearGradient
       id="paint4_linear"
       x1="3.26667"
       y1="0.900025"
       x2="27.6816"
       y2="36.6089"
       gradientUnits="userSpaceOnUse"
       gradientTransform="translate(-13.837838,-24.690218)">
      <stop
         offset="0.259336"
         stop-color="#FFDB6E"
         id="stop13" />
      <stop
         offset="1"
         stop-color="#FFBC5E"
         id="stop14" />
    </linearGradient>
    <linearGradient
       id="paint5_linear"
       x1="14.1208"
       y1="12.223"
       x2="27.511"
       y2="27.0155"
       gradientUnits="userSpaceOnUse"
       gradientTransform="translate(-13.837838,-24.690218)">
      <stop
         offset="0.259336"
         stop-color="#FFDB6E"
         id="stop15" />
      <stop
         offset="1"
         stop-color="#FFBC5E"
         id="stop16" />
    </linearGradient>
    <linearGradient
       id="paint6_linear"
       x1="14.1208"
       y1="12.223"
       x2="27.511"
       y2="27.0155"
       gradientUnits="userSpaceOnUse"
       gradientTransform="translate(-13.837838,-24.690218)">
      <stop
         offset="0.259336"
         stop-color="#FFDB6E"
         id="stop17" />
      <stop
         offset="1"
         stop-color="#FFBC5E"
         id="stop18" />
    </linearGradient>
    <linearGradient
       id="paint7_linear"
       x1="16.2288"
       y1="14.5995"
       x2="25.5157"
       y2="24.8592"
       gradientUnits="userSpaceOnUse"
       gradientTransform="translate(-13.837838,-24.690218)">
      <stop
         offset="0.259336"
         stop-color="#FFDB6E"
         id="stop19" />
      <stop
         offset="1"
         stop-color="#FFBC5E"
         id="stop20" />
    </linearGradient>
    <linearGradient
       id="paint8_linear"
       x1="16.2288"
       y1="14.5995"
       x2="25.5157"
       y2="24.8592"
       gradientUnits="userSpaceOnUse"
       gradientTransform="translate(-13.837838,-24.690218)">
      <stop
         offset="0.259336"
         stop-color="#FFDB6E"
         id="stop21" />
      <stop
         offset="1"
         stop-color="#FFBC5E"
         id="stop22" />
    </linearGradient>
  </defs>
  <g
     id="g24"
     transform="translate(-24.397695,19.131994)">
    <path
       id="path22"
       style="font-variation-settings:normal;opacity:0.846154;vector-effect:none;fill:#ffb336;fill-opacity:1;fill-rule:evenodd;stroke-width:1.30794;stroke-linecap:butt;stroke-linejoin:miter;stroke-miterlimit:4;stroke-dasharray:none;stroke-dashoffset:0;stroke-opacity:1;-inkscape-stroke:none;stop-color:#000000;stop-opacity:1"
       d="M 45.397695,-18.801916 A 15.670692,15.670692 0 0 0 29.727773,-3.1319941 15.670692,15.670692 0 0 0 45.397695,12.537927 15.670692,15.670692 0 0 0 61.067617,-3.1319941 15.670692,15.670692 0 0 0 45.397695,-18.801916 Z m 0,1.63086 A 14.039887,14.039887 0 0 1 59.436757,-3.1319941 14.039887,14.039887 0 0 1 45.397695,10.907067 14.039887,14.039887 0 0 1 31.358632,-3.1319941 14.039887,14.039887 0 0 1 45.397695,-17.171056 Z" />
    <text
       xml:space="preserve"
       style="font-style:normal;font-variant:normal;font-weight:normal;font-stretch:normal;font-size:9.59551px;font-family:'Segoe UI Variable';-inkscape-font-specification:'Segoe UI Variable';opacity:0.846154;fill:#ffb336;fill-opacity:1;stroke:#ffb336;stroke-width:0.6;stroke-linejoin:round;stroke-dasharray:none;stroke-opacity:0.847059"
       x="32.53162"
       y="0.37943512"
       id="text22"><tspan
         sodipodi:role="line"
         id="tspan22"
         x="32.53162"
         y="0.37943512"
         style="fill:#ffb336;fill-opacity:1;stroke:#ffb336;stroke-width:0.6;stroke-dasharray:none;stroke-opacity:0.847059">LOGO</tspan></text>
    <path
       id="path23"
       style="font-variation-settings:normal;opacity:0.846154;vector-effect:none;fill:#ffb336;fill-opacity:1;fill-rule:evenodd;stroke-width:1.074;stroke-linecap:butt;stroke-linejoin:miter;stroke-miterlimit:4;stroke-dasharray:none;stroke-dashoffset:0;stroke-opacity:1;-inkscape-stroke:none;stop-color:#000000;stop-opacity:1"
       d="m 45.397543,-15.999377 a 12.867842,12.867842 0 0 0 -10.484375,5.455078 h 1.703125 a 11.528722,11.528722 0 0 1 8.78125,-4.115235 11.528722,11.528722 0 0 1 8.783203,4.115235 h 1.701172 A 12.867842,12.867842 0 0 0 45.397543,-15.999377 Z M 34.915121,4.2818725 a 12.867842,12.867842 0 0 0 10.482422,5.453125 12.867842,12.867842 0 0 0 10.482422,-5.453125 h -1.701172 a 11.528722,11.528722 0 0 1 -8.78125,4.113281 11.528722,11.528722 0 0 1 -8.78125,-4.113281 z" />
    <path
       id="path24"
       style="font-variation-settings:normal;opacity:0.846154;vector-effect:none;fill:#ffb336;fill-opacity:1;fill-rule:evenodd;stroke-width:0.832321;stroke-linecap:butt;stroke-linejoin:miter;stroke-miterlimit:4;stroke-dasharray:none;stroke-dashoffset:0;stroke-opacity:1;-inkscape-stroke:none;stop-color:#000000;stop-opacity:1"
       d="m 45.397695,-13.103722 a 9.9722352,9.9722352 0 0 0 -8.125112,4.2275404 h 1.319877 a 8.9344529,8.9344529 0 0 1 6.805235,-3.1891974 8.9344529,8.9344529 0 0 1 6.806748,3.1891974 h 1.318364 A 9.9722352,9.9722352 0 0 0 45.397695,-13.103722 Z M 37.274097,2.6137065 a 9.9722352,9.9722352 0 0 0 8.123598,4.226027 9.9722352,9.9722352 0 0 0 8.123598,-4.226027 H 52.20293 a 8.9344529,8.9344529 0 0 1 -6.805235,3.187684 8.9344529,8.9344529 0 0 1 -6.805234,-3.187684 z" />
  </g>
</svg>
