<?xml version="1.0" encoding="UTF-8" standalone="no"?>
<!-- Created with Inkscape (http://www.inkscape.org/) -->

<svg
   width="2160"
   height="3840"
   viewBox="0 0 571.50001 1016"
   version="1.1"
   id="svg1"
   inkscape:export-filename="bitmap.png"
   inkscape:export-xdpi="96"
   inkscape:export-ydpi="96"
   sodipodi:docname="hello.svg"
   inkscape:version="1.3.2 (091e20e, 2023-11-25, custom)"
   xmlns:inkscape="http://www.inkscape.org/namespaces/inkscape"
   xmlns:sodipodi="http://sodipodi.sourceforge.net/DTD/sodipodi-0.dtd"
   xmlns="http://www.w3.org/2000/svg"
   xmlns:svg="http://www.w3.org/2000/svg">
  <sodipodi:namedview
     id="namedview1"
     pagecolor="#ffffff"
     bordercolor="#000000"
     borderopacity="0.25"
     inkscape:showpageshadow="2"
     inkscape:pageopacity="0.0"
     inkscape:pagecheckerboard="0"
     inkscape:deskcolor="#d1d1d1"
     inkscape:document-units="mm"
     inkscape:zoom="0.20807292"
     inkscape:cx="1081.3517"
     inkscape:cy="1920"
     inkscape:window-width="1920"
     inkscape:window-height="1013"
     inkscape:window-x="-9"
     inkscape:window-y="-9"
     inkscape:window-maximized="1"
     inkscape:current-layer="layer1" />
  <defs
     id="defs1">
    <filter
       style="color-interpolation-filters:sRGB"
       inkscape:label="Drop Shadow"
       id="filter1412"
       x="-0.026196945"
       y="-0.014109886"
       width="1.0725333"
       height="1.0505604">
      <feFlood
         result="flood"
         in="SourceGraphic"
         flood-opacity="0.498039"
         flood-color="rgb(0,0,0)"
         id="feFlood1411" />
      <feGaussianBlur
         result="blur"
         in="SourceGraphic"
         stdDeviation="2.500000"
         id="feGaussianBlur1411" />
      <feOffset
         result="offset"
         in="blur"
         dx="4.612622"
         dy="9.500000"
         id="feOffset1411" />
      <feComposite
         result="comp1"
         operator="out"
         in="flood"
         in2="offset"
         id="feComposite1411" />
      <feComposite
         result="fbSourceGraphic"
         operator="atop"
         in="comp1"
         in2="SourceGraphic"
         id="feComposite1412" />
      <feColorMatrix
         result="fbSourceGraphicAlpha"
         in="fbSourceGraphic"
         values="0 0 0 -1 0 0 0 0 -1 0 0 0 0 -1 0 0 0 0 1 0"
         id="feColorMatrix1424" />
      <feFlood
         id="feFlood1424"
         result="flood"
         in="fbSourceGraphic"
         flood-opacity="0.498039"
         flood-color="rgb(0,0,0)" />
      <feGaussianBlur
         id="feGaussianBlur1424"
         result="blur"
         in="fbSourceGraphic"
         stdDeviation="2.500000" />
      <feOffset
         id="feOffset1424"
         result="offset"
         in="blur"
         dx="4.612622"
         dy="9.500000" />
      <feComposite
         id="feComposite1425"
         result="comp1"
         operator="out"
         in="flood"
         in2="offset" />
      <feComposite
         id="feComposite1426"
         result="comp2"
         operator="atop"
         in="comp1"
         in2="fbSourceGraphic" />
    </filter>
    <filter
       style="color-interpolation-filters:sRGB"
       inkscape:label="Drop Shadow"
       id="filter1414"
       x="-0.034062514"
       y="-0.016071025"
       width="1.0943113"
       height="1.0575878">
      <feFlood
         result="flood"
         in="SourceGraphic"
         flood-opacity="0.498039"
         flood-color="rgb(0,0,0)"
         id="feFlood1412" />
      <feGaussianBlur
         result="blur"
         in="SourceGraphic"
         stdDeviation="2.500000"
         id="feGaussianBlur1412" />
      <feOffset
         result="offset"
         in="blur"
         dx="4.612622"
         dy="9.500000"
         id="feOffset1412" />
      <feComposite
         result="comp1"
         operator="out"
         in="flood"
         in2="offset"
         id="feComposite1413" />
      <feComposite
         result="fbSourceGraphic"
         operator="atop"
         in="comp1"
         in2="SourceGraphic"
         id="feComposite1414" />
      <feColorMatrix
         result="fbSourceGraphicAlpha"
         in="fbSourceGraphic"
         values="0 0 0 -1 0 0 0 0 -1 0 0 0 0 -1 0 0 0 0 1 0"
         id="feColorMatrix1426" />
      <feFlood
         id="feFlood1426"
         result="flood"
         in="fbSourceGraphic"
         flood-opacity="0.498039"
         flood-color="rgb(0,0,0)" />
      <feGaussianBlur
         id="feGaussianBlur1426"
         result="blur"
         in="fbSourceGraphic"
         stdDeviation="2.500000" />
      <feOffset
         id="feOffset1426"
         result="offset"
         in="blur"
         dx="4.612622"
         dy="9.500000" />
      <feComposite
         id="feComposite1427"
         result="comp1"
         operator="out"
         in="flood"
         in2="offset" />
      <feComposite
         id="feComposite1428"
         result="comp2"
         operator="atop"
         in="comp1"
         in2="fbSourceGraphic" />
    </filter>
    <filter
       style="color-interpolation-filters:sRGB"
       inkscape:label="Drop Shadow"
       id="filter1416"
       x="-0.043345713"
       y="-0.017629968"
       width="1.1200143"
       height="1.0631741">
      <feFlood
         result="flood"
         in="SourceGraphic"
         flood-opacity="0.498039"
         flood-color="rgb(0,0,0)"
         id="feFlood1414" />
      <feGaussianBlur
         result="blur"
         in="SourceGraphic"
         stdDeviation="2.500000"
         id="feGaussianBlur1414" />
      <feOffset
         result="offset"
         in="blur"
         dx="4.612622"
         dy="9.500000"
         id="feOffset1414" />
      <feComposite
         result="comp1"
         operator="out"
         in="flood"
         in2="offset"
         id="feComposite1415" />
      <feComposite
         result="fbSourceGraphic"
         operator="atop"
         in="comp1"
         in2="SourceGraphic"
         id="feComposite1416" />
      <feColorMatrix
         result="fbSourceGraphicAlpha"
         in="fbSourceGraphic"
         values="0 0 0 -1 0 0 0 0 -1 0 0 0 0 -1 0 0 0 0 1 0"
         id="feColorMatrix1428" />
      <feFlood
         id="feFlood1428"
         result="flood"
         in="fbSourceGraphic"
         flood-opacity="0.498039"
         flood-color="rgb(0,0,0)" />
      <feGaussianBlur
         id="feGaussianBlur1428"
         result="blur"
         in="fbSourceGraphic"
         stdDeviation="2.500000" />
      <feOffset
         id="feOffset1428"
         result="offset"
         in="blur"
         dx="4.612622"
         dy="9.500000" />
      <feComposite
         id="feComposite1429"
         result="comp1"
         operator="out"
         in="flood"
         in2="offset" />
      <feComposite
         id="feComposite1430"
         result="comp2"
         operator="atop"
         in="comp1"
         in2="fbSourceGraphic" />
    </filter>
    <filter
       style="color-interpolation-filters:sRGB"
       inkscape:label="Drop Shadow"
       id="filter1418"
       x="-0.060990455"
       y="-0.022299832"
       width="1.1688686"
       height="1.0799077">
      <feFlood
         result="flood"
         in="SourceGraphic"
         flood-opacity="0.498039"
         flood-color="rgb(0,0,0)"
         id="feFlood1416" />
      <feGaussianBlur
         result="blur"
         in="SourceGraphic"
         stdDeviation="2.500000"
         id="feGaussianBlur1416" />
      <feOffset
         result="offset"
         in="blur"
         dx="4.612622"
         dy="9.500000"
         id="feOffset1416" />
      <feComposite
         result="comp1"
         operator="out"
         in="flood"
         in2="offset"
         id="feComposite1417" />
      <feComposite
         result="fbSourceGraphic"
         operator="atop"
         in="comp1"
         in2="SourceGraphic"
         id="feComposite1418" />
      <feColorMatrix
         result="fbSourceGraphicAlpha"
         in="fbSourceGraphic"
         values="0 0 0 -1 0 0 0 0 -1 0 0 0 0 -1 0 0 0 0 1 0"
         id="feColorMatrix1430" />
      <feFlood
         id="feFlood1430"
         result="flood"
         in="fbSourceGraphic"
         flood-opacity="0.498039"
         flood-color="rgb(0,0,0)" />
      <feGaussianBlur
         id="feGaussianBlur1430"
         result="blur"
         in="fbSourceGraphic"
         stdDeviation="2.500000" />
      <feOffset
         id="feOffset1430"
         result="offset"
         in="blur"
         dx="4.612622"
         dy="9.500000" />
      <feComposite
         id="feComposite1431"
         result="comp1"
         operator="out"
         in="flood"
         in2="offset" />
      <feComposite
         id="feComposite1432"
         result="comp2"
         operator="atop"
         in="comp1"
         in2="fbSourceGraphic" />
    </filter>
    <filter
       style="color-interpolation-filters:sRGB"
       inkscape:label="Drop Shadow"
       id="filter1420"
       x="-0.10795836"
       y="-0.031227796"
       width="1.2989119"
       height="1.1118996">
      <feFlood
         result="flood"
         in="SourceGraphic"
         flood-opacity="0.498039"
         flood-color="rgb(0,0,0)"
         id="feFlood1418" />
      <feGaussianBlur
         result="blur"
         in="SourceGraphic"
         stdDeviation="2.500000"
         id="feGaussianBlur1418" />
      <feOffset
         result="offset"
         in="blur"
         dx="4.612622"
         dy="9.500000"
         id="feOffset1418" />
      <feComposite
         result="comp1"
         operator="out"
         in="flood"
         in2="offset"
         id="feComposite1419" />
      <feComposite
         result="fbSourceGraphic"
         operator="atop"
         in="comp1"
         in2="SourceGraphic"
         id="feComposite1420" />
      <feColorMatrix
         result="fbSourceGraphicAlpha"
         in="fbSourceGraphic"
         values="0 0 0 -1 0 0 0 0 -1 0 0 0 0 -1 0 0 0 0 1 0"
         id="feColorMatrix1432" />
      <feFlood
         id="feFlood1432"
         result="flood"
         in="fbSourceGraphic"
         flood-opacity="0.498039"
         flood-color="rgb(0,0,0)" />
      <feGaussianBlur
         id="feGaussianBlur1432"
         result="blur"
         in="fbSourceGraphic"
         stdDeviation="2.500000" />
      <feOffset
         id="feOffset1432"
         result="offset"
         in="blur"
         dx="4.612622"
         dy="9.500000" />
      <feComposite
         id="feComposite1433"
         result="comp1"
         operator="out"
         in="flood"
         in2="offset" />
      <feComposite
         id="feComposite1434"
         result="comp2"
         operator="atop"
         in="comp1"
         in2="fbSourceGraphic" />
    </filter>
    <filter
       style="color-interpolation-filters:sRGB"
       inkscape:label="Drop Shadow"
       id="filter1422"
       x="-0.1676394"
       y="-0.045707148"
       width="1.464155"
       height="1.1637839">
      <feFlood
         result="flood"
         in="SourceGraphic"
         flood-opacity="0.498039"
         flood-color="rgb(0,0,0)"
         id="feFlood1420" />
      <feGaussianBlur
         result="blur"
         in="SourceGraphic"
         stdDeviation="2.500000"
         id="feGaussianBlur1420" />
      <feOffset
         result="offset"
         in="blur"
         dx="4.612622"
         dy="9.500000"
         id="feOffset1420" />
      <feComposite
         result="comp1"
         operator="out"
         in="flood"
         in2="offset"
         id="feComposite1421" />
      <feComposite
         result="fbSourceGraphic"
         operator="atop"
         in="comp1"
         in2="SourceGraphic"
         id="feComposite1422" />
      <feColorMatrix
         result="fbSourceGraphicAlpha"
         in="fbSourceGraphic"
         values="0 0 0 -1 0 0 0 0 -1 0 0 0 0 -1 0 0 0 0 1 0"
         id="feColorMatrix1434" />
      <feFlood
         id="feFlood1434"
         result="flood"
         in="fbSourceGraphic"
         flood-opacity="0.498039"
         flood-color="rgb(0,0,0)" />
      <feGaussianBlur
         id="feGaussianBlur1434"
         result="blur"
         in="fbSourceGraphic"
         stdDeviation="2.500000" />
      <feOffset
         id="feOffset1434"
         result="offset"
         in="blur"
         dx="4.612622"
         dy="9.500000" />
      <feComposite
         id="feComposite1435"
         result="comp1"
         operator="out"
         in="flood"
         in2="offset" />
      <feComposite
         id="feComposite1436"
         result="comp2"
         operator="atop"
         in="comp1"
         in2="fbSourceGraphic" />
    </filter>
    <filter
       style="color-interpolation-filters:sRGB"
       inkscape:label="Drop Shadow"
       id="filter1424"
       x="-0.73489959"
       y="-0.078502889"
       width="2.7172236"
       height="1.281302">
      <feFlood
         result="flood"
         in="SourceGraphic"
         flood-opacity="0.498039"
         flood-color="rgb(0,0,0)"
         id="feFlood1422" />
      <feGaussianBlur
         result="blur"
         in="SourceGraphic"
         stdDeviation="8.917 2.5"
         id="feGaussianBlur1422" />
      <feOffset
         result="offset"
         in="blur"
         dx="4.612622"
         dy="9.500000"
         id="feOffset1422" />
      <feComposite
         result="comp1"
         operator="out"
         in="flood"
         in2="offset"
         id="feComposite1423" />
      <feComposite
         result="fbSourceGraphic"
         operator="atop"
         in="comp1"
         in2="SourceGraphic"
         id="feComposite1424" />
      <feColorMatrix
         result="fbSourceGraphicAlpha"
         in="fbSourceGraphic"
         values="0 0 0 -1 0 0 0 0 -1 0 0 0 0 -1 0 0 0 0 1 0"
         id="feColorMatrix1436" />
      <feFlood
         id="feFlood1436"
         result="flood"
         in="fbSourceGraphic"
         flood-opacity="0.498039"
         flood-color="rgb(0,0,0)" />
      <feGaussianBlur
         id="feGaussianBlur1436"
         result="blur"
         in="fbSourceGraphic"
         stdDeviation="2.500000" />
      <feOffset
         id="feOffset1436"
         result="offset"
         in="blur"
         dx="4.612622"
         dy="9.500000" />
      <feComposite
         id="feComposite1437"
         result="comp1"
         operator="out"
         in="flood"
         in2="offset" />
      <feComposite
         id="feComposite1438"
         result="comp2"
         operator="atop"
         in="comp1"
         in2="fbSourceGraphic" />
    </filter>
    <filter
       style="color-interpolation-filters:sRGB"
       inkscape:label="Drop Shadow"
       id="filter1471"
       x="-0.15536058"
       y="-0.08548726"
       width="1.3509092"
       height="1.289758">
      <feFlood
         result="flood"
         in="SourceGraphic"
         flood-opacity="0.498039"
         flood-color="rgb(0,0,0)"
         id="feFlood1470" />
      <feGaussianBlur
         result="blur"
         in="SourceGraphic"
         stdDeviation="1.800000"
         id="feGaussianBlur1470" />
      <feOffset
         result="offset"
         in="blur"
         dx="-0.674318"
         dy="4.533437"
         id="feOffset1470" />
      <feComposite
         result="comp1"
         operator="out"
         in="flood"
         in2="offset"
         id="feComposite1470" />
      <feComposite
         result="fbSourceGraphic"
         operator="atop"
         in="comp1"
         in2="SourceGraphic"
         id="feComposite1471" />
      <feColorMatrix
         result="fbSourceGraphicAlpha"
         in="fbSourceGraphic"
         values="0 0 0 -1 0 0 0 0 -1 0 0 0 0 -1 0 0 0 0 1 0"
         id="feColorMatrix1475" />
      <feFlood
         id="feFlood1475"
         result="flood"
         in="fbSourceGraphic"
         flood-opacity="0.498039"
         flood-color="rgb(0,0,0)" />
      <feGaussianBlur
         id="feGaussianBlur1475"
         result="blur"
         in="fbSourceGraphic"
         stdDeviation="1.800000" />
      <feOffset
         id="feOffset1475"
         result="offset"
         in="blur"
         dx="-0.674318"
         dy="4.533437" />
      <feComposite
         id="feComposite1476"
         result="comp1"
         operator="out"
         in="flood"
         in2="offset" />
      <feComposite
         id="feComposite1477"
         result="fbSourceGraphic"
         operator="atop"
         in="comp1"
         in2="fbSourceGraphic" />
      <feColorMatrix
         result="fbSourceGraphicAlpha"
         in="fbSourceGraphic"
         values="0 0 0 -1 0 0 0 0 -1 0 0 0 0 -1 0 0 0 0 1 0"
         id="feColorMatrix1512" />
      <feFlood
         id="feFlood1512"
         result="flood"
         in="fbSourceGraphic"
         flood-opacity="0.498039"
         flood-color="rgb(0,0,0)" />
      <feGaussianBlur
         id="feGaussianBlur1512"
         result="blur"
         in="fbSourceGraphic"
         stdDeviation="2.500000" />
      <feOffset
         id="feOffset1512"
         result="offset"
         in="blur"
         dx="5.484508"
         dy="11.275220" />
      <feComposite
         id="feComposite1512"
         result="comp1"
         operator="out"
         in="flood"
         in2="offset" />
      <feComposite
         id="feComposite1513"
         result="comp2"
         operator="atop"
         in="comp1"
         in2="fbSourceGraphic" />
    </filter>
    <filter
       style="color-interpolation-filters:sRGB"
       inkscape:label="Drop Shadow"
       id="filter1473"
       x="-0.24001482"
       y="-0.13793984"
       width="1.5421157"
       height="1.4675453">
      <feFlood
         result="flood"
         in="SourceGraphic"
         flood-opacity="0.498039"
         flood-color="rgb(0,0,0)"
         id="feFlood1471" />
      <feGaussianBlur
         result="blur"
         in="SourceGraphic"
         stdDeviation="1.800000"
         id="feGaussianBlur1471" />
      <feOffset
         result="offset"
         in="blur"
         dx="-0.674318"
         dy="4.533437"
         id="feOffset1471" />
      <feComposite
         result="comp1"
         operator="out"
         in="flood"
         in2="offset"
         id="feComposite1472" />
      <feComposite
         result="fbSourceGraphic"
         operator="atop"
         in="comp1"
         in2="SourceGraphic"
         id="feComposite1473" />
      <feColorMatrix
         result="fbSourceGraphicAlpha"
         in="fbSourceGraphic"
         values="0 0 0 -1 0 0 0 0 -1 0 0 0 0 -1 0 0 0 0 1 0"
         id="feColorMatrix1477" />
      <feFlood
         id="feFlood1477"
         result="flood"
         in="fbSourceGraphic"
         flood-opacity="0.498039"
         flood-color="rgb(0,0,0)" />
      <feGaussianBlur
         id="feGaussianBlur1477"
         result="blur"
         in="fbSourceGraphic"
         stdDeviation="1.800000" />
      <feOffset
         id="feOffset1477"
         result="offset"
         in="blur"
         dx="-0.674318"
         dy="4.533437" />
      <feComposite
         id="feComposite1478"
         result="comp1"
         operator="out"
         in="flood"
         in2="offset" />
      <feComposite
         id="feComposite1479"
         result="fbSourceGraphic"
         operator="atop"
         in="comp1"
         in2="fbSourceGraphic" />
      <feColorMatrix
         result="fbSourceGraphicAlpha"
         in="fbSourceGraphic"
         values="0 0 0 -1 0 0 0 0 -1 0 0 0 0 -1 0 0 0 0 1 0"
         id="feColorMatrix1513" />
      <feFlood
         id="feFlood1513"
         result="flood"
         in="fbSourceGraphic"
         flood-opacity="0.498039"
         flood-color="rgb(0,0,0)" />
      <feGaussianBlur
         id="feGaussianBlur1513"
         result="blur"
         in="fbSourceGraphic"
         stdDeviation="2.500000" />
      <feOffset
         id="feOffset1513"
         result="offset"
         in="blur"
         dx="5.484508"
         dy="11.275220" />
      <feComposite
         id="feComposite1514"
         result="comp1"
         operator="out"
         in="flood"
         in2="offset" />
      <feComposite
         id="feComposite1515"
         result="comp2"
         operator="atop"
         in="comp1"
         in2="fbSourceGraphic" />
    </filter>
    <filter
       style="color-interpolation-filters:sRGB"
       inkscape:label="Drop Shadow"
       id="filter1475"
       x="-0.3987029"
       y="-0.18800036"
       width="1.9005406"
       height="1.6372248">
      <feFlood
         result="flood"
         in="SourceGraphic"
         flood-opacity="0.498039"
         flood-color="rgb(0,0,0)"
         id="feFlood1473" />
      <feGaussianBlur
         result="blur"
         in="SourceGraphic"
         stdDeviation="1.800000"
         id="feGaussianBlur1473" />
      <feOffset
         result="offset"
         in="blur"
         dx="-0.674318"
         dy="4.533437"
         id="feOffset1473" />
      <feComposite
         result="comp1"
         operator="out"
         in="flood"
         in2="offset"
         id="feComposite1474" />
      <feComposite
         result="fbSourceGraphic"
         operator="atop"
         in="comp1"
         in2="SourceGraphic"
         id="feComposite1475" />
      <feColorMatrix
         result="fbSourceGraphicAlpha"
         in="fbSourceGraphic"
         values="0 0 0 -1 0 0 0 0 -1 0 0 0 0 -1 0 0 0 0 1 0"
         id="feColorMatrix1479" />
      <feFlood
         id="feFlood1479"
         result="flood"
         in="fbSourceGraphic"
         flood-opacity="0.498039"
         flood-color="rgb(0,0,0)" />
      <feGaussianBlur
         id="feGaussianBlur1479"
         result="blur"
         in="fbSourceGraphic"
         stdDeviation="1.800000" />
      <feOffset
         id="feOffset1479"
         result="offset"
         in="blur"
         dx="-0.674318"
         dy="4.533437" />
      <feComposite
         id="feComposite1480"
         result="comp1"
         operator="out"
         in="flood"
         in2="offset" />
      <feComposite
         id="feComposite1481"
         result="fbSourceGraphic"
         operator="atop"
         in="comp1"
         in2="fbSourceGraphic" />
      <feColorMatrix
         result="fbSourceGraphicAlpha"
         in="fbSourceGraphic"
         values="0 0 0 -1 0 0 0 0 -1 0 0 0 0 -1 0 0 0 0 1 0"
         id="feColorMatrix1515" />
      <feFlood
         id="feFlood1515"
         result="flood"
         in="fbSourceGraphic"
         flood-opacity="0.498039"
         flood-color="rgb(0,0,0)" />
      <feGaussianBlur
         id="feGaussianBlur1515"
         result="blur"
         in="fbSourceGraphic"
         stdDeviation="2.500000" />
      <feOffset
         id="feOffset1515"
         result="offset"
         in="blur"
         dx="5.484508"
         dy="11.275220" />
      <feComposite
         id="feComposite1516"
         result="comp1"
         operator="out"
         in="flood"
         in2="offset" />
      <feComposite
         id="feComposite1517"
         result="comp2"
         operator="atop"
         in="comp1"
         in2="fbSourceGraphic" />
    </filter>
    <rect
       x="220.13019"
       y="-390.81146"
       width="1438.2697"
       height="991.12286"
       id="rect160" />
  </defs>
  <g
     inkscape:label="Layer 1"
     inkscape:groupmode="layer"
     id="layer1">
    <path
       style="fill:#005500;stroke-width:0.315505;paint-order:stroke fill markers;filter:url(#filter1412)"
       d="m 109.89567,508 c 8.52892,-58.16491 -5.15937,-118.30289 4.41119,-176.3055 9.65547,-58.51721 10.32689,-128.60739 52.92762,-169.8708 40.49725,-39.22596 107.08907,-37.9232 163.00529,-45.13985 45.10715,-5.82162 100.36298,-25.870919 136.4315,1.83484 37.33325,28.67725 39.40093,88.88954 38.24425,135.9514 -0.82277,33.47592 -31.48302,61.76826 -31.92168,95.25141 -0.69909,53.36235 53.55701,100.13601 46.87956,153.08354 -4.02987,31.95409 -46.69105,50.47015 -50.34391,82.46953 -7.43334,65.11667 66.00643,121.17484 61.9891,186.59117 -2.24208,36.50904 -19.52154,75.06845 -47.07875,99.12125 -30.39363,26.52854 -76.98788,24.15154 -115.33935,36.66956 -46.30357,15.1136 -90.20476,52.26762 -138.55849,46.40601 -35.66173,-4.32304 -73.56851,-26.26939 -91.05181,-57.65062 C 117.12382,856.26595 155.14444,801.2205 138.0775,758.55114 129.2234,736.41485 100.57323,727.2535 89.285538,706.25353 78.700342,686.5605 73.283239,663.38981 73.624221,641.03482 74.325225,595.07655 103.22718,553.4773 109.89567,508 Z"
       id="path1"
       sodipodi:nodetypes="aaaaaaaaaaaaaaaaaa" />
    <path
       style="fill:#008000;stroke-width:0.241786;paint-order:stroke fill markers;filter:url(#filter1414)"
       d="m 196.99265,366.56014 c 7.54657,-31.36412 -14.28261,-64.98133 -9.06519,-96.9386 4.10452,-25.14066 14.67291,-50.37672 30.75689,-68.4465 15.17464,-17.04815 37.26303,-24.47027 57.46681,-32.58577 21.44795,-8.61527 44.07112,-19.67084 66.69388,-16.70226 16.02405,2.10269 29.6491,14.5318 43.54528,23.7434 10.23605,6.78536 24.36688,11.65152 29.13811,23.08842 14.7864,35.44384 -41.90267,89.597 -12.67835,114.51372 9.4268,8.03731 25.96078,-17.37043 35.82697,-9.87902 18.70261,14.20091 -0.21028,46.96943 0.20328,70.44883 0.28639,16.25913 -1.35979,32.76525 1.57738,48.75945 2.69986,14.70192 14.00826,27.26968 14.56905,42.41065 0.71779,19.37975 -10.4326,37.05217 -14.56905,55.83792 -6.56126,29.79805 -28.17709,55.39075 -16.22888,90.08547 2.26346,6.57256 17.96496,36.04585 26.61477,54.22953 5.93111,12.46841 17.90016,23.82446 17.33446,37.62009 -0.7724,18.83629 -30.2096,30.55876 -27.7942,49.2555 2.65174,20.52618 44.37006,23.87841 43.25436,44.54508 -2.45398,45.45626 -61.47088,74.2836 -105.1328,87.16502 -29.86409,8.8107 -61.6588,-12.61781 -92.75542,-11.03913 -31.19693,1.58378 -65.97247,38.50874 -91.45463,20.44173 C 169.27173,875.37175 190.48354,831.59532 183.5161,801.72204 172.41038,754.10567 141.66205,711.84239 134.47886,663.47858 126.85689,612.1605 134.79247,559.42815 141.6325,508 c 3.86328,-29.04686 7.68559,-58.81045 19.05311,-85.81831 8.58921,-20.40693 30.96595,-33.4236 36.30704,-55.62155 z"
       id="path2"
       sodipodi:nodetypes="aaaaaaaaaaaaasaaaaaaaaaaaa" />
    <path
       style="fill:#00aa00;stroke-width:0.264583;paint-order:stroke fill markers;filter:url(#filter1416)"
       d="m 258.99421,216.51891 c -12.72937,12.32622 -14.22121,33.07091 -15.96312,50.70435 -1.65455,16.74911 3.57651,33.47087 5.44624,50.19733 1.94669,17.41491 13.49208,36.37993 6.00965,52.2255 -6.14768,13.01896 -27.34471,12.15434 -36.27278,23.44933 -12.87246,16.2851 -13.9425,39.10549 -20.81884,58.69173 -6.57098,18.71647 -15.22748,36.84893 -19.53134,56.21284 -9.77452,43.9775 -14.25242,89.38631 -13.8973,134.43556 0.1874,23.77246 -3.29924,50.15083 8.45106,70.81711 10.73418,18.87914 45.89078,18.77735 51.64538,39.71843 5.15771,18.769 -27.84077,35.81742 -21.59716,54.25365 6.76129,19.96484 34.34427,25.58845 54.27459,32.45081 9.44997,3.25379 21.30483,-1.62359 29.75189,3.71832 8.13034,5.14162 6.46125,21.06843 15.50824,24.33809 19.28708,6.97054 43.10369,-5.32075 58.59401,-18.76062 31.36284,-27.21134 24.89434,-14.97518 31.36284,-27.21134 10.57723,-20.00843 -3.7962,-48.05375 7.88765,-67.43681 7.27719,-12.07257 29.65113,-10.85467 34.84745,-23.95821 21.85043,-55.10009 -34.87955,-114.57979 -37.66445,-173.7888 -1.23432,-26.24268 0.7838,-53.43167 9.39006,-78.25373 7.13368,-20.57487 34.62521,-33.99205 34.03943,-55.76064 -0.68777,-25.55895 -27.49712,-43.22829 -43.42949,-63.22561 -12.73493,-15.98409 -34.05498,-26.09585 -41.50411,-45.12688 -8.87109,-22.66386 3.65577,-48.98152 -0.1878,-73.01429 -2.61977,-16.38071 -0.77598,-39.49228 -15.39973,-47.32407 -24.69813,-13.22715 -60.81517,3.15819 -80.94237,22.64795 z"
       id="path3"
       sodipodi:nodetypes="aaaaaaaaaaaaaasaaaaaaaaaaa" />
    <path
       style="fill:#00d400;stroke-width:0.212594;paint-order:stroke fill markers;filter:url(#filter1418)"
       d="m 262.57951,317.87573 c 9.35874,-22.81381 31.82549,-44.42144 50.28248,-37.6702 34.24457,12.52605 52.33796,75.92862 55.43965,124.29578 1.58843,24.76951 -19.73658,44.59505 -19.85513,69.45942 -0.11947,25.0565 22.53651,45.67684 19.33941,70.34817 -3.16339,24.41127 -35.32699,31.5395 -35.45558,56.33178 -0.23153,44.63548 67.93177,58.57678 62.77492,102.65086 -2.72908,23.32464 -33.8893,18.19634 -43.95124,37.38057 -8.43852,16.08899 0.48909,44.11346 -9.92756,57.85636 -14.06765,18.55977 -38.58986,22.09774 -57.50252,15.41776 -14.39426,-5.08408 -26.45047,-21.85476 -34.16629,-39.25967 -16.45242,-37.11245 -7.91804,-86.14143 -20.62871,-127.1568 -6.99778,-22.58077 -29.03959,-40.54886 -30.22072,-64.15955 -1.62405,-32.4645 23.03478,-60.84161 32.54145,-91.92544 5.55842,-18.17427 9.26365,-36.92957 14.29254,-55.19534 6.58155,-23.90524 17.24995,-46.07869 20.77626,-71.16673 v 0 c -0.50293,-8.63022 -2.35903,-17.03219 -3.00799,-25.6441 -0.53934,-7.15734 -3.30421,-15.29007 -0.73097,-21.56287 z"
       id="path4"
       sodipodi:nodetypes="aaaaaaaaaaaaaaaaaaa" />
    <path
       style="fill:#00ff00;stroke-width:0.264583;paint-order:stroke fill markers;filter:url(#filter1420)"
       d="m 308.38598,369.13905 c -27.32635,-0.66643 -25.40415,48.42885 -36.99688,73.18329 -10.30737,22.00976 -21.82818,43.68418 -28.9214,66.92977 -4.48269,14.69047 -8.0995,29.94074 -8.45107,45.2959 -0.26954,11.77195 3.84795,23.25654 4.88283,34.98601 1.76889,20.04887 0.13,40.32378 2.25362,60.33819 1.6779,15.8136 1.75795,32.47513 8.26326,46.98604 9.66442,21.55769 21.23473,49.09775 43.94552,55.6058 11.88902,3.40695 27.24636,-2.81679 34.93105,-12.50707 11.62754,-14.66214 7.50662,-37.0954 6.38525,-55.77481 -1.68321,-28.03845 -20.2129,-53.89141 -19.53134,-81.97207 0.41421,-17.06576 9.18775,-32.88743 14.2729,-49.18323 4.70678,-15.08329 13.43913,-29.23696 15.0241,-44.95787 2.69295,-26.71064 -2.59391,-54.07351 -9.76567,-79.94388 -5.75076,-20.74446 -4.77175,-58.46123 -26.29217,-58.98607 z"
       id="path5"
       sodipodi:nodetypes="aaaaaaaaaaaaaaa" />
    <path
       style="fill:#2aff2a;stroke-width:0.264583;paint-order:stroke fill markers;filter:url(#filter1422)"
       d="m 311.39079,441.64628 c 0,0 -25.9166,59.83115 -37.37247,73.35231 -11.45589,13.52116 -17.46553,32.95785 -19.90694,55.43677 -2.44142,22.47895 -5.07064,36.00011 0.3756,48.84521 5.44624,12.84512 -3.00482,19.94373 7.69985,33.97194 10.70468,14.02821 5.63405,17.91555 15.96312,31.94376 10.32906,14.02818 9.20226,30.92965 16.52651,6.92959 7.32427,-24.00009 15.58753,-74.02838 13.52171,-86.53547 -2.06581,-12.50706 -4.31943,-26.8733 0.3756,-48.50717 4.69504,-21.63387 13.7095,-34.30995 14.2729,-55.94382 0.5634,-21.63387 -11.45588,-59.49312 -11.45588,-59.49312 z"
       id="path942" />
    <path
       style="fill:#55ff55;stroke-width:0.264583;paint-order:stroke fill markers;filter:url(#filter1424)"
       d="m 310.45177,491.84361 c -16.25565,44.58327 -45.46672,79.11531 -35.11884,144.33843 2.31161,13.12232 25.40897,10.95814 24.60196,-5.57748 -1.59197,-32.61957 1.98054,-70.02207 -5.07063,-75.71852 z"
       id="path943"
       sodipodi:nodetypes="ccscc" />
    <path
       style="fill:#005500;fill-opacity:1;stroke-width:0.314197;paint-order:stroke fill markers;filter:url(#filter1471)"
       d="m 48.035325,100.83061 c 41.035246,-22.47929 20.96366,-67.839288 58.653645,-48.169908 37.68997,19.669375 48.39482,58.606728 33.22963,76.068318 -15.16521,17.46159 -11.15089,79.88177 -47.056728,89.11434 -35.905842,9.23257 -47.948794,-34.9232 -49.063882,-64.42726 -1.115089,-29.50407 4.237335,-52.58549 4.237335,-52.58549 z"
       id="path1438" />
    <path
       style="fill:#00aa00;fill-opacity:1;stroke-width:0.264583;paint-order:stroke fill markers;filter:url(#filter1473)"
       d="m 64.432005,121.53273 c 21.033753,-17.57751 8.075459,-32.450796 27.418998,-37.85926 19.343537,-5.408467 35.494457,-4.901422 34.555447,14.704266 -0.93901,19.605684 -9.39006,39.549404 -13.14609,52.394514 -3.75603,12.8451 2.06581,41.07053 -18.967939,35.32404 -21.033753,-5.7465 -29.297013,6.08452 -30.236019,-18.76062 -0.939006,-24.84514 -4.882835,-24.84514 -4.13163,-31.60572 0.751205,-6.76058 4.507233,-14.19722 4.507233,-14.19722 z"
       id="path1439" />
    <path
       style="fill:#00ff00;fill-opacity:1;stroke-width:0.264583;paint-order:stroke fill markers;filter:url(#filter1475)"
       d="m 76.451292,143.84265 c 3.639106,-15.26568 1.395043,-33.30964 10.892478,-45.802939 4.586726,-6.033562 13.31331,-14.723056 19.90694,-10.985951 9.26926,5.253581 1.64031,21.30159 1.12681,31.94375 -0.41358,8.5714 -0.85393,17.32018 -3.38042,25.5212 -1.76382,5.72539 -2.91094,13.02012 -8.075461,16.05638 -6.967605,4.09631 -19.352965,5.43395 -24.226374,-1.01409 -3.248101,-4.29758 2.50686,-10.47822 3.756027,-15.71835 z"
       id="path1440"
       sodipodi:nodetypes="aaaaaaaa" />
    <text
       xml:space="preserve"
       id="text160"
       style="font-style:normal;font-variant:normal;font-weight:normal;font-stretch:normal;font-size:109.932px;line-height:1.6;font-family:'Blackadder ITC';-inkscape-font-specification:'Blackadder ITC, Normal';font-variant-ligatures:normal;font-variant-caps:normal;font-variant-numeric:normal;font-variant-east-asian:normal;text-align:center;white-space:pre;shape-inside:url(#rect160);display:inline;opacity:0.5;fill:#ffffff"
       transform="matrix(0.17140243,0,0,0.17140243,-82.677782,930.26013)"><tspan
         x="785.93518"
         y="-280.9999"
         id="tspan2">-Harish</tspan></text>
  </g>
</svg>
