<?xml version="1.0" encoding="UTF-8" standalone="no"?>
<!-- Created with Inkscape (http://www.inkscape.org/) -->

<svg
   width="1080"
   height="1920"
   viewBox="0 0 285.75 508"
   version="1.1"
   id="svg1"
   inkscape:export-filename="bitmap4.jpg"
   inkscape:export-xdpi="200"
   inkscape:export-ydpi="200"
   inkscape:version="1.3.2 (091e20e, 2023-11-25, custom)"
   sodipodi:docname="king.svg"
   xmlns:inkscape="http://www.inkscape.org/namespaces/inkscape"
   xmlns:sodipodi="http://sodipodi.sourceforge.net/DTD/sodipodi-0.dtd"
   xmlns="http://www.w3.org/2000/svg"
   xmlns:svg="http://www.w3.org/2000/svg">
  <sodipodi:namedview
     id="namedview1"
     pagecolor="#ffffff"
     bordercolor="#000000"
     borderopacity="0.25"
     inkscape:showpageshadow="2"
     inkscape:pageopacity="0.0"
     inkscape:pagecheckerboard="0"
     inkscape:deskcolor="#d1d1d1"
     inkscape:document-units="mm"
     showguides="false"
     inkscape:zoom="0.35589577"
     inkscape:cx="656.09097"
     inkscape:cy="875.25626"
     inkscape:window-width="1450"
     inkscape:window-height="1033"
     inkscape:window-x="87"
     inkscape:window-y="88"
     inkscape:window-maximized="0"
     inkscape:current-layer="svg1" />
  <defs
     id="defs1">
    <rect
       x="220.13019"
       y="-390.81146"
       width="1438.2697"
       height="991.12286"
       id="rect160" />
  </defs>
  <rect
     style="fill:#e44800;fill-opacity:1;fill-rule:evenodd;stroke-width:0.403645"
     id="rect21"
     width="285.75"
     height="508"
     x="0"
     y="0"
     ry="0" />
  <text
     xml:space="preserve"
     id="text160"
     style="font-style:normal;font-variant:normal;font-weight:normal;font-stretch:normal;font-size:109.932px;line-height:1.6;font-family:'Blackadder ITC';-inkscape-font-specification:'Blackadder ITC, Normal';font-variant-ligatures:normal;font-variant-caps:normal;font-variant-numeric:normal;font-variant-east-asian:normal;text-align:center;white-space:pre;shape-inside:url(#rect160);display:inline;opacity:0.5;fill:#ffffff"
     transform="matrix(0.17140243,0,0,0.17140243,-97.65939,377.68442)"><tspan
       x="785.93518"
       y="-280.9999"
       id="tspan2">-Harish</tspan></text>
  <g
     inkscape:label="Layer 1"
     inkscape:groupmode="layer"
     id="layer1"
     transform="matrix(1.8316738,0,0,1.8316738,-49.442866,-17.857037)">
    <path
       id="rect1"
       style="display:inline;fill:#ffe680;fill-rule:evenodd;stroke-width:0.174589"
       d="m 90.377376,22.246468 c -3.075208,0 -5.420651,2.585229 -5.453189,5.703957 l -0.09789,9.382977 c -0.0061,0.584346 0.08697,1.147292 0.248563,1.676384 0.16159,0.529092 0.397798,1.024364 0.696082,1.473295 h -4.39198 c -2.649458,0 -4.788517,1.811063 -4.782654,4.060734 l 0.02909,11.163098 c 0.0054,2.056087 1.764512,3.953148 4.103471,4.221493 -0.242919,0.211577 -0.399459,0.519764 -0.399459,0.86868 0,0.08349 0.01025,0.164498 0.02687,0.24288 -3.727468,0.466561 -7.065801,1.035948 -9.791133,1.700154 -4.069267,0.991744 -4.834106,4.805982 -3.990454,9.844361 0.550964,5.29049 3.292933,11.877346 6.256465,18.180802 3.655804,8.51241 7.308766,16.414407 6.525183,19.401397 H 74.20317 74.017134 c -2.337017,0 -4.218863,1.88132 -4.218863,4.21835 0,2.33702 1.881846,4.21834 4.218863,4.21834 h 0.186036 0.553971 c -0.212033,0.23576 -0.344165,0.54483 -0.344165,0.88832 0,0.1299 0.03014,0.25091 0.06563,0.36897 -2.760162,0.24554 -4.88549,1.76655 -4.88549,3.64164 v 3.76411 c 0,0.0623 0.008,0.12329 0.01447,0.18449 -0.177094,0.0222 -0.354347,0.0439 -0.530717,0.0687 -3.569195,0.50262 -6.492627,1.84362 -6.492627,4.13411 0,2.2905 2.925559,3.62231 6.492627,4.13463 0.710423,0.10203 1.377421,0.17571 2.079459,0.27234 4.87345,0.92774 9.895906,1.63419 15.129826,2.09703 3.654183,25.61553 2.714183,50.29064 -1.900142,74.30192 H 80.549553 80.10772 c 0,16.39031 -24.705534,32.61741 -19.009693,49.17064 -6.04e-4,7.4e-4 -0.0015,0.002 -0.0015,0.002 -3.685478,4.52893 0,13.12116 0,13.12116 h 0.186552 87.433941 0.18655 c 0,0 3.68549,-8.59222 0,-13.12116 -4.5e-4,-5.5e-4 -9.4e-4,-9.4e-4 -0.002,-0.002 5.69673,-16.55289 -19.00969,-32.78017 -19.00969,-49.17064 h -0.4408 -3.83749 c -4.61433,-24.01129 -5.55381,-48.68638 -1.89963,-74.30192 5.23508,-0.46298 10.2585,-1.16943 15.13293,-2.09755 0.701,-0.0965 1.36702,-0.16994 2.07636,-0.27182 3.56708,-0.51232 6.49211,-1.84412 6.49211,-4.13463 0,-2.29049 -2.92291,-3.63148 -6.49211,-4.13411 -0.1762,-0.0248 -0.35328,-0.0465 -0.5302,-0.0687 0.006,-0.0612 0.0145,-0.12217 0.0145,-0.18449 v -3.76411 c 0,-1.87522 -2.12558,-3.39624 -4.88601,-3.64164 0.0355,-0.11806 0.0656,-0.23909 0.0656,-0.36897 0,-0.34353 -0.1326,-0.65256 -0.34468,-0.88832 h 0.55449 0.18603 c 2.33703,0 4.21835,-1.88132 4.21835,-4.21834 0,-2.33703 -1.88132,-4.21835 -4.21835,-4.21835 h -0.18603 -5.15318 c -0.78344,-2.98644 2.86798,-10.886127 6.52312,-19.396746 2.96429,-6.304732 5.70744,-12.893756 6.25853,-18.185453 0.84366,-5.038379 0.0788,-8.852617 -3.99045,-9.844361 -2.72534,-0.664207 -6.06367,-1.233593 -9.79113,-1.700154 0.0162,-0.07639 0.0254,-0.155435 0.0258,-0.236678 2e-5,-0.0022 0.001,-0.004 0.001,-0.0062 0,-0.348825 -0.15615,-0.657106 -0.39895,-0.86868 2.33887,-0.268408 4.13205,-1.957546 4.13205,-4.019393 v -11.3652 c 0,-0.28121 -0.0337,-0.5558 -0.0971,-0.820622 -0.19047,-0.794467 -0.65243,-1.503142 -1.3007,-2.053621 -0.86423,-0.733876 -2.05976,-1.186371 -3.38428,-1.186491 h -5.2e-4 -4.39146 c 0.59656,-0.897861 0.94464,-1.980923 0.94464,-3.149679 v -9.456787 c 0,-1.559593 -0.61962,-2.967074 -1.62316,-3.98477 -1.00325,-1.017557 -2.39053,-1.645234 -3.92792,-1.645377 h -5.2e-4 z"
       sodipodi:nodetypes="sssscssscscsccccsssccscssccsscccccccccccsccccccssscsscsccsssccccscsscsscssccsscscs" />
    <path
       style="fill:#2b2200;stroke-width:0.264583;paint-order:stroke fill markers"
       d="m 61.098027,261.63027 c -2.610959,1.8606 -1.791943,10.22704 0.185052,13.12317 l 2.23664,-5.25746 c 0,0 -0.833369,-2.32923 -0.633828,-2.88909 0.199538,-0.55986 -1.787864,-4.97662 -1.787864,-4.97662 z"
       id="path21"
       sodipodi:nodetypes="cccsc" />
    <path
       style="fill:#000000;stroke-width:0.264583;paint-order:stroke fill markers"
       d="m 148.90357,261.63227 c 3.25562,4.2588 0.75441,11.98637 0,13.12116 -0.67189,-1.85878 -1.32367,-4.07084 -0.26189,-6.89805 -1.06768,-2.40412 -0.52229,-4.03756 0.26189,-6.22311 z"
       id="path22"
       sodipodi:nodetypes="cccc" />
    <path
       style="fill:#000000;stroke-width:0.264583;paint-order:stroke fill markers"
       d="m 60.583774,253.07852 c -0.602039,2.92271 -0.405128,5.77091 0.514253,8.55175 h 87.803543 c 0.36118,-1.06507 0.68304,-2.26342 0.81997,-4.08854 l -1.91422,2.38874 -2.19493,1.17254 -79.094641,0.52726 c -1.295726,-1.45674 -4.143091,-3.15551 -3.539834,-7.52024 l 1.879889,-11.42961 c -0.992576,1.36934 -3.659222,6.75834 -4.27403,10.3981 z"
       id="path23"
       sodipodi:nodetypes="cccccccccc" />
    <path
       style="fill:#2b2200;stroke-width:0.264583;paint-order:stroke fill markers"
       d="m 80.213358,212.45963 c -0.33564,2.44717 1.021114,5.64677 1.916306,7.86161 -2.591476,1.04209 -4.990428,3.10431 -6.167795,5.08405 2.272638,-3.98609 3.890777,-8.36311 4.251489,-12.94566 z"
       id="path24"
       sodipodi:nodetypes="cccc" />
    <path
       style="fill:#000000;stroke-width:0.264583;paint-order:stroke fill markers"
       d="m 84.386011,212.45963 h 41.227579 l -0.3585,-1.90716 z"
       id="path25"
       sodipodi:nodetypes="cccc" />
    <path
       style="opacity:1;fill:#2b2200;stroke-width:0.264583;paint-order:stroke fill markers"
       d="m 86.286154,138.15771 h 37.427806 l -0.33305,2.42831 c 0,0 -7.11015,-0.14031 -10.56333,0.57411 -2.45872,0.50868 -4.65358,1.91335 -7.06603,2.60916 -2.70477,0.78012 -5.6339,0.73756 -8.263261,1.74297 -1.370626,0.5241 -2.819529,1.1188 -3.814715,2.19718 -0.663234,0.71868 -1.000601,1.70739 -1.255921,2.65142 -0.488105,1.80473 -0.143392,3.74924 -0.48124,5.58804 -0.338084,1.84008 -0.666541,3.74219 -1.537624,5.39791 -0.474665,0.90222 -1.949431,2.3566 -1.949431,2.3566 -0.379708,-10.28112 -1.103683,-18.78131 -2.163204,-25.5457 z"
       id="path26"
       sodipodi:nodetypes="cccssssssscc" />
    <path
       style="fill:#000000;stroke-width:0.264583;paint-order:stroke fill markers"
       d="m 62.584242,131.65371 c 26.728885,1.42008 53.347358,2.94143 84.831118,0 0.024,5.04126 -14.97778,5.47771 -23.7014,6.504 H 86.286154 c -11.910754,-1.17822 -23.892939,-2.06049 -23.701912,-6.504 z"
       id="path27"
       sodipodi:nodetypes="ccccc" />
    <path
       style="fill:#000000;stroke-width:0.264583;paint-order:stroke fill markers"
       d="m 75.437719,118.60337 h 59.804741 l -60.763856,1.25729 c -0.162546,-0.29875 -0.469113,-1.53605 0.959115,-1.25729 z"
       id="path28"
       sodipodi:nodetypes="cccc" />
    <path
       style="fill:#000000;stroke-width:0.264583;paint-order:stroke fill markers"
       d="m 79.356341,110.16668 h 51.287429 v 0 l -0.0445,-1.8683 z"
       id="path29" />
    <path
       style="opacity:1;fill:#2b2200;stroke-width:0.264583;paint-order:stroke fill markers"
       d="m 66.574693,72.584481 c 24.568473,3.227184 37.200907,5.186229 76.850727,0 -0.73794,9.405674 -12.292,30.677549 -12.8039,36.648049 l -11.58221,0.86923 c 0,0 7.2034,-12.254346 7.2034,-17.339737 0,-6.221848 -13.34958,-12.477338 -18.4835,-12.98243 -6.54957,-0.644368 -31.180646,-6.179596 -31.180646,3.369727 0,9.549323 1.265558,19.61956 1.265558,19.61956 C 74.407058,93.457034 67.412609,81.100142 66.574693,72.584481 Z"
       id="path30"
       sodipodi:nodetypes="ccccssscc" />
    <path
       style="fill:#000000;stroke-width:0.264583;paint-order:stroke fill markers"
       d="m 80.35628,61.039964 h 49.28756 l -34.53828,0.706332 z"
       id="path31" />
    <path
       style="fill:#000000;stroke-width:0.264583;paint-order:stroke fill markers"
       d="m 80.728869,59.928405 48.542821,2e-6 -21.13741,-0.874752 z"
       id="path32" />
    <path
       style="fill:#000000;stroke-width:0.264583;paint-order:stroke fill markers"
       d="m 124.22968,40.483081 c 0.20945,-0.214599 6.90383,0.256819 7.02931,3.586825 0.089,2.361515 0.0254,12.608639 -0.91572,13.211355 -0.76633,0.490801 -1.0716,2.647146 -1.0716,2.647146 1.57764,-0.04361 2.86393,-0.847818 3.75538,-2.43315 0.79579,-0.759054 0.82909,-9.735517 0.27957,-13.772065 -0.80877,-2.967744 -4.29796,-3.959273 -9.07694,-3.240111 z"
       id="path33"
       sodipodi:nodetypes="csscccc" />
    <path
       style="fill:#000000;stroke-width:0.264583;paint-order:stroke fill markers"
       d="m 124.91837,26.17612 c 0.51026,1.507074 0.26142,4.644615 0.23771,6.227759 -0.028,1.86917 0.52937,6.659266 -0.9264,8.079202 l -6.96795,0.271147 c 0,0 1.08595,-1.736042 3.2161,-1.747827 4.31451,-0.02387 5.81707,-14.734034 -2.58093,-16.759933 0.45909,-0.168592 5.30946,-1.013836 7.02147,3.929652 z"
       id="path34"
       sodipodi:nodetypes="csccscc" />
    <path
       style="fill:#000000;stroke-width:0.264583;paint-order:stroke fill markers"
       d="m 129.64384,61.039966 c 3.92627,0.765818 9.59162,0.872273 11.95873,2.703146 2.37056,1.508628 2.74623,4.682567 1.82285,8.841369 0,0 -4.02811,0.672617 -3.90584,0.509331 3.57335,-4.772071 -1.1659,-9.252652 -9.87574,-12.053846 z"
       id="path35"
       sodipodi:nodetypes="cccsc" />
    <path
       style="fill:#000000;stroke-width:0.264583;paint-order:stroke fill markers"
       d="m 130.64377,110.16668 c 1.90236,0.0769 4.74896,-0.31888 6.74989,0.23985 1.67608,0.46802 2.67879,1.6415 2.80767,3.9785 -0.12482,6.24289 -9.27686,4.25038 -11.88851,4.20979 3.25162,0.009 9.41734,-0.0531 9.73068,-2.93204 0.25077,-2.71728 -0.33213,-4.81802 -7.39973,-5.4961 z"
       id="path36"
       sodipodi:nodetypes="cscccc" />
    <path
       style="fill:#000000;stroke-width:0.264583;paint-order:stroke fill markers"
       d="m 136.72989,136.75177 10.68547,-5.09806 c -0.0971,-1.61729 -1.23846,-2.4714 -2.66131,-3.1198 -1.32997,-0.6283 -2.42732,-0.76488 -4.361,-1.08301 -12.28429,-0.62729 9.03649,1.16138 0.838,4.72918 z"
       id="path37"
       sodipodi:nodetypes="cccccc" />
    <path
       style="fill:#000000;stroke-width:0.264583;paint-order:stroke fill markers"
       d="m 135.52154,119.86066 c 0.92641,0.10737 2.21678,0.30945 3.40822,1.17476 0.59901,0.43505 1.40783,1.13712 1.47779,2.46688 -0.005,1.3162 0.0343,3.71536 -0.0145,3.9486 -0.76713,-0.16783 -6.91079,-0.40365 -4.09483,-0.6474 4.68413,-0.40545 1.98054,-5.40158 -1.85665,-6.74376 -0.54601,-0.19099 0,0 1.07997,-0.19907 z"
       id="path38"
       sodipodi:nodetypes="csccsscc" />
    <path
       style="fill:#000000;stroke-width:0.264583;paint-order:stroke fill markers"
       d="m 135.24246,118.60337 c 0.41333,0.43723 0.39109,1.09702 0.27908,1.25729 -1.45145,1.2197 -2.85372,-1.88356 -0.27908,-1.25729 z"
       id="path39"
       sodipodi:nodetypes="ccc" />
    <path
       style="fill:#000000;stroke-width:0.264583;paint-order:stroke fill markers"
       d="m 123.71396,138.15771 c -2.53098,15.52203 -3.83612,45.88265 1.89963,74.30192 -14.80636,-11.36992 -5.60138,-56.50115 -5.83383,-71.86314 z"
       id="path40"
       sodipodi:nodetypes="cccc" />
    <path
       style="fill:#000000;stroke-width:0.264583;paint-order:stroke fill markers"
       d="m 129.89188,212.45963 c 0.62066,15.3477 22.58242,33.16443 19.82966,45.0821 -2.91517,3.76175 -2.9065,3.96402 -7.61757,4.09054 4.56833,-19.42982 -14.33903,-36.80447 -14.57163,-49.17264 z"
       id="path41"
       sodipodi:nodetypes="ccccc" />
    <path
       style="fill:#000000;stroke-width:0.264583;paint-order:stroke fill markers"
       d="M 129.67148,212.45963 H 104.9998 l 24.95304,1.42525 z"
       id="path42" />
    <path
       style="opacity:0.5;fill:#000000;stroke-width:0.264583;paint-order:stroke fill markers"
       d="m 66.574693,72.584481 c 33.967227,5.02005 50.452257,3.539687 76.850727,0 -0.93716,-0.623184 -1.0536,-1.758015 -3.22406,-1.612336 -6.97803,0.640553 -14.03899,0.208826 -20.91752,1.345571 -5.23378,0.864933 -19.806773,-0.697448 -32.743346,-0.15647 -6.006518,0.251179 -14.26003,-1.685733 -20.257772,-2.22862 0.04591,0.881063 0.136117,1.764615 0.291971,2.651855 z"
       id="path43"
       sodipodi:nodetypes="cccsscc" />
    <path
       style="opacity:1;fill:#ffffff;stroke-width:0.264583;paint-order:stroke fill markers"
       d="m 92.394428,23.931626 24.293302,-0.08963 c 0,0 1.31965,0.373472 1.90063,1.747853 0.58098,1.374381 0.83827,4.160488 -0.73037,2.166144 -1.56865,-1.994347 -24.542291,-2.666598 -24.542291,-2.666598 z"
       id="path44" />
    <path
       style="opacity:1;fill:#ffffff;stroke-width:0.264583;paint-order:stroke fill markers"
       d="m 117.26173,41.631668 c 0.36337,-0.01868 6.5694,-0.287573 7.27289,-0.175529 0.70348,0.11204 1.30462,-0.126982 1.59769,0.216614 0.29308,0.343593 -0.0436,1.139092 -0.46893,1.01958 -0.42528,-0.119513 -2.35712,0.347329 -3.89672,0.160594 -1.5396,-0.186738 -4.73499,-1.18391 -4.73499,-1.18391 z"
       id="path45" />
    <path
       style="opacity:1;fill:#ffffff;stroke-width:0.264583;paint-order:stroke fill markers"
       d="m 79.868762,41.754917 c 0.398386,-0.05229 5.071131,-0.351065 5.365771,-0.321189 0.29464,0.02988 1.771991,0.134451 1.771991,0.134451 0,0 1.000117,0.164327 1.240811,0.164327 0.240692,0 -4.668596,0.866458 -4.992285,0.829112 -0.323691,-0.03735 -3.386288,-0.806701 -3.386288,-0.806701 z"
       id="path46" />
    <path
       style="opacity:1;fill:#000000;stroke-width:0.264583;paint-order:stroke fill markers"
       d="m 84.924187,27.950425 c -0.135696,4.416425 -0.145496,5.20063 -0.09789,9.382977 -0.129614,0.591314 0.296795,2.234077 0.944642,3.149679 1.669865,-10e-7 6.903213,0.217889 6.309386,0.205409 -9.773648,-0.205409 -5.595989,-5.336797 -5.987884,-16.261132 -0.577129,0.348129 -1.198135,2.497364 -1.168254,3.523067 z"
       id="path47"
       sodipodi:nodetypes="cccscc" />
    <path
       style="opacity:1;fill:#ffffff;stroke-width:0.254854;paint-order:stroke fill markers"
       d="m 87.516958,24.427358 c 0,0 -1.095563,12.256081 -0.763574,13.281752 0.331988,1.025671 1.08753,1.453462 1.08753,1.453462 l -0.581247,-5.265081 z"
       id="path48" />
    <path
       style="opacity:1;fill:#000000;stroke-width:0.264583;paint-order:stroke fill markers"
       d="m 79.170508,40.938085 c -1.111711,0.412587 -2.486075,1.640487 -2.5742,3.60573 0.02382,3.902606 -0.09187,10.491188 0.07146,11.707817 0.478434,1.962859 1.086003,3.067509 3.200995,3.508712 -1.683942,-1.305582 -2.150837,-4.664849 -1.979874,-9.100458 0.05242,-3.28158 -0.941367,-6.677554 1.281619,-9.721801 z"
       id="path49"
       sodipodi:nodetypes="cccccc" />
    <path
       style="opacity:1;fill:#ffffff;stroke-width:0.310777;paint-order:stroke fill markers"
       d="m 90.55471,71.376573 c 9.82127,-3.126889 17.09714,-0.591941 25.32041,-0.164328 3.67459,-1.328172 5.65446,-1.976625 5.76207,-1.369253 L 89.708138,69.058699 c 3.047,0.352293 1.947371,1.334994 0.846572,2.317874 z"
       id="path50"
       sodipodi:nodetypes="ccccc" />
    <path
       style="opacity:1;fill:#ffffff;stroke-width:0.149434;paint-order:stroke fill markers"
       d="m 111.87732,60.834044 h -9.62169 L 99.708045,59.928407 H 111.7116 Z"
       id="path51" />
    <path
       style="opacity:1;fill:#000000;stroke-width:0.264583;paint-order:stroke fill markers"
       d="m 80.35628,61.039966 c -3.148013,0.37414 -6.395997,0.91468 -9.791133,1.700153 -4.024634,0.956077 -4.549474,4.862326 -4.282427,7.192507 0.928861,-1.686208 0.62319,-3.161704 2.796624,-5.060339 2.627025,-2.245911 7.844695,-2.779457 11.276936,-3.832321 z"
       id="path52"
       sodipodi:nodetypes="ccccc" />
    <path
       style="opacity:0.24;fill:#ffffff;stroke-width:0.264583;paint-order:stroke fill markers"
       d="m 67.984785,70.114215 c 0,0 1.494853,-4.62792 2.598716,-4.62792 1.103863,0 5.912112,-0.613463 5.995061,-2.068333 0.08295,-1.454867 2.802684,-0.612494 3.2902,-0.754414 0.487516,-0.14192 0,1.673159 0,1.673159 0,0 -3.890439,0.805286 -4.504619,1.149588 -0.61418,0.344302 -1.958737,0.848093 -2.572914,1.593371 -0.61418,0.745278 -2.799175,3.29873 -3.140911,3.251798 -0.341738,-0.04693 -1.665533,-0.217249 -1.665533,-0.217249 z"
       id="path53" />
    <path
       style="opacity:0.31;fill:#ffffff;stroke-width:0.264583;paint-order:stroke fill markers"
       d="m 130.40349,62.872693 c 1.05826,-1.202086 2.21693,0.836578 3.27469,1.277276 1.05777,0.440698 2.6549,1.598465 3.08884,2.061573 0.43394,0.463105 2.08559,1.628341 2.17689,2.151202 0.0913,0.522862 0.58098,1.569882 -0.008,1.569882 -0.58928,0 -2.92402,-1.374521 -3.64358,0 -0.71956,1.374518 -1.96704,0.766789 -2.51482,0.766789 -0.54778,0 -2.76122,0 -3.13337,0 -0.37215,0 -0.68991,-0.02244 -0.68991,-0.39461 0,-0.372179 1.80645,-0.776825 2.43723,-0.799233 0.63078,-0.02241 2.79701,-0.38841 3.42779,-0.522861 0.63078,-0.134451 2.96536,-0.537803 2.45672,-1.038257 -0.50865,-0.500451 -1.57695,-1.150294 -2.18283,-1.561116 -0.60588,-0.410821 -2.93811,-1.986875 -3.2535,-2.136264 -0.31539,-0.149389 -1.43585,-1.374381 -1.43585,-1.374381 z"
       id="path54" />
    <path
       style="opacity:0.18;fill:#ffffff;stroke-width:0.235763;paint-order:stroke fill markers"
       d="m 79.353402,110.16668 24.401938,-0.7788 c 0,0 7.77293,-2.01548 8.87958,-6.0632 1.10666,-4.047717 0.28397,-9.266157 -2.30846,-10.723334 -2.59244,-1.457179 -9.76989,-2.142177 -12.473285,-0.47327 -2.7034,1.668903 -2.877303,3.482877 -5.138041,2.345481 -2.260737,-1.137394 -2.755471,-0.830419 -4.758616,0 -2.003145,0.830418 -2.829876,3.29641 -3.22511,5.077407 -0.395233,1.780996 -6.072399,5.974656 -5.378006,10.615716 z"
       id="path55" />
    <path
       style="opacity:1;fill:#ffffff;stroke-width:0.177407;paint-order:stroke fill markers"
       d="m 91.225497,113.43397 c 4.487037,-0.0254 22.171223,-0.11152 22.737603,0.0355 0.56638,0.14699 5.63629,-0.13686 4.75097,-0.89211 -0.8853,-0.75525 -3.46425,-1.15568 -4.00863,-0.98841 -0.54438,0.16727 -5.1084,0.37002 -6.35663,0.39536 -1.24824,0.0253 -9.754896,-0.0811 -10.568726,-0.14699 -0.81382,-0.0659 -6.142175,0.3244 -6.142175,0.3244 0,0 -0.621368,1.1202 -0.412412,1.27226 z"
       id="path56" />
    <path
       style="opacity:1;fill:#000000;stroke-width:0.264583;paint-order:stroke fill markers"
       d="m 74.20317,110.16668 c -5.234146,2.42448 -4.693484,6.15517 -0.186036,8.43669 -2.139357,0 -4.026185,-1.47612 -4.218864,-4.21834 0.184231,-2.83375 2.028023,-4.28327 4.4049,-4.21835 z"
       id="path57"
       sodipodi:nodetypes="cccc" />
    <path
       style="fill:#ffffff;stroke-width:0.264583;paint-order:stroke fill markers"
       d="M 134.17212,119.85446 H 73.409813 l 60.763857,-1.25729 c 1.01479,0.026 0.52,0.63646 -0.002,1.25729 z"
       id="path58"
       sodipodi:nodetypes="cccc" />
    <path
       style="opacity:1;fill:#000000;stroke-width:0.264583;paint-order:stroke fill markers"
       d="m 69.607586,127.4509 c -0.01447,-1.53674 1.884815,-1.35118 11.206854,-1.24776 20.26972,0.22487 58.94464,-0.4677 59.57861,1.24776 l -33.10871,-0.0506 z"
       id="path59"
       sodipodi:nodetypes="csccc" />
    <path
       style="opacity:1;fill:#000000;stroke-width:0.264583;paint-order:stroke fill markers"
       d="m 72.957583,120.14004 c -2.585234,2.00709 -2.70849,3.93336 -2.370844,6.23824 l -0.979154,1.07262 -0.01447,-3.9486 c -0.09819,-0.32872 0.29208,-1.59935 1.320084,-2.36583 0.986782,-0.70312 1.242877,-0.70664 2.044383,-0.99643 z"
       id="path60"
       sodipodi:nodetypes="ccccccc" />
    <path
       style="opacity:1;fill:#ffffff;stroke-width:0.264583;paint-order:stroke fill markers"
       d="m 93.008013,129.19041 c 0,0 6.796058,-0.57042 7.429887,-0.57042 0.63383,0 5.57536,0.3169 6.51436,0.53873 0.93901,0.22183 4.50723,0.0528 5.21149,0.10563 0.70425,0.0528 1.51415,1.67105 1.51415,1.67105 0,0 -7.19514,-0.37175 -8.00504,-0.47738 -0.80989,-0.10564 -6.737369,-0.0845 -7.922863,-0.17958 -1.185498,-0.0951 -5.974432,1.3773 -6.490885,0.65696 -0.516454,-0.72034 1.748901,-1.74499 1.748901,-1.74499 z"
       id="path61" />
    <path
       style="opacity:1;fill:#000000;stroke-width:0.264583;paint-order:stroke fill markers"
       d="m 66.574693,128.08125 c -2.493001,0.66814 -3.84878,1.84744 -3.990451,3.57246 v 0 l 1.919654,0.10211 c -1.36531,-0.7826 0.375291,-2.28897 2.070797,-3.67457 z"
       id="path62"
       sodipodi:nodetypes="ccccc" />
    <path
       style="opacity:1;fill:#000000;stroke-width:0.264583;paint-order:stroke fill markers"
       d="m 88.264707,158.81412 c 1.07001,19.57858 -1.521907,38.16051 -3.878698,53.64551 l 5.152992,-31.56607 c 0.271249,-18.69189 0.350086,-20.73115 -1.274294,-22.07944 z"
       id="path63"
       sodipodi:nodetypes="cccc" />
    <path
       style="opacity:1;fill:#ffffff;stroke-width:0.216615;paint-order:stroke fill markers"
       d="m 99.571771,210.55247 c 0,0 2.247499,-2.18658 3.816299,-3.94937 1.5688,-1.76279 2.36451,-8.78408 2.36451,-10.03895 0,-1.25487 1.3739,-3.31644 1.31827,0.22409 -0.0556,3.54052 -0.30041,6.81214 0,7.97738 0.30041,1.16523 0.13114,0.49094 0.21139,3.55546 0.0803,3.06452 -7.710469,2.23139 -7.710469,2.23139 z"
       id="path64" />
    <path
       style="opacity:1;fill:#ffffff;stroke-width:0.217906;paint-order:stroke fill markers"
       d="m 105.49402,219.92356 c -1.73973,3.19693 -5.44994,9.79993 -3.56371,10.93529 1.88622,1.13536 2.43986,1.85242 3.55058,1.98687 1.11072,0.13445 4.35336,-0.40335 4.76995,-1.92712 0.41659,-1.52377 -0.28148,-3.19693 -1.51999,-3.86918 -1.23851,-0.67225 -3.23683,0.40165 -3.23683,-2.00266 z"
       id="path65"
       sodipodi:nodetypes="csssssc" />
    <path
       style="opacity:1;fill:#ffffff;stroke-width:0.217906;paint-order:stroke fill markers"
       d="m 101.42364,236.83441 c 1.74643,2.9868 -0.73568,8.06845 -2.184279,11.38346 -0.678775,1.55333 -2.871288,3.57894 -2.871288,3.57894 l -0.461428,4.05484 c 0,0 5.549785,-0.86807 8.331785,-1.18017 2.04174,-0.22905 4.14933,0.23942 6.13322,-0.50792 1.20644,-0.45447 3.18707,-0.55155 3.37305,-2.36675 0.17546,-1.71264 -1.86288,-2.16237 -2.59313,-3.51918 -0.80079,-1.48788 -1.6674,-3.09233 -1.9028,-4.95973 -0.2664,-2.11338 1.09167,-4.33424 0.64178,-6.37891 -0.10763,-0.48911 -0.39138,-0.99094 -0.73185,-1.10247 -1.13587,-0.37208 -2.1151,1.57901 -3.26829,1.80761 -1.69116,0.33525 -5.0668,1.8251 -5.09768,-0.69021 -0.004,-0.31255 0.49247,-0.35628 0.63091,-0.11951 z"
       id="path66"
       sodipodi:nodetypes="aaccaaaaaaaaaa" />
    <path
       style="opacity:1;fill:#ffffff;stroke-width:0.217906;paint-order:stroke fill markers"
       d="m 99.712247,265.15859 c 0,0 3.428723,-0.61248 3.428723,-1.10547 0,-0.49299 0.77821,-0.0896 2.33992,-0.0896 1.5617,0 3.72588,0.47804 4.30832,0.55273 0.58244,0.0747 0.58244,-1.22498 0.58244,0.23903 0,1.46402 -3.45353,1.86737 -3.85886,1.70304 -0.40533,-0.16433 -2.90425,-0.20915 -3.37182,0.0299 -0.46756,0.23903 -3.428723,-1.32956 -3.428723,-1.32956 z"
       id="path67" />
  </g>
</svg>
