<?xml version="1.0" encoding="UTF-8" standalone="no"?>
<!-- Created with Inkscape (http://www.inkscape.org/) -->

<svg
   version="1.1"
   id="svg1"
   width="1080"
   height="1920"
   viewBox="0 0 1080 1920"
   sodipodi:docname="spider-man-closeup-n0-1080x1920.svg"
   inkscape:version="1.3.2 (091e20e, 2023-11-25, custom)"
   inkscape:export-filename="spider-man-closeup-n0-1080x1920.png"
   inkscape:export-xdpi="150"
   inkscape:export-ydpi="150"
   xmlns:inkscape="http://www.inkscape.org/namespaces/inkscape"
   xmlns:sodipodi="http://sodipodi.sourceforge.net/DTD/sodipodi-0.dtd"
   xmlns:xlink="http://www.w3.org/1999/xlink"
   xmlns="http://www.w3.org/2000/svg"
   xmlns:svg="http://www.w3.org/2000/svg">
  <defs
     id="defs1">
    <rect
       x="716.09512"
       y="264.33041"
       width="489.01127"
       height="353.74561"
       id="rect161" />
    <rect
       x="220.13019"
       y="-390.81146"
       width="1438.2697"
       height="991.12288"
       id="rect160" />
    <rect
       x="-696.6639"
       y="67.96721"
       width="1548.5291"
       height="821.59529"
       id="rect159" />
    <linearGradient
       id="linearGradient158"
       inkscape:collect="always">
      <stop
         style="stop-color:#ffffff;stop-opacity:0.30000001;"
         offset="0"
         id="stop158" />
      <stop
         style="stop-color:#000000;stop-opacity:0.80000001;"
         offset="0.65898061"
         id="stop159" />
    </linearGradient>
    <linearGradient
       id="linearGradient100"
       inkscape:collect="always">
      <stop
         style="stop-color:#000000;stop-opacity:1;"
         offset="0"
         id="stop100" />
      <stop
         style="stop-color:#50007f;stop-opacity:1;"
         offset="0.81674755"
         id="stop101" />
    </linearGradient>
    <linearGradient
       id="linearGradient92"
       inkscape:collect="always">
      <stop
         style="stop-color:#000000;stop-opacity:1;"
         offset="0"
         id="stop92" />
      <stop
         style="stop-color:#3a485d;stop-opacity:1;"
         offset="0.33868963"
         id="stop94" />
      <stop
         style="stop-color:#ffffff;stop-opacity:1;"
         offset="1"
         id="stop93" />
    </linearGradient>
    <linearGradient
       id="linearGradient87"
       inkscape:collect="always">
      <stop
         style="stop-color:#99b8dd;stop-opacity:1;"
         offset="0"
         id="stop87" />
      <stop
         style="stop-color:#0f1d2e;stop-opacity:1;"
         offset="0.60032505"
         id="stop89" />
      <stop
         style="stop-color:#000000;stop-opacity:1;"
         offset="1"
         id="stop88" />
    </linearGradient>
    <linearGradient
       id="linearGradient85"
       inkscape:collect="always">
      <stop
         style="stop-color:#000000;stop-opacity:1;"
         offset="0"
         id="stop85" />
      <stop
         style="stop-color:#000000;stop-opacity:0;"
         offset="1"
         id="stop86" />
    </linearGradient>
    <linearGradient
       id="linearGradient46"
       inkscape:collect="always">
      <stop
         style="stop-color:#000000;stop-opacity:1;"
         offset="0.18810679"
         id="stop46" />
      <stop
         style="stop-color:#000000;stop-opacity:0.53961134;"
         offset="1"
         id="stop47" />
    </linearGradient>
    <linearGradient
       id="linearGradient35"
       inkscape:collect="always">
      <stop
         style="stop-color:#8f1717;stop-opacity:0;"
         offset="0"
         id="stop33" />
      <stop
         style="stop-color:#e48988;stop-opacity:1;"
         offset="0.96237862"
         id="stop35" />
    </linearGradient>
    <linearGradient
       id="linearGradient18"
       inkscape:collect="always">
      <stop
         style="stop-color:#c91d1d;stop-opacity:0;"
         offset="0"
         id="stop16" />
      <stop
         style="stop-color:#e84242;stop-opacity:1;"
         offset="0.99989998"
         id="stop17" />
    </linearGradient>
    <linearGradient
       id="linearGradient1"
       inkscape:collect="always">
      <stop
         style="stop-color:#440d0d;stop-opacity:1;"
         offset="0"
         id="stop1" />
      <stop
         style="stop-color:#942f1e;stop-opacity:1;"
         offset="0.48118931"
         id="stop11" />
      <stop
         style="stop-color:#eeb7b6;stop-opacity:1;"
         offset="0.96237862"
         id="stop10" />
    </linearGradient>
    <linearGradient
       id="linearGradient28"
       inkscape:collect="always">
      <stop
         style="stop-color:#b54635;stop-opacity:0;"
         offset="0"
         id="stop29" />
      <stop
         style="stop-color:#000000;stop-opacity:1;"
         offset="0.20651101"
         id="stop32" />
      <stop
         style="stop-color:#000000;stop-opacity:1;"
         offset="0.95716965"
         id="stop31" />
      <stop
         style="stop-color:#000000;stop-opacity:0;"
         offset="1"
         id="stop30" />
    </linearGradient>
    <linearGradient
       id="linearGradient27"
       inkscape:collect="always">
      <stop
         style="stop-color:#4f4f4f;stop-opacity:1;"
         offset="0"
         id="stop27" />
      <stop
         style="stop-color:#000000;stop-opacity:1;"
         offset="1"
         id="stop28" />
    </linearGradient>
    <linearGradient
       id="linearGradient21"
       inkscape:collect="always">
      <stop
         style="stop-color:#767676;stop-opacity:1;"
         offset="0"
         id="stop21" />
      <stop
         style="stop-color:#000000;stop-opacity:1;"
         offset="1"
         id="stop22" />
    </linearGradient>
    <linearGradient
       id="linearGradient13"
       inkscape:collect="always">
      <stop
         style="stop-color:#e4e4e4;stop-opacity:1;"
         offset="0"
         id="stop12" />
      <stop
         style="stop-color:#a21d24;stop-opacity:0;"
         offset="1"
         id="stop13" />
    </linearGradient>
    <linearGradient
       id="linearGradient9"
       inkscape:collect="always">
      <stop
         style="stop-color:#e6e6e6;stop-opacity:1;"
         offset="0"
         id="stop8" />
      <stop
         style="stop-color:#a21d24;stop-opacity:0;"
         offset="1"
         id="stop9" />
    </linearGradient>
    <linearGradient
       id="linearGradient7"
       inkscape:collect="always">
      <stop
         style="stop-color:#ffdf80;stop-opacity:0.50665635;"
         offset="0"
         id="stop6" />
      <stop
         style="stop-color:#a21d24;stop-opacity:0;"
         offset="1"
         id="stop7" />
    </linearGradient>
    <linearGradient
       id="linearGradient5"
       inkscape:collect="always">
      <stop
         style="stop-color:#eaeaea;stop-opacity:1;"
         offset="0"
         id="stop4" />
      <stop
         style="stop-color:#a21d24;stop-opacity:0;"
         offset="1"
         id="stop5" />
    </linearGradient>
    <linearGradient
       id="linearGradient2"
       inkscape:collect="always">
      <stop
         style="stop-color:#190000;stop-opacity:1;"
         offset="0.22989687"
         id="stop2" />
      <stop
         style="stop-color:#a21d24;stop-opacity:1;"
         offset="1"
         id="stop3" />
    </linearGradient>
    <radialGradient
       inkscape:collect="always"
       xlink:href="#linearGradient2"
       id="radialGradient3"
       cx="427.07867"
       cy="998.65149"
       fx="427.07867"
       fy="998.65149"
       r="367.76675"
       gradientTransform="matrix(0.70670767,-0.67413301,1.716396,1.7993338,-1524.6979,-414.08246)"
       gradientUnits="userSpaceOnUse" />
    <radialGradient
       inkscape:collect="always"
       xlink:href="#linearGradient9"
       id="radialGradient5"
       cx="38.017605"
       cy="664.93207"
       fx="38.017605"
       fy="664.93207"
       r="367.76675"
       gradientTransform="matrix(0.24501938,0.50092885,-1.2384213,0.60574897,1064.8438,-212.23436)"
       gradientUnits="userSpaceOnUse" />
    <radialGradient
       inkscape:collect="always"
       xlink:href="#linearGradient7"
       id="radialGradient6"
       gradientUnits="userSpaceOnUse"
       gradientTransform="matrix(-0.37051218,0.42738182,-0.42645641,-0.36970991,1132.0751,529.69247)"
       cx="997.6203"
       cy="574.57971"
       fx="997.6203"
       fy="574.57971"
       r="367.76675" />
    <radialGradient
       inkscape:collect="always"
       xlink:href="#linearGradient5"
       id="radialGradient7"
       gradientUnits="userSpaceOnUse"
       gradientTransform="matrix(-0.40491335,0.38341803,-0.80348899,-0.84853463,1128.4897,849.98731)"
       cx="-41.03653"
       cy="706.24225"
       fx="-41.03653"
       fy="706.24225"
       r="367.76675" />
    <radialGradient
       inkscape:collect="always"
       xlink:href="#linearGradient13"
       id="radialGradient9"
       gradientUnits="userSpaceOnUse"
       gradientTransform="matrix(-0.05336699,0.55508213,-0.91499057,-0.08796956,1205.8004,229.25332)"
       cx="36.343712"
       cy="807.94543"
       fx="36.343712"
       fy="807.94543"
       r="367.76675" />
    <radialGradient
       inkscape:collect="always"
       xlink:href="#linearGradient7"
       id="radialGradient10"
       gradientUnits="userSpaceOnUse"
       gradientTransform="matrix(0.58202482,0.98154497,-1.6044241,0.95137193,787.79835,-441.65452)"
       cx="574.92743"
       cy="438.94824"
       fx="574.92743"
       fy="438.94824"
       r="367.76675" />
    <radialGradient
       inkscape:collect="always"
       xlink:href="#linearGradient7"
       id="radialGradient11"
       gradientUnits="userSpaceOnUse"
       gradientTransform="matrix(0.54338171,1.0034539,-0.92294738,0.49978642,510.88234,-256.0279)"
       cx="965.78632"
       cy="381.6442"
       fx="965.78632"
       fy="381.6442"
       r="367.76675" />
    <radialGradient
       inkscape:collect="always"
       xlink:href="#linearGradient21"
       id="radialGradient22"
       cx="618.69104"
       cy="594.80377"
       fx="618.69104"
       fy="594.80377"
       r="104.85376"
       gradientTransform="matrix(0.3130845,-0.92893939,1.964635,0.66214943,-769.73804,797.53302)"
       gradientUnits="userSpaceOnUse" />
    <radialGradient
       inkscape:collect="always"
       xlink:href="#linearGradient27"
       id="radialGradient28"
       cx="293.12277"
       cy="858.72015"
       fx="293.12277"
       fy="858.72015"
       r="149.09438"
       gradientTransform="matrix(0.09749602,-0.0952889,0.69849539,0.71467417,-386.83125,241.00254)"
       gradientUnits="userSpaceOnUse" />
    <radialGradient
       inkscape:collect="always"
       xlink:href="#linearGradient28"
       id="radialGradient30"
       cx="421.65237"
       cy="696.94"
       fx="421.65237"
       fy="696.94"
       r="347.19789"
       gradientTransform="matrix(1.0370637,-0.20387817,0.29725738,1.5120541,-222.11457,-256.54142)"
       gradientUnits="userSpaceOnUse" />
    <linearGradient
       inkscape:collect="always"
       xlink:href="#linearGradient1"
       id="linearGradient10"
       x1="923.11243"
       y1="875.49432"
       x2="990.34235"
       y2="692.61993"
       gradientUnits="userSpaceOnUse" />
    <linearGradient
       inkscape:collect="always"
       xlink:href="#linearGradient18"
       id="linearGradient16"
       gradientUnits="userSpaceOnUse"
       x1="262.28641"
       y1="962.0025"
       x2="1353.1959"
       y2="1514.4473" />
    <linearGradient
       inkscape:collect="always"
       xlink:href="#linearGradient35"
       id="linearGradient31"
       gradientUnits="userSpaceOnUse"
       x1="654.64191"
       y1="1551.7681"
       x2="336.77957"
       y2="1412.8257"
       gradientTransform="translate(2e-5)" />
    <radialGradient
       inkscape:collect="always"
       xlink:href="#linearGradient46"
       id="radialGradient47"
       cx="725.25836"
       cy="1097.3586"
       fx="725.25836"
       fy="1097.3586"
       r="100.06846"
       gradientTransform="matrix(5.3431829,2.0735257,-1.3096194,3.3747052,-1759.2551,-4090.3255)"
       gradientUnits="userSpaceOnUse" />
    <linearGradient
       inkscape:collect="always"
       xlink:href="#linearGradient85"
       id="linearGradient86"
       x1="771.50476"
       y1="1747.2345"
       x2="789.44019"
       y2="1577.3164"
       gradientUnits="userSpaceOnUse" />
    <filter
       inkscape:collect="always"
       style="color-interpolation-filters:sRGB"
       id="filter86"
       x="-0.11705505"
       y="-0.045427898"
       width="1.2341101"
       height="1.0908558">
      <feGaussianBlur
         inkscape:collect="always"
         stdDeviation="9.7612654"
         id="feGaussianBlur86" />
    </filter>
    <linearGradient
       inkscape:collect="always"
       xlink:href="#linearGradient87"
       id="linearGradient88"
       x1="284.23602"
       y1="1837.6642"
       x2="560.1131"
       y2="1677.0909"
       gradientUnits="userSpaceOnUse" />
    <linearGradient
       inkscape:collect="always"
       xlink:href="#linearGradient92"
       id="linearGradient93"
       x1="601.50983"
       y1="1758.2523"
       x2="857.92969"
       y2="1882.8889"
       gradientUnits="userSpaceOnUse" />
    <linearGradient
       inkscape:collect="always"
       xlink:href="#linearGradient100"
       id="linearGradient101"
       x1="521.55188"
       y1="-492.76227"
       x2="540"
       y2="1920"
       gradientUnits="userSpaceOnUse" />
    <linearGradient
       inkscape:collect="always"
       xlink:href="#linearGradient158"
       id="linearGradient159"
       x1="542.27802"
       y1="-186.95006"
       x2="615.16992"
       y2="1920"
       gradientUnits="userSpaceOnUse" />
    <filter
       y="-0.15600585"
       height="1.3120117"
       inkscape:menu-tooltip="Darkens the edge with an inner blur and adds a flexible glow"
       inkscape:menu="Shadows and Glows"
       inkscape:label="Dark and Glow"
       style="color-interpolation-filters:sRGB;"
       id="filter162"
       x="-0.049912121"
       width="1.0998242">
      <feGaussianBlur
         stdDeviation="5"
         result="result6"
         id="feGaussianBlur161" />
      <feComposite
         result="result8"
         in="SourceGraphic"
         operator="atop"
         in2="result6"
         id="feComposite161" />
      <feComposite
         result="result9"
         operator="over"
         in2="SourceAlpha"
         in="result8"
         id="feComposite162" />
      <feColorMatrix
         values="1 0 0 0 0 0 1 0 0 0 0 0 1 0 0 0 0 0 1 0 "
         result="result10"
         id="feColorMatrix162" />
      <feBlend
         in="result10"
         mode="normal"
         in2="result6"
         id="feBlend162" />
    </filter>
  </defs>
  <sodipodi:namedview
     id="namedview1"
     pagecolor="#ffffff"
     bordercolor="#000000"
     borderopacity="0.25"
     inkscape:showpageshadow="2"
     inkscape:pageopacity="0.0"
     inkscape:pagecheckerboard="0"
     inkscape:deskcolor="#d1d1d1"
     inkscape:zoom="0.41614583"
     inkscape:cx="540.67584"
     inkscape:cy="960"
     inkscape:window-width="1920"
     inkscape:window-height="1013"
     inkscape:window-x="-9"
     inkscape:window-y="-9"
     inkscape:window-maximized="1"
     inkscape:current-layer="layer2" />
  <g
     inkscape:groupmode="layer"
     id="layer6"
     inkscape:label="bg"
     style="display:inline">
    <rect
       style="fill:url(#linearGradient101);fill-rule:evenodd"
       id="rect94"
       width="1080"
       height="1920"
       x="0"
       y="0"
       rx="0"
       ry="0" />
    <path
       id="rect101"
       style="fill:url(#linearGradient159);fill-rule:evenodd;opacity:1"
       d="M 680.95117 192.8418 L 680.95117 207.25977 L 657.82227 207.25977 L 657.82227 219.27344 L 657.82227 240.30078 L 641.60156 240.30078 L 641.60156 735.31836 L 630.78906 735.31836 L 630.78906 484.20508 L 618.50977 484.20508 L 618.50977 370.0625 L 601.55859 370.0625 L 601.55859 333.16797 C 601.55859 319.07531 590.21375 307.73047 576.12109 307.73047 C 562.02844 307.73047 550.68164 319.07531 550.68164 333.16797 L 550.68164 370.0625 L 533.73047 370.0625 L 533.73047 484.20508 L 521.45117 484.20508 L 521.45117 735.31836 L 507.0332 735.31836 L 507.0332 1136.6211 L 480.60156 1136.6211 L 480.60156 1119.8008 L 479.24805 1119.8008 C 487.31884 1119.8008 493.81641 1113.3032 493.81641 1105.2324 C 493.81641 1097.1616 487.31884 1090.6641 479.24805 1090.6641 L 471.38867 1090.6641 C 472.22071 1090.6641 472.89062 1089.9941 472.89062 1089.1621 L 472.89062 1084.0547 C 472.89063 1083.2226 472.22071 1082.5527 471.38867 1082.5527 L 451.76562 1082.5527 C 450.93359 1082.5527 450.26367 1083.2226 450.26367 1084.0547 L 450.26367 1089.1621 C 450.26367 1089.9941 450.93359 1090.6641 451.76562 1090.6641 L 426.08203 1090.6641 C 418.01124 1090.6641 411.51367 1097.1616 411.51367 1105.2324 C 411.51367 1113.3032 418.01124 1119.8008 426.08203 1119.8008 L 427.5332 1119.8008 L 427.5332 1136.6211 L 398.89844 1136.6211 L 398.89844 1202.5957 L 388.08594 1202.5957 L 388.08594 1160.3496 L 347.83398 1160.3496 L 347.83398 1202.5957 L 336.4375 1202.5957 L 336.4375 1290.4121 L 300.375 1290.4121 L 300.375 1028.4863 L 289.5625 1028.4863 L 289.5625 984.63086 L 289.49805 984.63086 A 29.286608 29.136421 0 0 0 289.5625 983.73047 A 29.286608 29.136421 0 0 0 260.27539 954.59375 A 29.286608 29.136421 0 0 0 230.98828 983.73047 A 29.286608 29.136421 0 0 0 231.05273 984.63086 L 230.98828 984.63086 L 230.98828 1028.4863 L 212.9668 1028.4863 L 212.9668 1005.6562 L 212.9668 989.13672 L 196.44531 989.13672 L 196.44531 976.82031 L 196.2793 976.82031 A 8.2603264 7.5844827 0 0 0 196.44531 975.39453 A 8.2603264 7.5844827 0 0 0 188.18555 967.81055 A 8.2603264 7.5844827 0 0 0 179.92578 975.39453 A 8.2603264 7.5844827 0 0 0 180.0918 976.82031 L 179.92578 976.82031 L 179.92578 989.13672 L 179.92578 1005.6562 L 167.60938 1005.6562 L 167.60938 1028.4863 L 151.38867 1028.4863 L 151.38867 446.95898 L 130.36328 446.95898 L 130.36328 379.07422 L 114.74414 379.07422 L 114.74414 341.82812 L 102.72852 341.82812 L 102.72852 316.5957 L 91.314453 316.5957 L 91.314453 298.57227 L 80.201172 298.57227 L 80.201172 260.125 L 73.291016 260.125 L 73.291016 298.57227 L 58.273438 298.57227 L 58.273438 316.5957 L 43.855469 316.5957 L 43.855469 341.82812 L 30.638672 341.82812 L 30.638672 379.07422 L 15.619141 379.07422 L 15.619141 446.95898 L 0 446.95898 L 0 1920 L 151.38867 1920 L 300.375 1920 L 468.58594 1920 L 615.16992 1920 L 776.16992 1920 L 994.84375 1920 L 1080 1920 L 1080 514.24219 L 1080 427.34375 L 1080 353.85352 L 1058.25 353.85352 L 1058.25 427.34375 L 1036.5 427.34375 L 1036.5 514.24219 L 994.84375 514.24219 L 994.84375 240.30078 L 986.18945 240.30078 L 986.18945 219.27344 L 986.18945 207.25977 L 966.96484 207.25977 L 966.96484 192.8418 L 680.95117 192.8418 z M 665.63281 219.27344 L 677.04688 219.27344 L 677.04688 240.30078 L 665.63281 240.30078 L 665.63281 219.27344 z M 684.85547 219.27344 L 695.06836 219.27344 L 695.06836 240.30078 L 684.85547 240.30078 L 684.85547 219.27344 z M 702.87891 219.27344 L 714.89453 219.27344 L 714.89453 240.30078 L 702.87891 240.30078 L 702.87891 219.27344 z M 722.70312 219.27344 L 734.11719 219.27344 L 734.11719 240.30078 L 722.70312 240.30078 L 722.70312 219.27344 z M 741.92773 219.27344 L 753.3418 219.27344 L 753.3418 240.30078 L 741.92773 240.30078 L 741.92773 219.27344 z M 761.15234 219.27344 L 771.24219 219.27344 L 771.24219 240.30078 L 761.15234 240.30078 L 761.15234 219.27344 z M 779.05273 219.27344 L 790.4668 219.27344 L 790.4668 240.30078 L 779.05273 240.30078 L 779.05273 219.27344 z M 798.27734 219.27344 L 808.48828 219.27344 L 808.48828 240.30078 L 798.27734 240.30078 L 798.27734 219.27344 z M 816.29883 219.27344 L 828.31445 219.27344 L 828.31445 240.30078 L 816.29883 240.30078 L 816.29883 219.27344 z M 836.12305 219.27344 L 847.53711 219.27344 L 847.53711 240.30078 L 836.12305 240.30078 L 836.12305 219.27344 z M 855.34766 219.27344 L 866.76172 219.27344 L 866.76172 240.30078 L 855.34766 240.30078 L 855.34766 219.27344 z M 874.57227 219.27344 L 882.86133 219.27344 L 882.86133 240.30078 L 874.57227 240.30078 L 874.57227 219.27344 z M 890.66992 219.27344 L 902.08398 219.27344 L 902.08398 240.30078 L 890.66992 240.30078 L 890.66992 219.27344 z M 909.89453 219.27344 L 920.10742 219.27344 L 920.10742 240.30078 L 909.89453 240.30078 L 909.89453 219.27344 z M 927.91602 219.27344 L 939.93164 219.27344 L 939.93164 240.30078 L 927.91602 240.30078 L 927.91602 219.27344 z M 947.74219 219.27344 L 959.15625 219.27344 L 959.15625 240.30078 L 947.74219 240.30078 L 947.74219 219.27344 z M 966.96484 219.27344 L 978.38086 219.27344 L 978.38086 240.30078 L 966.96484 240.30078 L 966.96484 219.27344 z M 435.24414 1119.8008 L 472.89062 1119.8008 L 472.89062 1136.6211 L 435.24414 1136.6211 L 435.24414 1119.8008 z " />
    <text
       xml:space="preserve"
       id="text159"
       style="font-size:109.932px;line-height:1.6;font-family:'Imprint MT Shadow';-inkscape-font-specification:'Imprint MT Shadow';text-align:center;white-space:pre;shape-inside:url(#rect159)"><tspan
         x="77.600586"
         y="182.82521"
         id="tspan1">
</tspan><tspan
         x="77.600586"
         y="358.71642"
         id="tspan2">
</tspan><tspan
         x="77.600586"
         y="534.60762"
         id="tspan3">
</tspan><tspan
         x="77.600586"
         y="710.49879"
         id="tspan4">
</tspan><tspan
         x="-696.66406"
         y="886.39003"
         id="tspan5">
</tspan><tspan
         x="-696.66406"
         y="1004.4209"
         id="tspan6">
</tspan><tspan
         x="-696.66406"
         y="1180.3121"
         id="tspan7">
</tspan><tspan
         x="-696.66406"
         y="1356.2033"
         id="tspan8">
</tspan><tspan
         x="-696.66406"
         y="1532.0945"
         id="tspan9">
</tspan><tspan
         x="-696.66406"
         y="1707.9857"
         id="tspan11"><tspan
           dx="0 49.276161 41.224495 29.791145 41.224495"
           id="tspan10">arish</tspan></tspan></text>
    <text
       xml:space="preserve"
       id="text160"
       style="font-size:109.932px;line-height:1.6;font-family:'Blackadder ITC';-inkscape-font-specification:'Blackadder ITC, Normal';text-align:center;white-space:pre;shape-inside:url(#rect160);fill:#ffffff;font-weight:normal;font-style:normal;font-stretch:normal;font-variant:normal;font-variant-ligatures:normal;font-variant-caps:normal;font-variant-numeric:normal;font-variant-east-asian:normal;opacity:0.5"
       transform="matrix(0.64782023,0,0,0.64782023,-448.90467,2051.6055)"><tspan
         x="785.93518"
         y="-280.9999"
         id="tspan12">-Harish</tspan></text>
    <text
       xml:space="preserve"
       id="text161"
       style="font-style:normal;font-variant:normal;font-weight:bold;font-stretch:normal;font-size:109.932px;line-height:1.6;font-family:'Gill Sans MT';-inkscape-font-specification:'Gill Sans MT, Bold';font-variant-ligatures:normal;font-variant-caps:normal;font-variant-numeric:normal;font-variant-east-asian:normal;text-align:center;white-space:pre;shape-inside:url(#rect161);opacity:0.5;fill:#ffd42a;filter:url(#filter162)"
       transform="translate(-138.17272,-27.322109)"><tspan
         x="832.90126"
         y="379.78782"
         id="tspan13">NYC</tspan></text>
  </g>
  <g
     inkscape:groupmode="layer"
     id="layer5"
     inkscape:label="body"
     style="display:inline;opacity:1">
    <path
       style="display:inline;opacity:1;fill:url(#linearGradient10);stroke-width:49.3;paint-order:stroke fill markers"
       d="m 780.97623,636.796 c 0,0 63.07885,66.0826 71.48936,67.28411 8.41051,1.2015 71.48936,7.20901 93.71715,-0.60075 C 968.41052,695.66959 1080,674.04256 1080,678.24782 V 1804.6558 c 0,0 -78.5482,-18.6232 -123.00375,-10.8135 -44.45557,7.8098 -133.96746,-29.4368 -139.37422,-28.2353 -5.40675,1.2015 -2.403,33.6421 -7.80976,41.4518 -5.40676,7.8098 -4.20525,30.6383 -5.40676,38.4481 -1.2015,7.8098 -5.40675,60.0751 -16.22027,74.4931 -10.81352,14.418 -399.49938,0 -399.49938,0 0,0 -21.02628,-34.8435 -15.61952,-43.2541 5.40675,-8.4105 -3.60451,-17.4217 -4.20526,-21.0262 -0.60075,-3.6045 -10.81352,-91.9149 -14.41802,-99.1239 -3.60451,-7.2091 -19.82478,-63.0789 -17.42178,-72.0902 2.403,-9.0112 -5.40676,-129.7622 18.02253,-173.0162 23.42928,-43.2541 104.53066,-206.6583 108.13517,-224.0801 3.6045,-17.4218 96.7209,-160.4005 100.92616,-161.602 4.20525,-1.2015 49.86232,-45.6571 64.8811,-48.0601 15.01877,-2.403 62.4781,-0.6007 81.70213,-45.0563 19.22403,-44.4556 45.25297,-122.589 48.06007,-151.99002 2.73627,-28.65917 8.11277,-112.63464 -12.61577,-168.81101 -5.75203,-15.58858 34.84356,-75.09387 34.84356,-75.09387 z"
       id="path1"
       sodipodi:nodetypes="cssscssssscsssssssssssc" />
    <path
       style="display:inline;fill:url(#linearGradient31);stroke-width:49.3;paint-order:stroke fill markers"
       d="m 780.97625,636.796 c 0,0 63.07885,66.0826 71.48935,67.28411 8.4105,1.2015 71.4894,7.20901 93.7172,-0.60075 C 968.4105,695.66959 1080,674.04256 1080,678.24782 V 1804.6558 c 0,0 -78.5482,-18.6232 -123.0037,-10.8135 -44.4556,7.8098 -133.9675,-29.4368 -139.3743,-28.2353 -5.4067,1.2015 -2.403,33.6421 -7.80971,41.4518 -5.40676,7.8098 -4.20525,30.6383 -5.40676,38.4481 -1.2015,7.8098 -5.40675,60.0751 -16.22027,74.4931 -10.81352,14.418 -399.49938,0 -399.49938,0 0,0 -21.02628,-34.8435 -15.61952,-43.2541 5.40675,-8.4105 -3.60451,-17.4217 -4.20526,-21.0262 -0.60075,-3.6045 -10.81352,-91.9149 -14.41802,-99.1239 -3.60451,-7.2091 -19.82478,-63.0789 -17.42178,-72.0902 2.403,-9.0112 -5.40676,-129.7622 18.02253,-173.0162 23.42928,-43.2541 104.53066,-206.6583 108.13517,-224.0801 3.6045,-17.4218 96.7209,-160.4005 100.92616,-161.602 4.20525,-1.2015 49.86232,-45.6571 64.8811,-48.0601 15.01877,-2.403 62.4781,-0.6007 81.70213,-45.0563 19.22403,-44.4556 45.25297,-122.589 48.06007,-151.99 2.73627,-28.6592 8.11277,-112.63466 -12.61577,-168.81103 -5.75203,-15.58858 34.84356,-75.09387 34.84356,-75.09387 z"
       id="path1-8"
       sodipodi:nodetypes="cssscssssscsssssssssssc" />
    <path
       style="display:inline;fill:url(#linearGradient16);stroke-width:49.3;paint-order:stroke fill markers"
       d="m 780.97623,636.796 c 0,0 63.07885,66.0826 71.48936,67.28411 8.41049,1.2015 71.48939,7.20901 93.71719,-0.60075 C 968.41048,695.66959 1080,674.04256 1080,678.24782 V 1804.6558 c 0,0 -78.5482,-18.6232 -123.00372,-10.8135 -44.4556,7.8098 -133.96749,-29.4368 -139.37425,-28.2353 -5.40675,1.2015 -2.403,33.6421 -7.80976,41.4518 -5.40676,7.8098 -4.20525,30.6383 -5.40676,38.4481 -1.2015,7.8098 -5.40675,60.0751 -16.22027,74.4931 -10.81352,14.418 -399.49938,0 -399.49938,0 0,0 -21.02628,-34.8435 -15.61952,-43.2541 5.40675,-8.4105 -3.60451,-17.4217 -4.20526,-21.0262 -0.60075,-3.6045 -10.81352,-91.9149 -14.41802,-99.1239 -3.60451,-7.2091 -19.82478,-63.0789 -17.42178,-72.0902 2.403,-9.0112 -5.40676,-129.7622 18.02253,-173.0162 23.42928,-43.2541 104.53066,-206.6583 108.13517,-224.0801 3.6045,-17.4218 96.7209,-160.4005 100.92616,-161.602 4.20525,-1.2015 49.86232,-45.6571 64.8811,-48.0601 15.01877,-2.403 62.4781,-0.6007 81.70213,-45.0563 19.22403,-44.4556 45.25297,-122.589 48.06007,-151.99002 2.73627,-28.65917 8.11277,-112.63464 -12.61577,-168.81101 -5.75203,-15.58858 34.84356,-75.09387 34.84356,-75.09387 z"
       id="path1-1"
       sodipodi:nodetypes="cssscssssscsssssssssssc" />
    <path
       style="opacity:0.7;mix-blend-mode:normal;fill:url(#radialGradient47);stroke-width:49.3;paint-order:stroke fill markers;filter:url(#filter86)"
       d="m 663.7012,1116.4628 c 0,0 60.0751,-39.6496 78.09763,-70.8886 18.02252,-31.2391 43.25406,-74.4932 54.06758,-115.3442 10.81352,-40.8511 -11.31708,-110.39925 -10.11557,-128.42178 1.2015,-18.02252 37.75011,-42.19152 48.56363,-16.95998 10.81352,25.23154 2.403,42.05257 0,74.49312 -2.403,32.44055 -24.03004,54.06754 -8.41051,64.88114 15.61952,10.8135 21.62703,24.03 20.42553,37.2465 -1.2015,13.2165 -15.61952,16.821 -12.01502,34.8436 3.60451,18.0225 -6.00751,36.045 -6.00751,54.0676 0,18.0225 10.81352,55.2691 16.82103,60.0751 6.00751,4.806 -1.2015,12.015 -7.20901,31.239 -6.00751,19.224 -30.03755,9.612 -10.81352,33.6421 19.22403,24.03 24.03004,18.0225 28.83605,42.0525 4.806,24.0301 14.41802,30.0376 1.2015,36.0451 -13.21652,6.0075 -15.61953,4.806 -37.24656,12.015 -21.62704,7.209 -14.41802,30.0376 -32.44055,22.8285 -18.02253,-7.209 -123.7547,-171.8147 -123.7547,-171.8147 z"
       id="path29"
       sodipodi:nodetypes="cssssssssssssssssc" />
    <path
       style="opacity:0.7;fill:url(#linearGradient86);stroke-width:49.8464;paint-order:stroke fill markers"
       d="m 530.99383,1657.7454 c 0,0 46.72746,33.004 58.62172,35.6097 11.89426,2.6056 25.48771,13.0279 43.3291,21.7132 17.84139,8.6853 39.08114,13.0279 51.825,17.3706 12.74385,4.3425 33.9836,6.0796 62.02008,11.2907 28.03647,5.2113 70.83224,21.007 70.83227,21.007 3e-5,0 67.09366,21.1093 82.82629,24.2425 15.73263,3.1331 25.37776,6.5108 56.54801,4.6222 31.17025,-1.8887 49.2942,-1.7088 68.9105,1.2353 19.6163,2.944 54.0932,9.8192 54.0932,9.8192 v -74.8226 c 0,0 -40.9513,-1.737 -62.191,-1.737 -21.23977,0 -29.73568,25.1873 -67.96723,13.0279 -38.23156,-12.1594 -62.86967,-18.2391 -71.36557,-21.7132 -8.4959,-3.4742 -27.18689,-17.3706 -45.87787,-13.0279 -18.69098,4.3426 -41.62992,5.2111 -45.87787,1.737 -4.24795,-3.4741 -35.43797,-27.7928 -35.43797,-27.7928 l -33.37883,-11.2909 c 0,0 -28.03647,-14.765 -53.52418,-11.2909 -25.4877,3.4742 -37.38196,6.0797 -44.17868,-4.3426 -6.79672,-10.4223 -45.02828,-60.797 -45.02828,-60.797 l 48.42664,75.562 c 0,0 -11.04467,-4.3427 -16.99181,-3.4742 -5.94713,0.8685 -58.51142,-69.4822 -58.51142,-77.2989 0,-7.8168 -8.09593,-13.0279 -8.09593,-5.2112 0,7.8168 38.57088,68.6137 41.11965,74.6934 2.54877,6.0796 2.03851,13.0279 -19.54057,-6.0797 -21.57908,-19.1076 -42.47951,-29.53 -41.62992,-46.9005 0.84959,-17.3706 8.4959,-32.1355 0,-33.0041 -8.4959,-0.8685 -10.19508,24.3188 -10.19508,24.3188 0,0 -28.03647,-33.004 -15.29262,-13.8964 12.74385,19.1076 36.02211,59.9284 40.78032,67.7451 4.75822,7.8168 -4.24795,8.6853 -4.24795,8.6853 z"
       id="path35" />
    <path
       id="path37"
       style="opacity:0.7;fill:#000000;fill-opacity:1;stroke-width:49.3;paint-order:stroke fill markers"
       d="m 842.85352,697.77148 c 0,0 20.4252,18.02352 24.33007,19.5254 3.90488,1.50187 19.82547,15.01927 36.64649,17.72265 4.83658,0.77731 15.2978,2.12767 28.03515,3.5332 -1.03073,1.18349 -10.12242,11.76618 -11.96484,18.99415 -1.81453,7.11853 1.52012,19.79582 2.00586,21.57226 -13.05545,-3.52465 -45.0666,-25.88048 -62.83203,-31.18359 -20.12514,-6.00751 -26.43359,-7.20899 -26.4336,-7.20899 0,0 24.63151,14.41763 29.4375,22.82813 4.80601,8.4105 15.01795,-3.60404 29.73633,9.01172 14.11881,12.10183 23.47417,13.97374 27.13477,15.69726 -0.2762,0.41868 -10.16406,15.5596 -10.16406,38.21875 v 22.97852 l 9.46289,23.88086 3.30468,1.95312 c 0,0 -10.66325,-39.20034 -10.0625,-45.80859 0.60075,-6.60826 6.75777,-37.99617 9.61133,-39.49805 1.00783,-0.53044 1.03241,-0.9093 0.6543,-1.17969 9.33645,0.7387 44.90132,1.23306 79.77734,1.89063 -0.3887,0.59626 -12.39648,19.20662 -12.39648,43.29297 0,24.48057 2.10142,51.81561 10.66211,62.77929 0.55257,0.70768 0.86797,1.07596 1.29297,1.60157 -33.32862,-11.11041 -67.24381,-21.71199 -79.53907,-23.07813 -27.03376,-3.00376 -37.2482,-39.04913 -40.25195,-45.05664 -3.00376,-6.00749 -15.6178,-28.23532 -27.63281,-39.04883 -12.01501,-10.8135 -21.02735,-16.82226 -21.02735,-16.82226 l 4.20508,14.41797 c 0,0 49.8626,72.69235 59.47461,83.50586 3.78495,4.25806 10.28743,7.65083 17.34766,10.3789 -1.16164,2.37748 -10.81781,22.7237 -9.6875,40.38477 1.20151,18.77344 6.45752,49.41132 8.25976,53.16601 0.15951,0.3323 0.34788,0.63469 0.54688,0.92578 -2.96226,-1.98722 -6.45286,-4.35744 -11.06055,-7.53515 -17.42176,-12.01501 -43.85397,-31.23842 -52.86523,-41.45117 -9.01125,-10.21276 -27.0332,-30.03729 -27.03321,-25.83204 0,4.20525 0.59961,14.41797 0.59961,14.41797 0,0 44.45585,48.05939 59.47461,55.86914 15.01876,7.80976 52.2646,34.24377 70.28711,35.44527 6.61541,0.4411 15.74375,4.3726 25.08985,9.3086 -11.18781,0.8275 -36.73713,39.6808 -37.49219,62.0039 -28.84385,9.2985 -60.14535,49.626 -57.2832,57.8477 0.70271,2.0186 1.23468,3.1989 1.68945,4.0898 -9.3866,-11.0609 -18.13861,-20.9318 -25.7207,-28.7207 -66.08254,-67.8847 -10.8125,3.004 -10.8125,3.004 0,0 10.47733,12.2781 25.75195,30.6718 -0.12468,-0.011 -0.23123,-0.024 -0.37109,-0.033 -4.80601,-0.3004 -26.28245,16.6715 -34.39258,22.2285 -8.11013,5.5569 -20.72656,39.7989 -20.72656,39.7989 0,0 16.07123,-30.9382 22.52929,-37.2461 6.45807,-6.3079 33.04102,-22.8282 33.04102,-22.8282 0,0 0.58221,-0.2228 1.08593,-0.5175 30.83577,37.173 81.64227,99.9097 117.26172,151.7558 41.83636,60.8951 66.08876,94.6959 77.50586,110.5059 -0.9731,-0.8791 -2.1949,-1.7479 -3.6133,-2.2207 -3.6045,-1.2016 -26.4326,6.6093 -44.4551,16.6719 -17.9739,10.0354 -29.96277,40.9544 -30.0273,41.1211 -6.60972,-6.7142 -12.38081,-15.7799 -15.63086,-19.4942 -4.20525,-4.806 -15.01888,-26.4329 -17.42187,-28.8359 -2.40301,-2.403 -15.0187,-15.6202 -21.62696,-29.4375 -6.60825,-13.8173 -13.21678,-23.4282 -20.42578,-32.4395 -7.209,-9.0112 -9.6105,-16.2208 -16.21875,-26.4336 -6.60825,-10.2128 -18.02344,-33.041 -18.02344,-33.041 0,0 1.20233,-10e-5 -6.60742,-10.2129 -7.80976,-10.2127 -18.62386,-24.6318 -19.22461,-28.2363 -0.60076,-3.6045 -8.41015,0 -8.41015,0 0,0 2.86691,6.1908 6.83984,14.0879 -0.57926,-0.1816 -1.22787,-0.3685 -2.03516,-0.5703 -10.21276,-2.5532 -34.24186,3.4544 -47.00781,5.8574 -12.32115,2.3193 -29.79565,19.0362 -31.00976,20.209 -4.50409,-9.6037 -8.18847,-17.2529 -9.69141,-19.7578 -7.209,-12.015 -56.47115,-102.1282 -72.69141,-115.9453 -16.22026,-13.8173 -17.42071,-29.437 -25.23047,-34.8438 -7.80975,-5.4067 -15.01984,0.6012 -21.02734,1.8027 -6.00749,1.2015 6.00827,0.6004 15.01953,15.6192 9.01125,15.0188 22.82744,21.6258 32.43945,39.6484 9.61201,18.0225 18.62435,31.8408 21.02735,35.4453 2.40301,3.6045 -63.67969,8.4102 -63.67969,8.4102 0,0 5.40607,1.8021 9.61133,4.2051 4.20525,2.403 16.22004,2.4024 18.62305,12.6152 2.40299,10.2128 22.22915,82.3038 27.03515,110.5391 4.80601,28.2352 47.45894,211.4636 61.87696,248.1093 14.418,36.6458 39.64907,102.7283 44.45507,106.9336 4.806,4.2052 15.61914,1.8028 15.61914,1.8028 0,0 -34.24201,-69.0867 -38.44726,-84.1055 -2.70993,-9.6783 -18.48353,-59.3968 -30.61328,-98.9922 0.64987,-0.4907 8.59222,-6.9091 24.75586,-12.7461 16.22026,-5.8573 27.1835,-3.7558 44.45508,-2.2539 17.27157,1.5019 45.80859,14.8691 45.80859,14.8691 0,0 -0.0727,-0.266 -0.0859,-0.3281 0.77379,1.523 2.97816,6.2172 3.38867,6.9356 7.20901,12.6157 69.68683,121.9532 79.29883,132.166 9.61201,10.2127 51.06413,57.0716 52.26563,59.4746 1.2015,2.403 13.2168,2.4023 13.2168,2.4023 0,0 -42.65264,-45.0556 -55.86915,-63.0781 -13.2165,-18.0226 -69.68715,-111.7406 -78.09765,-127.9609 -0.34316,-0.6618 -2.05568,-4.2514 -2.51758,-5.166 l 0.56445,-0.9903 c 0,0 13.81742,-21.929 14.56836,-24.332 0.75093,-2.403 9.31178,-13.8157 21.77734,-21.9258 12.27281,-7.9847 60.33625,-16.3235 61.83399,-16.582 7.57219,12.4649 11.83842,22.0689 17.31444,27.5449 8.4105,8.4105 15.6203,19.2247 18.0234,22.2285 0.1662,0.2078 0.3726,0.3812 0.5996,0.5332 0,0.1633 0,25.3053 0.3008,27.5508 0.3004,2.2528 -1.2012,3.0039 -1.2012,3.0039 0,0 -11.1147,-3.3047 -16.5215,-6.1582 -5.40664,-2.8536 -17.8721,-27.1835 -20.12492,-30.0371 -2.25281,-2.8536 -12.91601,-2e-4 -12.91601,4.2051 0,4.2052 9.01179,20.8757 10.51367,22.8281 1.50187,1.9524 13.6669,13.0663 15.76953,14.418 2.10263,1.3517 -10.81298,-4.6548 -12.61523,-6.4571 -1.80225,-1.8022 -19.07336,-28.9873 -21.32618,-32.5918 -2.25281,-3.6045 -3.90478,-5.1054 -5.70703,-5.1054 -1.80225,0 -7.81054,2.4036 -7.81054,4.8066 0,2.403 2.8544,10.8124 4.95703,15.0176 2.10263,4.2053 20.42451,33.942 22.37695,35.8945 1.95244,1.9524 16.22013,15.1696 20.125,16.3711 3.90488,1.2015 22.07733,6.1579 22.97843,7.3594 0.9011,1.2015 3.0036,63.0783 4.2051,66.082 1.2015,3.0038 2.4031,7.6606 4.3555,9.4629 1.9524,1.8022 34.2444,31.839 43.1055,41.3008 8.8611,9.4618 9.0097,9.4629 9.0097,9.4629 V 1487.76 c 0,0 -27.1836,-33.9422 -28.6855,-34.543 -1.5019,-0.6007 -9.6126,3.4544 -9.1621,5.8574 0.4506,2.403 21.928,29.7359 23.58,32.2891 1.6521,2.5532 7.8096,22.5301 7.0586,25.9844 -0.7509,3.4543 -1.0507,7.2089 -1.0507,7.2089 0,0 -3.754,-25.8342 -8.1094,-28.8378 -4.3555,-3.0038 -17.2725,-23.1285 -22.3789,-22.8282 -5.1064,0.3004 -9.0108,5.407 -8.2598,7.3594 0.7509,1.9525 13.6677,29.5864 14.8692,31.3887 1.2015,1.8022 1.3502,11.2653 1.8007,12.4668 0.4484,1.1956 -19.3168,-6.5263 -22.6171,-5.8614 0.311,-0.8612 -0.3599,-1.9715 -2.9141,-3.1503 -7.8098,-3.6045 -17.4224,-38.4476 -26.43357,-44.4551 -2.01958,-1.3464 -3.9993,-3.119 -5.91797,-5.0606 0.26289,0.1418 3.21485,1.7174 3.21485,0.8555 0,-0.9012 3.75524,-8.7124 7.66009,-14.1191 3.9048,-5.4067 3.1529,-5.1046 3.6035,-5.8555 0.4505,-0.751 0.1516,-0.3016 3.9063,-5.2578 3.7546,-4.9562 10.3617,-10.0623 17.8711,-15.6192 7.5094,-5.557 15.7698,-8.1106 24.6308,-10.5136 8.3409,-2.2621 17.9635,-2.3868 19.1016,-2.3946 2.2519,3.1114 8.834,12.3067 8.834,12.3067 v -92.5157 c 0,0 -6.6094,14.4191 -6.6094,28.2364 0,13.8173 -1.2012,32.4394 -1.2012,32.4394 0,0 -65.8539,-94.7188 -129.30265,-177.9277 0.72717,0.7451 1.49414,1.3086 1.49414,1.3086 0,0 3.15296,-12.016 3.60352,-13.668 0.45056,-1.6521 11.26537,-23.4295 13.96875,-27.6347 2.70337,-4.2052 15.61807,-14.5688 17.7207,-16.2208 2.10263,-1.6521 8.7115,-4.9558 12.01562,-7.0585 3.30413,-2.1026 5.55664,-3.004 5.55664,-3.004 l -1.22656,-2.5898 c 28.24304,35.0686 60.28814,78.6346 82.17774,110.4258 1.5244,2.214 1.5527,-12.4707 1.5527,-12.4707 2.3972,-6.6987 -40.8946,-57.7681 -78.9395,-102.0645 0.5121,-0.7458 1.299,-2.2018 1.0918,-3.9629 -0.3004,-2.5532 2.5528,-18.7732 5.4063,-25.832 2.8536,-7.0589 7.21,-19.0756 9.4629,-22.9805 2.2528,-3.9048 11.7145,-18.3228 14.4179,-21.6269 2.7034,-3.3041 11.4141,-10.2129 11.4141,-10.2129 0,0 0.2234,-0.2617 0.4688,-0.6211 16.6212,12.1814 34.5895,26.952 36.3261,32.1621 3.0038,9.0112 1.2012,-10.8144 1.2012,-10.8144 0,0 -28.0336,-29.1236 -43.916,-41.7149 -0.198,-1.2244 -5.4591,-33.9782 -3.543,-49.74999 1.9525,-16.07006 4.5068,-28.53555 6.6094,-36.04492 2.1026,-7.50938 7.0586,-18.32222 8.5605,-21.17578 1.5019,-2.85357 -1.9531,-4.50586 -1.9531,-4.50586 0,0 -13.0651,19.52402 -17.8711,45.95703 -4.7651,26.20837 4.0295,61.91282 4.1797,62.51952 -2.4406,-1.681 -4.41,-2.7441 -5.5332,-2.7441 -7.8097,0 -43.85474,-22.2276 -53.46675,-25.8321 -9.612,-3.6045 -28.235,-6.60818 -40.25,-14.41793 -6.44325,-4.18811 -10.23979,-6.5646 -14.95313,-9.63867 0.007,0.002 0.0859,0.0254 0.0859,0.0254 0,0 -10.06405,-29.28535 -9.76367,-36.64453 0.30037,-7.35919 -1.65113,-20.57635 -0.75,-27.93555 0.90113,-7.35919 1.35205,-9.76231 3.15429,-17.42187 1.80226,-7.65957 4.65511,-12.0153 5.25586,-13.2168 0.36231,-0.7246 -0.67145,-1.83852 -1.56836,-2.64648 10.5165,3.89829 21.9638,6.35716 27.55078,7.7539 9.47436,2.36859 39.28906,12.87198 49.92383,15.47461 -1.98839,2.28986 -17.60583,21.21084 -17.18359,50.90821 0.45056,31.68957 11.71484,54.21681 11.71484,54.21681 l 2.25391,1.2031 c 0,0 -12.91721,-32.74251 -9.46289,-61.8789 3.45432,-29.13639 15.16992,-43.4043 15.16992,-43.4043 l -0.81445,-0.58203 c 10.71461,2.79628 33.33571,12.35541 40.31251,14.09961 7.209,1.80225 46.2578,17.42188 46.2578,17.42188 l -0.5996,-12.61524 c 0,0 -12.0527,-4.32619 -28.8496,-10.21289 -0.054,-0.90066 -2.1758,-37.00289 2.8672,-53.4668 5.1064,-16.67082 25.2304,-63.52929 25.2304,-63.52929 l -0.4238,-4.24219 c 3.3133,0.0112 0.875,-12.73047 0.875,-12.73047 0,0 -145.38246,-4.50456 -153.79296,-2.10156 -0.89957,0.25702 -2.20282,0.10558 -3.73047,-0.26758 0.29125,-0.46485 0.60594,-1.74451 0.12695,-5.28906 -0.75093,-5.55694 -0.60148,-12.91584 0.9004,-17.12109 1.50187,-4.20525 10.36328,-18.02344 10.36328,-18.02344 l -0.13282,-0.0352 c 20.16866,2.19427 45.92222,4.4662 67.43942,4.88867 -1.18346,2.15567 -5.74485,10.99455 -4.82809,17.67383 1.05132,7.65957 5.85739,17.72266 5.85739,17.72266 l 1.8028,0.45117 c 0,0 -4.50649,-12.01591 -4.95706,-13.66797 -0.45056,-1.65207 -0.60116,-6.45833 -0.30078,-8.86133 0.30037,-2.403 2.40304,-6.00581 2.85354,-8.85937 0.3208,-2.03187 0.1097,-3.6668 -0.039,-4.44922 11.9707,0.22333 22.5035,-0.1334 29.7774,-1.4082 29.1363,-5.10638 49.5605,-6.91016 49.5605,-6.91016 v -2.70313 c 0,0 -52.5651,6.30827 -66.082,7.50977 -2.4237,0.21544 -5.9441,0.36311 -9.8145,0.47852 -0.3483,-0.16719 -0.6992,-0.32813 -0.6992,-0.32813 0,0 -9.31038,-6.00685 -13.51563,-13.9668 -4.20525,-7.95994 -4.35501,-12.4658 -6.9082,-16.07031 -2.55319,-3.6045 -2.70508,-3.1543 -2.70508,-3.1543 0,0 9.01188,28.83496 19.22461,32.43946 1.389,0.49025 2.4245,0.84439 3.2598,1.11914 -17.80116,0.46176 -45.3105,-0.0968 -50.11722,-2.01953 -6.00751,-2.40301 -38.74902,-6.3082 -42.35352,-6.00782 -3.6045,0.30037 -18.02244,-3.00406 -21.62695,-6.00781 -3.6045,-3.00376 -21.32633,-12.01342 -24.33008,-14.7168 -3.00375,-2.70337 -13.81811,-9.91373 -16.52148,-11.11523 -2.70338,-1.20151 -5.70703,-3.00391 -5.70703,-3.00391 z m 158.95698,92.9336 c 37.1764,0.702 73.4719,1.59206 75.9375,3.1875 0.3861,0.24979 0.7117,0.3598 1.0098,0.4082 -1.0323,1.35932 -18.2034,24.28969 -25.3418,55.61133 -7.3592,32.29033 -3.3027,63.98047 -3.3027,63.98047 l 0.9687,1.57617 c -13.8219,-4.84324 -30.6153,-10.62708 -48.3164,-16.54102 -0.8668,-1.52955 -1.914,-3.20898 -1.914,-3.20898 0,0 -10.51363,-27.48331 -9.01176,-48.35937 1.50188,-20.87608 0.30033,-22.22716 2.85352,-29.88672 2.55319,-7.65958 6.60744,-21.17687 8.10934,-23.42969 1.3048,-1.95716 -0.4791,-3.06617 -0.9922,-3.33789 z m -137.63081,50.94726 c 0,0 -14.41708,30.18803 -12.31446,47.91016 2.10263,17.72213 6.00769,45.95711 7.35938,47.45898 1.35169,1.50187 3.9043,2.70313 3.9043,2.70313 0,0 -8.86073,-48.96199 -8.41016,-54.06836 0.45056,-5.10637 2.70334,-16.51981 2.85352,-18.17187 0.15019,-1.65206 6.60742,-25.83204 6.60742,-25.83204 z m -13.06641,110.38868 c -3.75468,0.75093 -35.44374,24.17852 -42.95312,31.98828 -7.50939,7.80975 -22.22852,61.1269 -22.22852,61.1269 0,0 22.37968,-57.52147 25.83398,-61.8769 3.45432,-4.35545 43.10235,-31.98922 39.34766,-31.23828 z m 58.72461,38.44726 c -2.40301,-0.45056 -18.92349,14.56722 -38.89844,38.29692 -19.97495,23.7296 -32.89257,62.7793 -32.89257,62.7793 0,0 6.00801,-9.4611 6.1582,-10.9629 0.15018,-1.5019 16.97198,-33.6434 26.58398,-48.6621 9.61201,-15.0187 42.95313,-40.09966 42.95313,-40.09966 0,0 -1.5013,-0.901 -3.9043,-1.35156 z m 68.59766,27.50002 c 15.75325,8.4413 31.86695,19.455 37.43355,21.3105 3.5687,1.1896 13.8529,7.895 25.1289,16.0586 -0.1658,0.054 -0.3139,0.096 -0.498,0.1621 -5.8573,2.1026 -16.9711,18.0232 -28.8359,35.1446 -11.86487,17.1213 -12.61527,47.4589 -12.61527,47.4589 l -0.45117,0.75 0.72851,1.4571 c -27.17129,-31.6223 -51.85856,-60.085 -51.9414,-62.5821 l -0.24219,-7.3125 c -0.62109,0.1553 17.47477,-46.6352 31.29297,-52.4472 z m -40.90235,68.8027 c 7.55512,-0.3187 31.21597,25.5266 58.44141,59.3145 -0.3919,0.1233 -21.21908,6.726 -33.12109,21.6035 -12.01501,15.0188 -20.42465,43.4043 -21.0254,44.9062 -0.14594,0.3649 -0.0593,0.7832 0.15235,1.2071 -19.75424,-25.8772 -39.20273,-50.5479 -56.35156,-70.8516 0.64658,-1.443 21.10618,-46.6576 51.2207,-56.0664 0.21038,-0.066 0.43905,-0.103 0.68359,-0.1133 z m -109.8125,7.5098 c -3.89725,0.082 -15.41169,2.464 -21.0625,3.1211 -6.45806,0.7509 -27.0332,9.4609 -27.0332,9.4609 0,0 43.8553,-9.6115 48.06055,-9.7617 4.20525,-0.1502 2.85323,-1.9521 1.20117,-2.7031 -0.20651,-0.094 -0.60927,-0.129 -1.16602,-0.1172 z m -248.30078,30.5566 c 0,0 -6.3038,40.5995 -34.53906,76.6446 -28.23527,36.0449 -66.68244,88.3095 -74.49219,106.332 -5.64423,13.0251 -12.84528,25.0682 -19.13281,34.3965 16.83833,-23.6644 83.63303,-116.5008 88.21875,-122.1055 5.40675,-6.6083 28.23534,-45.6567 31.83984,-54.668 3.6045,-9.0112 8.10547,-40.5996 8.10547,-40.5996 z m -128.16406,217.3731 c -3.01478,4.2369 -7.79394,10.9186 -6.69922,9.459 1.99894,-2.6653 4.28689,-5.8801 6.69922,-9.459 z m 156.10352,-211.6172 c -4.5166,25.4571 -9.12253,47.5535 -13.66993,66.914 -0.27389,-0.5873 -0.55419,-1.1073 -0.59765,-1.2812 -0.15019,-0.6007 -5.70666,-7.8105 -9.76172,-10.6641 -4.05507,-2.8536 -16.3711,-7.3593 -16.3711,-7.3593 l 0.1504,3.1543 c 0,0 3.3e-4,2.4033 10.36328,4.6562 10.36294,2.2528 10.06252,10.964 14.41796,13.2168 0.5276,0.2729 0.94367,0.4416 1.27344,0.5312 -15.22126,64.1366 -29.67195,96.1283 -37.46875,108.0528 -7.70135,11.7785 -39.95844,68.2462 -58.46875,103.8379 l -2.20703,-3.5117 c -3.30413,-5.2566 -9.46313,-13.6678 -25.5332,-26.4336 -16.07007,-12.766 -40.09961,-10.8125 -40.09961,-10.8125 l 0.60156,1.6523 c 0,0 2.55203,0.6001 7.8086,0.9004 5.25656,0.3004 24.78157,5.8573 42.35351,21.627 10.948,9.8251 15.30363,14.5148 17.03516,16.6582 -6.01305,11.5649 -10.61073,20.9832 -12.37891,25.8457 -7.209,19.8247 -24.03029,84.1054 -20.42578,123.1543 0.89062,9.6483 3.7348,19.6598 7.625,29.371 l -59.74024,-18.8593 60.7168,21.164 c 0.9686,2.3083 1.97984,4.5933 3.04883,6.8516 -0.33294,0.6294 -0.90379,1.6293 -2.03906,3.0742 -1.65207,2.1026 -16.22045,16.3691 -18.92383,19.2227 -2.70338,2.8536 -61.125,47.3105 -61.125,47.3105 0,0 30.48691,-20.1255 38.14648,-26.2832 7.65957,-6.1577 36.79688,-31.0898 36.79688,-31.0898 l 7.95898,-10.0625 -0.11914,-0.75 c 12.18139,25.1595 29.54839,46.3913 35.11328,50.7636 8.41052,6.6083 25.83204,15.0176 25.83204,15.0176 l -7.8086,-10.8125 c 0,0 -20.42625,-9.0116 -29.4375,-27.6347 -9.01126,-18.6233 -27.03468,-51.0638 -25.23242,-67.8848 1.80225,-16.821 4.80612,-85.3065 17.42187,-114.1426 12.61576,-28.836 43.25518,-88.3108 52.86719,-101.5273 9.612,-13.2165 39.64907,-72.0893 44.45508,-99.1231 4.806,-27.0338 19.22413,-55.2692 17.42188,-63.6797 -1.80225,-8.4105 4.80664,-37.248 4.80664,-37.248 0,0 9.61067,15.02 12.01367,34.2441 l 2.40429,19.2227 c 0,0 2.51581,9.3374 4.69141,25.998 -0.68507,-0.9358 -1.52496,-2.046 -2.43945,-3.3183 -3.45432,-4.806 -21.77735,-13.9688 -21.77735,-13.9688 l -1.35156,4.6563 c 0,0 5.25738,1.9525 12.16602,5.8574 6.90862,3.9049 9.16153,7.6604 13.0664,9.3125 0.28283,0.1196 0.5211,0.2084 0.73828,0.2832 0.84891,7.0588 1.62179,15.1065 2.11524,24.6465 1.80225,34.8435 -0.6022,138.173 -5.4082,154.9941 -4.80601,16.821 -12.01335,98.5232 -13.21485,109.9375 -1.20151,11.4143 0.59944,87.1089 4.80469,99.7246 4.20526,12.6158 9.61328,47.459 9.61328,47.459 l 9.61133,-1.2012 c 0,0 -13.21599,-81.1016 -12.61524,-98.5234 0.60076,-17.4218 -3.60564,-74.4922 0.59961,-96.1191 4.20525,-21.6271 16.82227,-92.5154 16.82227,-111.1387 0,-18.6232 1.80143,-95.5191 -0.60156,-115.3438 -2.403,-19.8247 -10.2119,-56.4709 -13.81641,-69.6875 -3.60451,-13.2164 -22.22851,-40.8515 -22.22851,-40.8515 z m 53.51757,41.0703 c -1.04829,0.025 -1.95268,0.127 -2.65625,0.3262 -5.62853,1.593 -18.26664,5.7336 -20.39062,7.539 -2.12397,1.8054 -2.23047,7.6465 -2.23047,7.6465 l 0.31836,0.5313 c 0,0 15.08101,-9.1336 23.4707,-9.0274 8.3897,0.1062 22.40656,0.4256 25.48633,1.5938 3.07976,1.1682 -0.95583,-5.2032 -1.69922,-5.2032 -0.65046,0 -14.96075,-3.579 -22.29883,-3.4062 z m -107.13476,38.8301 c 0,0 -1.05062,3.3031 1.95312,4.9551 3.00376,1.652 9.31042,5.107 10.66211,6.3085 1.35169,1.2015 7.06011,4.5059 2.4043,-1.3515 -4.65582,-5.8573 -15.01953,-9.9121 -15.01953,-9.9121 z m 363.33789,9.4004 c -9.48921,0.095 -17.5689,5.9737 -32.77539,11.3242 -16.22026,5.7071 -24.17969,32.7422 -24.17969,32.7422 l 0.90039,1.6523 c 0,0 3.90615,-8.8627 9.61328,-14.2695 5.70713,-5.4067 9.76257,-12.6151 14.71875,-16.8203 4.9562,-4.2053 24.63028,-10.2122 28.53516,-11.1133 3.90488,-0.9011 18.77344,-3.4551 18.77344,-3.4551 0,0 -3.30503,0.7509 -13.66797,0 -0.64769,-0.047 -1.28536,-0.067 -1.91797,-0.061 z m -206.40039,6.1933 c 1.22849,-0.059 2.26078,-0.05 3.01172,0.025 4.99692,0.4997 29.91163,33.9619 52.33789,75.2402 -1.12605,-1.4633 -2.62651,-3.1505 -4.12696,-4.0507 -3.00375,-1.8023 -17.12232,-1.6519 -29.58789,0.1504 -11.16895,1.6147 -25.49512,13.3952 -28.375,15.8457 -7.83966,-31.7218 -17.90933,-72.3045 -18.48242,-75.17 -1.57697,-7.8848 16.62324,-11.6303 25.22266,-12.041 z m -116.83789,25.1074 c 0,0 -3.15407,6.0072 1.35156,7.0586 4.50562,1.0513 9.91283,1.8009 16.2207,4.8047 6.30789,3.0037 10.36327,9.3123 17.57227,13.5176 2.02698,1.1824 3.15477,2.0077 3.73828,2.4981 -0.44206,-0.5689 -1.04492,-1.5961 -1.33594,-3.0997 -0.90112,-4.6558 -6.45782,-8.8598 -14.26758,-15.0175 -7.80975,-6.1577 -23.27929,-9.7618 -23.27929,-9.7618 z m 38.88281,27.879 c 0.5419,0.6972 0.82157,0.6904 0,0 z m 223.06445,-5.1504 c 3.37946,6.6239 7.27899,13.9706 11.09375,20.0742 9.01126,14.4181 18.02261,30.6386 24.63086,37.8476 6.60826,7.2091 12.01657,22.8281 22.83008,37.2461 10.8135,14.418 19.22345,30.0372 27.0332,40.25 7.80976,10.2128 7.8092,13.8168 27.03321,37.2461 5.90313,7.1945 10.40305,13.8024 14.1875,19.8555 -0.34646,-0.2658 -0.72011,-0.4972 -1.1211,-0.6309 -1.80226,-0.6007 -28.0855,2.4037 -53.76758,12.0157 -25.68208,9.6119 -44.15429,50.914 -44.15429,50.914 l 1.14453,2.5742 c -11.4477,-22.7768 -51.13817,-105.7158 -56.26367,-115.9668 -4.07881,-8.1576 -34.10254,-75.708 -51.71875,-113.6035 0.21001,-0.4401 0.86189,-1.5594 2.30664,-2.041 1.80225,-0.6008 0.29979,0 3.90429,-5.8574 3.6045,-5.8573 14.56849,-9.6116 24.78125,-14.1172 10.21275,-4.5056 45.8086,-5.4062 45.8086,-5.4062 0,0 1.21823,-0.124 2.27148,-0.4004 z m -192.32422,17.4355 c -7.582,0.081 -17.98828,3.8223 -17.98828,3.8223 0,0 2.9727,3.3969 4.67188,2.7597 1.69918,-0.6372 11.68317,-3.1855 14.86914,-3.1855 3.18595,0 16.99082,4.248 21.45117,4.248 4.46035,0 4.67278,0.2129 1.69922,-1.4863 -2.97357,-1.6991 -14.23016,-4.6729 -21.66406,-5.9473 -0.92924,-0.1593 -1.95592,-0.2225 -3.03907,-0.2109 z m 81.90039,9.4238 c 2.0158,0.021 3.88441,0.086 5.42383,0.1231 5.7702,0.1407 15.43151,2.7026 16.66602,3.0351 4.0407,7.5351 8.00811,15.2239 11.71875,23.0977 21.6285,45.8947 73.04368,156.9135 90.66797,193.0137 -1.1774,-1.572 -2.67717,-3.1884 -4.60938,-4.6778 -7.209,-5.557 -37.84894,-12.6163 -59.02539,-12.0156 -20.78687,0.5898 -48.64982,17.1512 -49.67383,17.7637 -5.6705,-18.6386 -10.46268,-34.7864 -11.60156,-40.291 -2.37342,-11.4716 -22.82083,-94.003 -39.625,-161.9649 1.33881,-0.9133 4.08732,-2.9345 5.53125,-5.0449 1.95244,-2.8536 12.1651,-6.458 17.27149,-10.0625 3.82978,-2.7034 11.20846,-3.0399 17.25585,-2.9766 z M 531.0625,1416.502 c -13.43042,-0.1248 -24.92969,1.871 -24.92969,1.871 0,0 -7.80982,17.1214 -1.50195,12.9161 6.30788,-4.2052 22.52796,-1.8025 34.54297,-4.5059 12.01501,-2.7034 26.1331,9.0124 39.34961,13.8184 13.2165,4.806 37.54687,35.1425 37.54687,35.1425 0,0 2.70386,-1.8017 1.80274,-3.9043 -0.90113,-2.1026 -15.02002,-17.122 -16.82227,-20.7265 -1.80225,-3.6045 -20.72481,-18.022 -39.64844,-28.5352 -8.27909,-4.5995 -19.89396,-5.9791 -30.33984,-6.0761 z m 137.57422,56.2382 c -15.61951,0 -42.95508,16.8223 -42.95508,16.8223 l 2.4043,7.8086 c 0,0 16.51926,-8.1097 26.43164,-14.1172 9.91238,-6.0075 31.5392,3.3047 41.75195,3.3047 10.21276,0 45.05664,24.0293 45.05664,24.0293 l -5.10547,-6.9082 c 0,0 -31.8404,-21.6266 -35.14453,-22.8281 -3.30412,-1.2015 -16.81994,-8.1114 -32.43945,-8.1114 z" />
    <path
       style="opacity:0.7;fill:url(#linearGradient88);stroke-width:49.3;paint-order:stroke fill markers"
       d="m 344.93359,1728.9159 28.13275,147.83 c 0,0 107.92594,-74.7652 129.10356,-88.3587 21.17762,-13.5934 69.60426,-43.3291 85.74647,-47.577 16.14221,-4.248 45.02828,-25.7419 45.02828,-25.7419 0,0 -46.48571,-21.9628 -72.83157,-37.9774 -26.34587,-16.0145 -59.68754,-49.0558 -59.68754,-49.0558 v 0 c 0,0 -32.5155,11.1966 -60.33785,35.4624 -27.82235,24.2657 -33.6688,19.5406 -46.14526,30.5852 -12.47646,11.0447 -51.4166,23.4882 -50.95398,25.2622 0.46262,1.7739 1.94514,9.571 1.94514,9.571 z"
       id="path86" />
    <path
       style="opacity:0.7;fill:url(#linearGradient93);stroke-width:49.3;paint-order:stroke fill markers"
       d="m 684.76965,1732.4389 c 0,0 -35.76483,6.6721 -59.08754,26.2127 -23.32271,19.5405 -30.96902,14.443 -38.61533,22.0893 -7.64631,7.6463 -24.81895,25.4877 -32.79964,38.2316 -7.98068,12.7438 -36.01716,5.0975 -36.01716,5.0975 0,0 15.46356,5.9471 21.75002,11.0447 6.28646,5.0975 10.15117,22.9415 20.11308,41.6312 9.9619,18.6897 15.05944,43.2541 15.05944,43.2541 h 213.01274 c 5.6069,5.9117 17.62698,-73.0099 16.22027,-74.4931 -10e-6,0 -2.60869,-6.7999 1.39903,-22.624 4.00771,-15.8241 11.81744,-57.2759 11.81744,-57.2759 v -0.8704 c -52.22349,-18.0517 -95.58742,-27.9732 -132.85235,-32.2977 z"
       id="path87"
       sodipodi:nodetypes="cssscssccssccc" />
  </g>
  <g
     inkscape:groupmode="layer"
     id="layer1"
     inkscape:label="face"
     style="display:inline;opacity:1">
    <path
       style="display:inline;opacity:1;fill:url(#radialGradient3);paint-order:stroke fill markers"
       d="m 65.888992,502.03772 c 1.520248,53.66356 16.063137,106.63238 32.476357,157.74691 18.421921,57.37009 49.116171,101.62627 74.968781,128.92908 29.3414,30.9873 48.99146,74.43238 78.18133,107.91437 30.69085,35.20367 44.87924,51.20388 101.19743,96.90263 15.61256,12.66859 46.25001,45.85579 73.19842,62.29309 48.29942,29.4606 90.0838,57.2468 137.80316,69.344 27.99201,7.0962 57.95588,10.545 84.73956,1.5578 32.13967,-10.7844 58.92717,-36.2518 79.97682,-62.8257 31.87066,-40.2348 52.95895,-89.72497 64.87683,-139.65037 11.48473,-48.1109 7.60642,-98.90914 5.00804,-148.30353 -2.17576,-41.3606 -9.94997,-82.27881 -17.19947,-123.05721 C 770.90514,595.45145 762.24672,537.26071 736.3223,480.07664 702.40292,405.25728 681.5925,340.88999 612.10782,267.22073 c -39.38717,-41.75918 -91.1354,-78.04482 -147.50943,-88.86827 -88.59483,-17.00964 -186.8605,6.11606 -258.29326,58.25027 -54.48502,39.76514 -96.34028,99.44811 -124.094374,154.74221 -16.731128,33.3332 -17.377923,73.41119 -16.321764,110.69278 z"
       id="path2"
       sodipodi:nodetypes="assssssaaaassssssa" />
    <path
       style="display:inline;opacity:0.395146;fill:url(#radialGradient5);paint-order:stroke fill markers"
       d="m 65.888992,502.03772 c 1.520248,53.66356 16.063137,106.63238 32.476357,157.74691 18.421921,57.37009 49.116171,101.62627 74.968781,128.92908 29.3414,30.9873 48.99146,74.43238 78.18133,107.91437 30.69085,35.20367 44.87924,51.20388 101.19743,96.90263 15.61256,12.66859 46.25001,45.85579 73.19842,62.29309 48.29942,29.4606 90.0838,57.2468 137.80316,69.344 27.99201,7.0962 57.95588,10.545 84.73956,1.5578 32.13967,-10.7844 58.92717,-36.2518 79.97682,-62.8257 31.87066,-40.2348 52.95895,-89.72497 64.87683,-139.65037 11.48473,-48.1109 7.60642,-98.90914 5.00804,-148.30353 -2.17576,-41.3606 -9.94997,-82.27881 -17.19947,-123.05721 C 770.90514,595.45145 762.24672,537.26071 736.3223,480.07664 702.40292,405.25728 681.5925,340.88999 612.10782,267.22073 c -39.38717,-41.75918 -91.1354,-78.04482 -147.50943,-88.86827 -88.59483,-17.00964 -186.8605,6.11606 -258.29326,58.25027 -54.48502,39.76514 -96.34028,99.44811 -124.094374,154.74221 -16.731128,33.3332 -17.377923,73.41119 -16.321764,110.69278 z"
       id="path3"
       sodipodi:nodetypes="assssssaaaassssssa" />
    <path
       style="display:inline;opacity:0.37;fill:url(#radialGradient6);paint-order:stroke fill markers"
       d="m 65.888992,502.03772 c 1.520248,53.66356 16.063137,106.63238 32.476357,157.74691 18.421921,57.37009 49.116171,101.62627 74.968781,128.92908 29.3414,30.9873 48.99146,74.43238 78.18133,107.91437 30.69085,35.20367 44.87924,51.20388 101.19743,96.90263 15.61256,12.66859 46.25001,45.85579 73.19842,62.29309 48.29942,29.4606 90.0838,57.2468 137.80316,69.344 27.99201,7.0962 57.95588,10.545 84.73956,1.5578 32.13967,-10.7844 58.92717,-36.2518 79.97682,-62.8257 31.87066,-40.2348 52.95895,-89.72497 64.87683,-139.65037 11.48473,-48.1109 7.60642,-98.90914 5.00804,-148.30353 -2.17576,-41.3606 -9.94997,-82.27881 -17.19947,-123.05721 C 770.90514,595.45145 762.24672,537.26071 736.3223,480.07664 702.40292,405.25728 681.5925,340.88999 612.10782,267.22073 c -39.38717,-41.75918 -91.1354,-78.04482 -147.50943,-88.86827 -88.59483,-17.00964 -186.8605,6.11606 -258.29326,58.25027 -54.48502,39.76514 -96.34028,99.44811 -124.094374,154.74221 -16.731128,33.3332 -17.377923,73.41119 -16.321764,110.69278 z"
       id="path5"
       sodipodi:nodetypes="assssssaaaassssssa" />
    <path
       style="display:inline;opacity:0.395146;fill:url(#radialGradient7);paint-order:stroke fill markers"
       d="m 65.888992,502.03772 c 1.520248,53.66356 16.063137,106.63238 32.476357,157.74691 18.421921,57.37009 49.116171,101.62627 74.968781,128.92908 29.3414,30.9873 48.99146,74.43238 78.18133,107.91437 30.69085,35.20367 44.87924,51.20388 101.19743,96.90263 15.61256,12.66859 46.25001,45.85579 73.19842,62.29309 48.29942,29.4606 90.0838,57.2468 137.80316,69.344 27.99201,7.0962 57.95588,10.545 84.73956,1.5578 32.13967,-10.7844 58.92717,-36.2518 79.97682,-62.8257 31.87066,-40.2348 52.95895,-89.72497 64.87683,-139.65037 11.48473,-48.1109 7.60642,-98.90914 5.00804,-148.30353 -2.17576,-41.3606 -9.94997,-82.27881 -17.19947,-123.05721 C 770.90514,595.45145 762.24672,537.26071 736.3223,480.07664 702.40292,405.25728 681.5925,340.88999 612.10782,267.22073 c -39.38717,-41.75918 -91.1354,-78.04482 -147.50943,-88.86827 -88.59483,-17.00964 -186.8605,6.11606 -258.29326,58.25027 -54.48502,39.76514 -96.34028,99.44811 -124.094374,154.74221 -16.731128,33.3332 -17.377923,73.41119 -16.321764,110.69278 z"
       id="path7"
       sodipodi:nodetypes="assssssaaaassssssa" />
    <path
       style="display:inline;opacity:0.395146;fill:url(#radialGradient9);paint-order:stroke fill markers"
       d="m 65.888992,502.03772 c 1.520248,53.66356 16.063137,106.63238 32.476357,157.74691 18.421921,57.37009 49.116171,101.62627 74.968781,128.92908 29.3414,30.9873 48.99146,74.43238 78.18133,107.91437 30.69085,35.20367 44.87924,51.20388 101.19743,96.90263 15.61256,12.66859 46.25001,45.85579 73.19842,62.29309 48.29942,29.4606 90.0838,57.2468 137.80316,69.344 27.99201,7.0962 57.95588,10.545 84.73956,1.5578 32.13967,-10.7844 58.92717,-36.2518 79.97682,-62.8257 31.87066,-40.2348 52.95895,-89.72497 64.87683,-139.65037 11.48473,-48.1109 7.60642,-98.90914 5.00804,-148.30353 -2.17576,-41.3606 -9.94997,-82.27881 -17.19947,-123.05721 C 770.90514,595.45145 762.24672,537.26071 736.3223,480.07664 702.40292,405.25728 681.5925,340.88999 612.10782,267.22073 c -39.38717,-41.75918 -91.1354,-78.04482 -147.50943,-88.86827 -88.59483,-17.00964 -186.8605,6.11606 -258.29326,58.25027 -54.48502,39.76514 -96.34028,99.44811 -124.094374,154.74221 -16.731128,33.3332 -17.377923,73.41119 -16.321764,110.69278 z"
       id="path9"
       sodipodi:nodetypes="assssssaaaassssssa" />
    <path
       style="display:inline;opacity:0.37;fill:url(#radialGradient10);paint-order:stroke fill markers"
       d="m 65.888992,502.03772 c 1.520248,53.66356 16.063137,106.63238 32.476357,157.74691 18.421921,57.37009 49.116171,101.62627 74.968781,128.92908 29.3414,30.9873 48.99146,74.43238 78.18133,107.91437 30.69085,35.20367 44.87924,51.20388 101.19743,96.90263 15.61256,12.66859 46.25001,45.85579 73.19842,62.29309 48.29942,29.4606 90.0838,57.2468 137.80316,69.344 27.99201,7.0962 57.95588,10.545 84.73956,1.5578 32.13967,-10.7844 58.92717,-36.2518 79.97682,-62.8257 31.87066,-40.2348 52.95895,-89.72497 64.87683,-139.65037 11.48473,-48.1109 7.60642,-98.90914 5.00804,-148.30353 -2.17576,-41.3606 -9.94997,-82.27881 -17.19947,-123.05721 C 770.90514,595.45145 762.24672,537.26071 736.3223,480.07664 702.40292,405.25728 681.5925,340.88999 612.10782,267.22073 c -39.38717,-41.75918 -91.1354,-78.04482 -147.50943,-88.86827 -88.59483,-17.00964 -186.8605,6.11606 -258.29326,58.25027 -54.48502,39.76514 -96.34028,99.44811 -124.094374,154.74221 -16.731128,33.3332 -17.377923,73.41119 -16.321764,110.69278 z"
       id="path10"
       sodipodi:nodetypes="assssssaaaassssssa" />
    <path
       style="display:inline;opacity:0.37;fill:url(#radialGradient11);paint-order:stroke fill markers"
       d="m 65.888992,502.03772 c 1.520248,53.66356 16.063137,106.63238 32.476357,157.74691 18.421921,57.37009 49.116171,101.62627 74.968781,128.92908 29.3414,30.9873 48.99146,74.43238 78.18133,107.91437 30.69085,35.20367 44.87924,51.20388 101.19743,96.90263 15.61256,12.66859 46.25001,45.85579 73.19842,62.29309 48.29942,29.4606 90.0838,57.2468 137.80316,69.344 27.99201,7.0962 57.95588,10.545 84.73956,1.5578 32.13967,-10.7844 58.92717,-36.2518 79.97682,-62.8257 31.87066,-40.2348 52.95895,-89.72497 64.87683,-139.65037 11.48473,-48.1109 7.60642,-98.90914 5.00804,-148.30353 -2.17576,-41.3606 -9.94997,-82.27881 -17.19947,-123.05721 C 770.90514,595.45145 762.24672,537.26071 736.3223,480.07664 702.40292,405.25728 681.5925,340.88999 612.10782,267.22073 c -39.38717,-41.75918 -91.1354,-78.04482 -147.50943,-88.86827 -88.59483,-17.00964 -186.8605,6.11606 -258.29326,58.25027 -54.48502,39.76514 -96.34028,99.44811 -124.094374,154.74221 -16.731128,33.3332 -17.377923,73.41119 -16.321764,110.69278 z"
       id="path11"
       sodipodi:nodetypes="assssssaaaassssssa"
       sodipodi:insensitive="true" />
    <path
       style="display:inline;opacity:0.0656094;fill:#ffffff;fill-opacity:1;paint-order:stroke fill markers"
       d="M 688.49855,375.03455 C 598.82851,210.69147 508.21529,187.52413 464.59839,178.35246 c -78.45151,-16.49661 -182.90333,3.39432 -258.29326,58.25027 0,0 91.58064,-45.05729 226.05034,-20.61454 99.18068,18.02822 256.14308,159.04636 256.14308,159.04636 z"
       id="path54"
       sodipodi:nodetypes="sssss" />
    <path
       style="display:inline;opacity:0.3;fill:#000000;paint-order:stroke fill markers"
       d="m 251.51546,896.62808 c 28.97212,36.63118 44.87924,51.20388 101.19743,96.90263 15.61256,12.66859 46.25001,45.85579 73.19842,62.29309 48.29942,29.4606 90.0838,57.2468 137.80316,69.344 27.99201,7.0962 36.847,6.4364 84.73956,1.5578 0,0 -142.64032,-38.7118 -165.58805,-54.3631 C 408.88451,1021.9042 251.51546,896.62808 251.51546,896.62808 Z"
       id="path55"
       sodipodi:nodetypes="sssssss" />
  </g>
  <g
     inkscape:groupmode="layer"
     id="layer4"
     inkscape:label="web face"
     style="display:inline">
    <path
       id="path28"
       style="display:inline;opacity:0.7;fill:url(#radialGradient30);paint-order:stroke fill markers"
       d="m 429.90039,172.83594 -8.83984,0.36914 c 8.45095,34.08363 16.05119,71.12125 22.3164,109.18359 -72.01382,45.00007 -141.58656,58.07805 -209.35547,47.55664 l -1.32226,-1.21289 c -12.17846,-38.84498 -17.4972,-74.66147 -8.63086,-104.15625 l -10.7793,7.08008 c -8.94676,26.05213 -2.32762,65.97305 10.61719,108.39844 -25.76873,64.26182 -65.06356,108.4288 -114.45898,137.58984 C 97.421046,449.61824 88.646806,419.20131 84.550781,386.02148 l -6.222656,16.32227 c 6.486464,36.71945 16.859133,68.90612 29.904295,97.23828 6.01339,46.59614 3.2466,87.37563 -6.23242,123.70899 -11.155332,-13.20551 -20.295841,-26.63448 -26.125,-39.87696 15.016744,56.01813 88.24053,108.14288 165.31836,137.82813 -52.64189,-21.86425 -104.24566,-57.55936 -137.27344,-95.67383 8.76708,-30.41729 14.00243,-66.07673 8.27344,-118.00195 36.05559,73.37847 90.20625,119.88071 140.46289,151.1289 0.23242,23.22019 -3.40858,44.09893 -10.69727,62.82617 -0.25474,-0.0976 -0.51096,-0.18121 -0.76562,-0.27929 0.25012,0.10388 0.49789,0.22877 0.74805,0.33203 -5.29954,13.60142 -12.40908,26.13746 -21.31836,37.63867 l 2.18359,0.17578 c 8.66677,-10.51359 16.65716,-22.23994 22.69922,-36.37305 18.83349,7.54324 37.6332,13.10999 55.7207,16.49805 -18.2218,-4.02753 -36.99153,-9.70218 -55.64844,-16.66797 7.00797,-16.46159 11.08477,-36.51441 10.04102,-62.32226 4.20985,2.57653 8.40139,5.08772 12.53516,7.46094 60.67752,34.83532 106.3489,53.81554 97.22461,72.11132 -18.8997,4.48886 -40.91509,3.77066 -64.15235,-0.58203 23.47171,5.18791 45.9831,7.82824 65.82227,7.13672 L 204.36328,821.5625 386.47461,761.94922 c -11.51446,64.28092 -13.10239,117.77908 -6.71484,167.875 -1.83757,-3.53655 -4.23313,-7.54006 -7.55079,-11.54492 -8.96033,-10.81636 -26.39648,-16.94922 -26.39648,-16.94922 l -5.90234,-0.96485 c 0,0 6.11687,6.80883 20.71093,15.54883 14.30506,8.56691 15.84933,16.43911 20.14844,20.97852 5.30675,37.00905 14.91045,72.35112 28.16406,109.00002 l 16.97852,9.9316 c -6.5048,-12.7808 -12.07456,-28.058 -16.90039,-44.6074 1.70255,2.3375 4.48723,4.5736 8.94336,4.3613 9.12129,-0.4346 18.88739,7.2932 35.35937,12.0254 16.47201,4.7322 40.45664,21.5345 47.53907,26.7012 2.99458,2.1846 5.01685,3.0188 6.16796,2.9297 7.73513,18.6048 16.04103,37.6978 25.57032,57.6758 l 15.24023,5.6035 c -9.11268,-18.3837 -19.67509,-41.8585 -30.44336,-66.8477 4.05227,-3.6336 12.01545,-11.7618 20.29297,-17.918 9.67165,-7.1927 45.26301,-27.1159 55.76367,-35.3027 10.50065,-8.18671 78.70144,-23.89842 80.91211,-23.89842 0.31013,0 0.66029,-0.18369 1.01172,-0.29883 24.33267,25.31935 48.46366,50.54315 66.42969,69.32615 l 5.33594,-8.2226 c -17.94509,-19.555 -50.61629,-49.81026 -67.80665,-67.68949 0.642,-7.67236 1.10723,-23.04364 1.72852,-26.44141 0.96331,-5.26828 7.82736,-55.67982 12.88477,-64.15039 5.05739,-8.47058 12.28311,-32.02313 21.61523,-40.75195 2.42709,-2.27019 3.96683,-4.25763 4.99414,-6.00195 24.27329,13.40575 47.40682,27.99986 67.3125,43.96093 l 0.97266,-10.31836 c -6.2865,-5.36644 -13.12604,-10.68773 -20.36914,-15.94531 0.16002,-0.25409 0.15621,-0.0926 0.34375,-0.41797 4.23871,-7.35336 5.47334,-11.70271 6.11718,-18.27929 0.64385,-6.57661 0.2144,-9.26955 -0.21484,-16.9336 -0.42924,-7.66407 -2.09308,-12.37656 -1.44922,-18.84961 0.6317,-6.35072 -8.43221,-131.38857 -8.78125,-136.20117 7.35203,0.759 13.88929,1.8967 18.44141,3.68945 l -1.80664,-10.13281 c -16.1836,-2.27157 -35.75877,-3.0795 -54.82617,-2.26172 -0.19574,-0.18286 -0.79493,-0.81836 -0.79493,-0.81836 0,0 -18.69151,-25.70843 -20.33203,-33.80468 -1.6305,-8.04678 -41.1565,-98.61868 -41.64258,-99.73243 19.4454,-23.56422 32.57484,-69.87681 44.87891,-99.60546 l -5.84375,-12.84571 c -6.98044,24.32779 -15.2965,46.79634 -24.48828,67.94531 -35.08588,-27.33571 -62.66976,-68.53162 -92.75195,-113.20898 -1.23176,-23.39064 -0.26049,-54.75852 2.95898,-78.67773 2.03632,2.90643 46.64503,66.60655 50.42188,77.22851 3.86313,10.86465 22.32031,26.99135 26.98828,34.76563 4.66794,7.77425 22.42773,36.41015 22.42773,36.41015 l 1.23438,-5.11914 c 0,0 -56.55119,-76.29356 -58.80469,-87.1582 -2.19286,-10.57223 -40.13594,-53.97595 -42.23242,-56.37109 1.74171,-12.84845 4.05812,-23.56109 7.04297,-29.11329 l -6.28125,-5.74804 c -5.26987,4.86149 -8.74251,14.16008 -10.99415,25.92968 C 556.0915,238.83051 523.86907,210.15938 459.5293,191.53125 l -3.4336,4.26758 c 55.59226,15.19876 94.51243,43.24304 121.19336,80.71289 -3.5486,23.60256 -3.00792,54.48079 -1.3789,82.09961 -55.16777,-14.95367 -94.23882,-41.69955 -121.26172,-77.27149 -6.26905,-32.94652 -14.22915,-68.72139 -24.74805,-108.5039 z m 14.7207,117.37304 c 13.36687,84.13914 19.60436,172.70041 11.91602,246.72266 -44.48216,19.9168 -86.43982,23.89944 -126.4375,15.52148 -20.13734,-40.45787 -38.46684,-81.96699 -49.89258,-107.1289 -16.9834,-37.40106 -33.57475,-74.67637 -45.17383,-109.75 58.01425,10.5525 122.40515,7.2876 209.58789,-45.36524 z m 11.9336,0.66407 c 22.64424,29.33487 55.90812,55.5114 118.88476,72.85156 l 0.76953,-0.91016 c 0.69094,10.87892 1.44144,21.81498 2.16211,30.375 8.79419,104.45554 -47.80102,201.54271 -101.0332,297.32617 -6.38993,-2.96859 -16.67969,-4.69178 -23.76758,-14.51953 -7.67335,-40.07423 5.85428,-77.17382 13.96875,-138.62695 1.19275,-0.57768 2.28398,-0.97452 3.49024,-1.57617 l -0.0332,-0.41992 c 12.88448,15.52087 32.26101,23.87973 70.92579,10.95507 l 2.2207,-4.95117 c -35.36894,12.56741 -59.38549,6.22659 -75.02344,-14.07031 l -0.49023,1.36914 c 6.4532,-54.54462 8.02685,-127.82695 -12.07422,-237.80273 z M 227,349.84375 c 14.2835,44.00782 34.53318,89.77194 51.01562,124.99219 15.32059,32.73756 29.9704,60.58049 43.42774,85.36328 -11.46414,39.90201 -32.0612,69.23101 -60.31445,90.07422 C 200.17826,610.91474 144.14063,555.42375 111.47266,482.43359 154.95642,458.80266 195.61619,423.49016 227,349.84375 Z m 358.57227,16.45898 c 22.29285,39.3537 49.14742,72.69398 90.16796,110.60157 -38.35619,85.97944 -91.22734,149.90653 -129.93359,224.61132 35.00333,-111.76155 46.99532,-219.83151 39.76563,-335.21289 z m 77.91211,150.02149 c 0.63389,1.9595 38.72595,119.55515 56.73828,132.38086 1.62846,1.15955 1.88207,1.23172 3.04296,2.01953 -20.82127,1.09381 -40.77192,4.22129 -54.66796,9.84375 l -47.49024,-18.06641 41.48633,-124.9707 c 0.30922,-0.35875 0.58457,-0.8368 0.89063,-1.20703 z M 456.0293,542.57031 c -5.8808,51.33685 -18.6541,95.24318 -40.79688,124.93555 -21.57593,1.07394 -53.87453,-52.91144 -82.80273,-110.47461 34.05499,7.85526 72.58589,7.77255 123.59961,-14.46094 z m -132.63282,21.20703 c 35.05408,64.31634 59.37369,103.63248 48.73633,123.05664 -18.58571,5.59897 -30.80013,6.38526 -54.73437,-5.06445 -18.16772,-8.6911 -36.384,-18.82599 -54.23633,-30.23047 24.74271,-16.6493 47.88062,-39.98328 60.23437,-87.76172 z m 421.45704,94.56836 c 7.02267,-0.0434 13.38128,0.3519 19.31054,0.94922 -0.81734,13.06454 3.0132,100.69155 4.37891,111.38281 1.44868,11.34074 1.44853,28.22255 1.7168,38.00977 0.26827,9.78721 2.84283,21.69631 0.0527,29.30859 -1.34657,3.67395 -2.67445,8.12552 -3.26953,11.01563 -14.62277,-10.51776 -30.89814,-20.76885 -48.12891,-30.55469 -0.17393,-1.64179 -0.40625,-3.07031 -0.40625,-3.07031 0,0 -6.22769,-14.68448 -7.22656,-35.3457 -0.99887,-20.66122 -1.76258,-60.21247 3.4668,-74.0879 5.22935,-13.87541 6.75598,-24.81318 12.33789,-34.18164 3.09864,-5.20063 4.74419,-9.6444 5.74414,-12.96484 4.06378,-0.21405 8.14549,-0.43695 12.02344,-0.46094 z m -13.58985,0.52149 c -6.15554,10.57711 -23.22981,41.75928 -23.86133,64.91211 -0.76384,28.00405 -6.3456,68.21295 4.17188,89.27929 0.42967,0.86063 0.70017,1.27802 1.08398,2.00977 -22.73462,-12.6148 -46.73461,-24.39763 -70.49609,-34.95313 0.0187,-1.88151 0.0263,-3.83432 0.0371,-6.00781 0.0558,-11.24054 -3.51563,-49.45898 -3.51563,-49.45898 0,0 -5.02087,32.57085 -0.61328,51.65234 0.26373,1.14172 0.36679,1.28344 0.59766,2.22266 -19.0601,-8.38291 -37.83768,-15.98523 -55.41406,-22.52539 l -15.35352,-50.24219 97.51367,-34.07813 c 17.42409,-7.11273 42.58024,-11.4502 65.84961,-12.81054 z m -247.71679,78.25586 c 5.48545,-0.22465 17.93207,3.57374 50.73242,15.41797 26.98659,9.74487 64.3754,23.33295 103.9414,40.16796 -0.0381,0.0154 -0.057,0.009 -0.0957,0.0254 -5.39452,2.24663 -14.95842,7.28812 -30.71289,31.34374 -11.18537,17.07906 -12.50328,45.20159 -12.38477,60.61329 C 524.01453,815.75559 478.88689,776.48868 474.58203,745.8418 c 4.95542,-4.24641 3.47939,-8.49411 8.96485,-8.71875 z m -35.52735,27.17773 c 13.04532,-1.78432 75.73322,57.63252 143.39453,125.84375 -1.60065,-0.0419 -2.80211,-0.11185 -5.18359,-0.0977 -23.12634,0.1378 -52.38979,15.48158 -66.76563,19.8457 -11.39792,3.4601 -34.35054,24.94891 -44.92773,35.16992 -29.30487,-83.15004 -48.40741,-161.9336 -28.28516,-179.82031 0.4158,-0.52711 1.00749,-0.83745 1.76758,-0.94141 z m -45.14258,5.55274 c 1.73198,-0.0984 3.60013,0.67333 5.60157,2.40625 20.4985,-2.05074 24.46995,63.24817 58.07812,172.93164 -0.47283,-0.82171 -0.88614,-1.65771 -1.49219,-2.42969 -3.48754,-4.44244 -14.16539,-10.33312 -36.86133,-16.70703 -20.51411,-5.7612 -33.12193,2.37301 -35.46874,4.05664 -10.34629,-80.14761 -6.27836,-159.32465 10.14257,-160.25781 z m 240.51172,25.06445 c 24.42561,10.52911 49.34416,22.32074 73.41602,35.41992 -8.3968,9.81451 -24.8654,30.71507 -29.78711,49.35352 -6.32585,23.95592 -9.90307,72.52181 -9.00781,88.66601 -0.18969,-0.19908 -0.57645,-0.55835 -0.76172,-0.7539 -29.32445,-30.9514 -56.25568,-57.67737 -80.26953,-81.02149 0.66584,-3.72774 1.35031,-7.59259 2.28125,-12.36523 2.08423,-10.68529 6.43595,-36.10991 15.44726,-50.57618 8.93328,-14.34096 28.34289,-28.47624 28.68164,-28.72265 z M 593.75,892.49609 c 0.47632,0.48082 0.94316,0.94804 1.41992,1.42969 0.0429,0.86921 0.10547,2.20899 0.10547,2.20899 0,0 0.19654,-1.12487 0.3125,-1.78907 26.41342,26.69028 51.80539,52.80172 76.9082,78.9043 -1.41761,-0.2347 -2.69039,-0.49211 -5.1582,-0.58398 -13.98246,-0.52054 -63.50234,18.07686 -80.80078,23.37695 -16.06792,4.92303 -63.7634,47.69733 -70.7168,53.97853 -13.90969,-32.4783 -28.13057,-67.83235 -40.65429,-103.22267 6.00108,-3.86244 14.38164,-9.46643 19.97851,-14.90235 8.4664,-8.2229 34.09443,-19.24776 40.62891,-24.11718 6.53446,-4.86943 49.0363,-13.78164 53.58203,-14.47071 1.06006,-0.16068 2.78969,-0.49174 4.39453,-0.8125 z m 172.69922,3.02539 c -1.77061,9.1746 -12.39334,70.40375 -14.05664,76.63282 -1.6633,6.22906 -13.35924,26.55792 -15.07617,33.9941 -1.71696,7.4363 -5.04476,16.8514 -2.09375,12.6504 2.95099,-4.201 3.0592,-11.4436 6.43945,-16.1758 3.38026,-4.73205 7.77985,-9.65665 9.22851,-15.45112 1.44868,-5.79449 2.78878,-11.68592 5.31055,-16.94922 2.52178,-5.26333 2.62954,-13.32728 5.09766,-18.83204 2.46812,-5.50475 1.60989,-9.12742 3.9707,-17.1914 2.36081,-8.06398 5.09687,-16.80395 4.3457,-19.70117 -0.75115,-2.89725 -3.16601,-18.97657 -3.16601,-18.97657 z m -350.5332,35.14454 c 5.88858,0.24161 12.95838,1.54511 22.16015,3.74218 14.53738,3.47103 25.77618,13.08018 29.90625,17.00586 -0.005,0.005 -0.0501,0.0484 -0.0547,0.0527 0,0 0.0653,-0.0404 0.0664,-0.041 0.48152,0.45796 0.48972,0.47773 0.79297,0.7793 9.18191,29.37428 20.51854,61.73884 34.80078,96.80274 -7.22488,-7.9176 -26.93179,-16.1227 -44.37109,-26.8613 -17.48642,-10.7675 -48.55713,-15.3455 -51.52149,-15.7656 -6.30098,-22.6849 -11.1146,-47.56036 -14.49023,-72.65045 1.20714,1.0199 3.42026,1.49692 7.63476,-0.43359 4.48017,-2.05222 9.18759,-2.87248 15.07618,-2.63086 z" />
    <path
       id="path58"
       style="display:inline;opacity:0.3;fill:#d3d3d3;fill-opacity:1;stroke:none;stroke-width:49.3;stroke-dasharray:none;stroke-opacity:1;paint-order:stroke fill markers"
       d="m 577.28906,276.51172 c -6.77492,4.35854 -4.51077,6.75271 -7.29101,18.94922 -3.30106,14.4812 0.85534,64.19643 5.58593,57.29883 -2.24933,-25.29581 -0.5744,-50.7588 1.70508,-76.24805 z m -115.94531,13.16601 c -0.18685,0.17146 27.33155,26.28838 32.03516,30.09375 4.9012,3.96524 41.13423,24.232 45.91601,26.23829 6.87214,2.88334 15.62512,6.30236 15.16797,5.7207 0.67788,1.2756 -61.04346,-32.38012 -65.48437,-39.12891 -2.7178,-4.13018 -27.63477,-22.92383 -27.63477,-22.92383 z m -237.4375,50.37696 c -26.34233,49.75203 -58.24763,90.76176 -94.35156,124.47265 3.89908,6.70744 64.47148,-59.16938 73.06054,-80.84375 3.18978,-8.04934 21.76182,-40.35242 21.29102,-43.6289 z m 365.91602,41.63281 c -3.11431,21.40598 41.53124,71.47517 62.29687,107.21289 0,0 -0.60664,-8.67231 -2.42773,-14.75 -1.8211,-6.07768 -10.3208,-21.98912 -11.45899,-26.56445 -1.13819,-4.57535 -48.41015,-65.89844 -48.41015,-65.89844 z m -116.89063,51.89258 c -0.0928,-0.0161 -0.18731,0.022 -0.2832,0.11914 1.93325,3.03642 -1.58914,80.34576 -3.15625,91.97461 1.5938,-1.60923 5.41982,-6.04317 6.81445,-25.92578 0.8593,-12.25072 -0.49937,-65.66784 -3.375,-66.16797 z m -3.43945,92.09375 c -0.72073,0.7277 -1.02985,0.93531 -0.37305,1.63281 0.10326,0.10966 0.23335,-0.5962 0.37305,-1.63281 z m -358.24805,32.25586 c 0,0 -10.84963,20.65815 -7.62891,37.48633 2.10291,10.98759 -2.3289,22.67985 0,18.77539 4.50248,-7.54853 8.19481,-56.97568 7.62891,-56.26172 z m 231.05859,18.42969 c -0.0369,0.43619 1.26372,2.60313 3.31641,5.74804 z m 3.31641,5.74804 24.80078,42.98438 c -0.0115,0.094 16.93004,27.76663 24.03516,29.73828 3.66761,1.01775 -36.93518,-54.48958 -48.83594,-72.72266 z m 106.55859,54.6875 c -0.0432,0.10049 -0.0513,0.36385 -0.0391,0.71289 0.0152,-0.27522 0.0391,-0.71289 0.0391,-0.71289 z m -0.0391,0.71289 c -0.19724,3.56735 -1.45658,28.53487 1.43164,38.48828 2.31533,7.97911 5.91454,7.43914 7.57422,7.74414 -2.40287,-7.80746 -8.8173,-40.85828 -9.00586,-46.23242 z m 9.00586,46.23242 c 0.52187,1.69568 0.85937,2.22723 0.89649,0.99219 0.0206,-0.68524 -0.3261,-0.88736 -0.89649,-0.99219 z M 310.0918,678.38867 c -0.29349,0.20478 23.15126,10.72787 34.67773,11.47266 16.02516,1.03548 27.10494,-1.00733 24.43359,-2.93555 -23.48433,0.45109 -39.68552,-5.4498 -59.11132,-8.53711 z m 364.71875,9.85156 c -0.11462,-0.0131 -0.26692,0.0217 -0.45899,0.11133 -4.09748,1.91209 -21.24608,37.62769 -22.76367,40.22266 0,0 10.31884,-12.15623 11.45703,-15.91211 1.08484,-3.57982 14.09617,-24.15617 11.76563,-24.42188 z m -191.59571,48.77735 c -0.36217,-0.0354 -0.681,0.21222 -0.96484,0.67578 0.41811,-0.20171 0.84878,-0.39469 1.29688,-0.57031 -0.11424,-0.0609 -0.22533,-0.095 -0.33204,-0.10547 z m -0.96484,0.67578 c -7.26913,3.5068 -9.88031,10.89919 -3.32617,20.37695 1.08283,1.56586 1.01768,-16.60668 3.32617,-20.37695 z m -79.37305,32.16016 c 10.7131,6.94734 20.79651,21.33585 22.73828,23.18164 2.55365,2.42743 -5.97248,-13.44021 -8.23828,-16.51954 -4.73426,-6.43408 -14.5,-6.6621 -14.5,-6.6621 z m 38.28907,3.00195 c -0.0425,0.0289 -0.0764,0.13238 -0.10157,0.2832 0.0344,-0.0943 0.0664,-0.18918 0.10157,-0.2832 z m -0.10157,0.2832 c -2.6832,7.34375 -3.32513,15.41721 -3.10156,23.80078 -0.87157,0.31932 6.80807,47.93054 7.35156,50.53125 0.57273,2.74064 4.05089,23.06434 4.70899,19.19532 0.48422,-2.84685 -9.88286,-88.00029 -8.95899,-93.52735 z m 120.96289,79.72852 c 3.26281,4.98507 21.76249,18.97236 26.01172,22.45508 4.24924,3.48272 -26.01172,-22.45508 -26.01172,-22.45508 z m -55.88281,71.1914 c -0.55656,-0.0888 -26.47695,17.76615 -30.97851,22.74024 0,0 27.59825,-19.51744 30.87109,-22.59375 0.10089,-0.0948 0.13479,-0.14212 0.10742,-0.14649 z" />
  </g>
  <g
     inkscape:groupmode="layer"
     id="layer2"
     inkscape:label="eyes"
     style="display:inline;opacity:1">
    <g
       id="g23"
       style="display:inline;opacity:1">
      <path
         style="display:inline;opacity:1;fill:url(#radialGradient28);paint-order:stroke fill markers"
         d="m 103.61487,627.65543 c 42.39995,49.08551 106.69989,65.0509 165.686,82.55595 45.69455,13.56057 110.20144,41.36325 131.45425,55.64261 3.53107,33.27529 -2.27906,74.22358 -11.10655,98.45803 -14.10068,38.71115 -53.3538,43.27803 -80.48218,39.98198 -41.52931,-5.04574 -65.38711,-43.38917 -92.28625,-71.51366 C 185.13592,799.59005 159.40382,760.5447 137.41739,720.2224 123.73973,695.13805 105.33182,640.74132 105.33182,640.74132 Z"
         id="path15"
         sodipodi:nodetypes="cscssaacc" />
      <path
         style="display:inline;opacity:1;fill:#d3d3d3;fill-opacity:1;stroke:none;stroke-width:22;stroke-dasharray:none;paint-order:stroke fill markers"
         d="m 211.94389,757.55279 c 24.50384,-6.63149 58.70526,1.03718 86.70615,8.85757 28.85354,8.05853 51.43741,14.45107 72.54129,25.48289 -4.70675,24.82079 -17.42473,43.23348 -36.37796,53.55073 -15.29878,8.32794 -36.7107,11.77289 -51.66956,3.09039 -17.71856,-10.28428 -37.03284,-30.35872 -53.06459,-47.61138 -9.6329,-10.3665 -15.17997,-26.28094 -18.13533,-43.3702 z"
         id="path56"
         sodipodi:nodetypes="cscsssc" />
      <path
         style="display:inline;opacity:0.1;fill:#000000;stroke-width:0.844468;paint-order:stroke fill markers"
         d="m 234.73792,719.76814 c -9.31904,16.15769 -27.83537,45.17891 0.47274,80.91996 14.14669,16.0597 17.13072,19.54275 35.52602,32.83319 27.32691,15.38255 48.01392,17.40577 92.41068,18.11672 -31.59489,-4.56982 -64.8172,-6.86436 -87.03674,-24.54111 -12.90258,-8.68937 -20.44048,-14.6158 -31.96997,-28.91551 -22.33113,-27.52911 -9.23576,-52.49056 -9.40273,-78.41325 z"
         id="path57"
         sodipodi:nodetypes="ccccccc" />
      <path
         style="display:inline;opacity:0.3;fill:#ffffff;fill-opacity:1;paint-order:stroke fill markers"
         d="m 113.01317,645.10611 c 0,0 59.79736,44.81181 94.47615,57.13342 44.00315,15.63461 100.11716,28.61029 128.08432,42.27071 27.96716,13.66042 43.17672,18.72224 58.88236,25.60827 l -11.30601,-9.21898 C 360.03643,748.70005 331.38432,737.18232 291.56362,721.22379 249.17864,706.4453 227.79417,699.95788 189.5818,688.17206 161.58152,679.53595 136.12345,658.68428 113.01317,645.10611 Z"
         id="path23"
         sodipodi:nodetypes="cszcccsc" />
      <path
         style="display:inline;opacity:0.2;fill:#ffffff;fill-opacity:1;paint-order:stroke fill markers"
         d="m 158.39539,738.95704 c 0,0 72.6924,107.96445 100.16072,126.74384 27.46832,18.7794 38.77435,29.70559 51.74971,29.29586 12.97537,-0.40973 32.09696,-12.36026 32.09696,-12.36026 0,0 -22.91556,0.88776 -26.17837,3.14128 -3.26281,2.25353 -19.72863,-3.0047 -25.64722,-6.48742 -5.91858,-3.48273 -37.33263,-26.42773 -42.5683,-30.8665 -5.23568,-4.43877 -36.64972,-41.1098 -39.6849,-45.41199 -3.03517,-4.30219 -49.9286,-64.05481 -49.9286,-64.05481 z"
         id="path24" />
      <path
         style="display:inline;opacity:0.2;fill:#ffffff;fill-opacity:1;paint-order:stroke fill markers"
         d="m 241.55914,826.77632 c 0,0 26.10249,25.26682 33.61455,29.6373 7.51205,4.37048 16.69345,5.25823 20.25978,5.87283 3.56633,0.6146 -10.62311,-6.76058 -14.79647,-9.697 -4.17336,-2.93641 -19.34923,-15.84298 -25.11606,-19.80372 -5.76683,-3.96075 -13.9618,-6.00941 -13.9618,-6.00941 z"
         id="path25" />
      <path
         style="display:inline;opacity:0.2;fill:#ffffff;fill-opacity:1;paint-order:stroke fill markers"
         d="m 167.27327,729.46491 c 5.23568,9.56042 7.3603,20.82806 11.30602,21.92068 3.94573,1.09262 -2.65577,-12.22368 -2.65577,-12.22368 z"
         id="path26" />
      <path
         style="display:inline;opacity:0.2;fill:#ffffff;fill-opacity:1;paint-order:stroke fill markers"
         d="m 195.95566,766.27252 c 5.31155,8.74096 12.52009,31.00308 17.75577,34.75896 5.23567,3.75588 18.43867,19.66714 18.43867,19.66714 l 11.07839,2.93642 c 0,0 -7.58794,-9.90186 -10.09195,-12.83828 -2.50402,-2.93641 -20.41155,-21.98896 -23.75024,-26.83746 -3.33869,-4.8485 -13.43064,-17.68678 -13.43064,-17.68678 z"
         id="path27" />
    </g>
    <g
       inkscape:groupmode="layer"
       id="layer3"
       inkscape:label="Layer 1" />
    <g
       id="g22"
       style="display:inline">
      <path
         style="display:inline;opacity:1;fill:url(#radialGradient22);paint-order:stroke fill markers"
         d="m 470.53536,731.66646 c -2.893,-45.42927 10.55268,-107.33058 45.71618,-175.27049 61.29659,-133.00357 63.06845,-78.6192 64.28386,-212.02501 7.42074,86.20875 60.42933,52.10087 96.76971,227.72266 8.93297,84.36644 -4.69873,137.41284 -54.19808,170.90024 -42.23912,28.5757 -102.04069,9.82169 -152.57167,-11.3274 z"
         id="path13"
         sodipodi:nodetypes="ccccac" />
      <path
         style="opacity:1;fill:#d9d9d9;fill-opacity:1;paint-order:stroke fill markers"
         d="m 510.99015,703.78616 c 23.7526,-80.92635 51.78998,-151.18685 97.70538,-179.43601 18.15633,30.56248 31.51452,58.59226 30.58323,93.91901 -0.74279,28.1761 -13.41,55.06671 -34.44638,76.14924 -22.35222,22.40125 -73.51206,16.48785 -93.84223,9.36776 z"
         id="path14"
         sodipodi:nodetypes="ccssc" />
      <path
         style="opacity:0.2;fill:#ffffff;paint-order:stroke fill markers"
         d="m 482.86598,709.83097 c 2.5403,10.6773 1.14311,-67.96102 56.75462,-171.33637 15.68576,-29.158 40.58572,-57.60152 40.58572,-57.60152 -1.32381,-1.2311 -41.09614,71.2382 -47.18409,86.48765 -5.54511,13.88972 -36.27981,97.59895 -37.56027,106.39381 -1.12294,7.71283 -4.55277,27.88436 -6.37387,32.96058 -1.8211,5.07623 -6.22211,3.09585 -6.22211,3.09585 z"
         id="path17"
         sodipodi:nodetypes="cscsssc" />
      <path
         style="opacity:0.2;fill:#ffffff;paint-order:stroke fill markers"
         d="m 506.2252,672.59844 c 0,0 35.96681,-124.72933 72.16125,-157.43962 36.19445,-32.71029 1.36458,7.82074 -8.87788,19.53057 -9.91968,11.34079 -42.92521,82.3125 -53.79845,122.71481 -10.67322,39.65909 -9.48492,15.19424 -9.48492,15.19424 z"
         id="path18"
         sodipodi:nodetypes="csssc" />
      <path
         style="opacity:0.2;fill:#ffffff;paint-order:stroke fill markers"
         d="m 577.70354,471.6739 c 0,0 12.40627,-30.32019 12.55803,-66.27419 0.15176,-35.95401 2.10852,18.7044 0.68291,27.89594 -2.07413,13.37283 -13.24094,38.37825 -13.24094,38.37825 z"
         id="path19"
         sodipodi:nodetypes="csac" />
      <path
         style="opacity:0.2;fill:#ffffff;paint-order:stroke fill markers"
         d="m 628.23918,531.61185 c 0,0 31.83046,82.63191 9.37109,131.96793 -23.45533,51.52383 -2.35543,12.15538 4.02161,-3.24372 0,0 14.17808,-21.61769 10.09195,-55.0407 -5.69274,-46.56459 -23.48465,-73.68351 -23.48465,-73.68351 z"
         id="path20"
         sodipodi:nodetypes="cscsc" />
      <path
         style="opacity:0.2;fill:#ffffff;paint-order:stroke fill markers"
         d="m 643.26329,503.95948 c 0,0 18.13516,68.80087 19.12159,84.98529 0.8353,13.70472 -1.47965,59.34289 -17.37637,92.90679 -15.89672,33.5639 4.24924,-0.40973 4.24924,-0.40973 0,0 15.7185,-39.92987 16.50376,-57.87468 0.87848,-20.07502 1.83386,-41.853 -1.32789,-59.03559 -3.00374,-16.32389 -7.87893,-34.52147 -14.18944,-46.8802 -3.53481,-6.92272 -6.98089,-13.69188 -6.98089,-13.69188 z"
         id="path21"
         sodipodi:nodetypes="csscsssc" />
      <path
         style="opacity:0.1;fill:#000000;paint-order:stroke fill markers"
         d="m 608.43574,529.8261 c 13.77633,24.82122 40.28411,69.65648 22.23264,117.59315 -9.52648,21.33637 -11.50915,25.9758 -26.02661,42.68045 -22.78971,18.47445 -42.74126,18.4697 -86.57832,13.17972 30.05651,-2.14435 62.36552,-0.7487 79.44566,-23.28645 10.36011,-10.79688 16.17423,-18.34045 23.59848,-37.4905 14.42683,-36.84756 -5.56506,-75.00765 -12.67185,-112.67637 z"
         id="path22"
         sodipodi:nodetypes="ccccccc" />
    </g>
    <rect
       style="fill:#ffffff;fill-rule:evenodd;fill-opacity:0"
       id="rect162"
       width="1080"
       height="1920"
       x="0"
       y="0" />
  </g>
</svg>
